G04 #@! TF.GenerationSoftware,KiCad,Pcbnew,5.0.0-rc2-unknown-dd436b6~65~ubuntu18.04.1*
G04 #@! TF.CreationDate,2018-06-27T22:19:06+02:00*
G04 #@! TF.ProjectId,raspi3-4xWS2812-lvds,7261737069332D34785753323831322D,rev?*
G04 #@! TF.SameCoordinates,Original*
G04 #@! TF.FileFunction,Soldermask,Bot*
G04 #@! TF.FilePolarity,Negative*
%FSLAX46Y46*%
G04 Gerber Fmt 4.6, Leading zero omitted, Abs format (unit mm)*
G04 Created by KiCad (PCBNEW 5.0.0-rc2-unknown-dd436b6~65~ubuntu18.04.1) date Wed Jun 27 22:19:06 2018*
%MOMM*%
%LPD*%
G01*
G04 APERTURE LIST*
%ADD10R,1.101600X1.101600*%
%ADD11O,1.101600X1.101600*%
%ADD12R,1.801600X1.801600*%
%ADD13O,1.801600X1.801600*%
%ADD14C,0.100000*%
%ADD15C,0.976600*%
%ADD16R,2.001600X2.501600*%
G04 APERTURE END LIST*
D10*
G04 #@! TO.C,J1*
X102300000Y-90700000D03*
D11*
X102300000Y-91970000D03*
X101030000Y-90700000D03*
X101030000Y-91970000D03*
X99760000Y-90700000D03*
X99760000Y-91970000D03*
X98490000Y-90700000D03*
X98490000Y-91970000D03*
X97220000Y-90700000D03*
X97220000Y-91970000D03*
G04 #@! TD*
D12*
G04 #@! TO.C,J3*
X86360000Y-54610000D03*
D13*
X86360000Y-52070000D03*
X88900000Y-54610000D03*
X88900000Y-52070000D03*
X91440000Y-54610000D03*
X91440000Y-52070000D03*
X93980000Y-54610000D03*
X93980000Y-52070000D03*
X96520000Y-54610000D03*
X96520000Y-52070000D03*
X99060000Y-54610000D03*
X99060000Y-52070000D03*
X101600000Y-54610000D03*
X101600000Y-52070000D03*
X104140000Y-54610000D03*
X104140000Y-52070000D03*
G04 #@! TD*
D14*
G04 #@! TO.C,C1*
G36*
X100055581Y-80225376D02*
X100079281Y-80228891D01*
X100102523Y-80234713D01*
X100125082Y-80242785D01*
X100146742Y-80253029D01*
X100167292Y-80265347D01*
X100186537Y-80279619D01*
X100204290Y-80295710D01*
X100220381Y-80313463D01*
X100234653Y-80332708D01*
X100246971Y-80353258D01*
X100257215Y-80374918D01*
X100265287Y-80397477D01*
X100271109Y-80420719D01*
X100274624Y-80444419D01*
X100275800Y-80468350D01*
X100275800Y-81031650D01*
X100274624Y-81055581D01*
X100271109Y-81079281D01*
X100265287Y-81102523D01*
X100257215Y-81125082D01*
X100246971Y-81146742D01*
X100234653Y-81167292D01*
X100220381Y-81186537D01*
X100204290Y-81204290D01*
X100186537Y-81220381D01*
X100167292Y-81234653D01*
X100146742Y-81246971D01*
X100125082Y-81257215D01*
X100102523Y-81265287D01*
X100079281Y-81271109D01*
X100055581Y-81274624D01*
X100031650Y-81275800D01*
X99543350Y-81275800D01*
X99519419Y-81274624D01*
X99495719Y-81271109D01*
X99472477Y-81265287D01*
X99449918Y-81257215D01*
X99428258Y-81246971D01*
X99407708Y-81234653D01*
X99388463Y-81220381D01*
X99370710Y-81204290D01*
X99354619Y-81186537D01*
X99340347Y-81167292D01*
X99328029Y-81146742D01*
X99317785Y-81125082D01*
X99309713Y-81102523D01*
X99303891Y-81079281D01*
X99300376Y-81055581D01*
X99299200Y-81031650D01*
X99299200Y-80468350D01*
X99300376Y-80444419D01*
X99303891Y-80420719D01*
X99309713Y-80397477D01*
X99317785Y-80374918D01*
X99328029Y-80353258D01*
X99340347Y-80332708D01*
X99354619Y-80313463D01*
X99370710Y-80295710D01*
X99388463Y-80279619D01*
X99407708Y-80265347D01*
X99428258Y-80253029D01*
X99449918Y-80242785D01*
X99472477Y-80234713D01*
X99495719Y-80228891D01*
X99519419Y-80225376D01*
X99543350Y-80224200D01*
X100031650Y-80224200D01*
X100055581Y-80225376D01*
X100055581Y-80225376D01*
G37*
D15*
X99787500Y-80750000D03*
D14*
G36*
X98480581Y-80225376D02*
X98504281Y-80228891D01*
X98527523Y-80234713D01*
X98550082Y-80242785D01*
X98571742Y-80253029D01*
X98592292Y-80265347D01*
X98611537Y-80279619D01*
X98629290Y-80295710D01*
X98645381Y-80313463D01*
X98659653Y-80332708D01*
X98671971Y-80353258D01*
X98682215Y-80374918D01*
X98690287Y-80397477D01*
X98696109Y-80420719D01*
X98699624Y-80444419D01*
X98700800Y-80468350D01*
X98700800Y-81031650D01*
X98699624Y-81055581D01*
X98696109Y-81079281D01*
X98690287Y-81102523D01*
X98682215Y-81125082D01*
X98671971Y-81146742D01*
X98659653Y-81167292D01*
X98645381Y-81186537D01*
X98629290Y-81204290D01*
X98611537Y-81220381D01*
X98592292Y-81234653D01*
X98571742Y-81246971D01*
X98550082Y-81257215D01*
X98527523Y-81265287D01*
X98504281Y-81271109D01*
X98480581Y-81274624D01*
X98456650Y-81275800D01*
X97968350Y-81275800D01*
X97944419Y-81274624D01*
X97920719Y-81271109D01*
X97897477Y-81265287D01*
X97874918Y-81257215D01*
X97853258Y-81246971D01*
X97832708Y-81234653D01*
X97813463Y-81220381D01*
X97795710Y-81204290D01*
X97779619Y-81186537D01*
X97765347Y-81167292D01*
X97753029Y-81146742D01*
X97742785Y-81125082D01*
X97734713Y-81102523D01*
X97728891Y-81079281D01*
X97725376Y-81055581D01*
X97724200Y-81031650D01*
X97724200Y-80468350D01*
X97725376Y-80444419D01*
X97728891Y-80420719D01*
X97734713Y-80397477D01*
X97742785Y-80374918D01*
X97753029Y-80353258D01*
X97765347Y-80332708D01*
X97779619Y-80313463D01*
X97795710Y-80295710D01*
X97813463Y-80279619D01*
X97832708Y-80265347D01*
X97853258Y-80253029D01*
X97874918Y-80242785D01*
X97897477Y-80234713D01*
X97920719Y-80228891D01*
X97944419Y-80225376D01*
X97968350Y-80224200D01*
X98456650Y-80224200D01*
X98480581Y-80225376D01*
X98480581Y-80225376D01*
G37*
D15*
X98212500Y-80750000D03*
G04 #@! TD*
D14*
G04 #@! TO.C,C2*
G36*
X97055581Y-80225376D02*
X97079281Y-80228891D01*
X97102523Y-80234713D01*
X97125082Y-80242785D01*
X97146742Y-80253029D01*
X97167292Y-80265347D01*
X97186537Y-80279619D01*
X97204290Y-80295710D01*
X97220381Y-80313463D01*
X97234653Y-80332708D01*
X97246971Y-80353258D01*
X97257215Y-80374918D01*
X97265287Y-80397477D01*
X97271109Y-80420719D01*
X97274624Y-80444419D01*
X97275800Y-80468350D01*
X97275800Y-81031650D01*
X97274624Y-81055581D01*
X97271109Y-81079281D01*
X97265287Y-81102523D01*
X97257215Y-81125082D01*
X97246971Y-81146742D01*
X97234653Y-81167292D01*
X97220381Y-81186537D01*
X97204290Y-81204290D01*
X97186537Y-81220381D01*
X97167292Y-81234653D01*
X97146742Y-81246971D01*
X97125082Y-81257215D01*
X97102523Y-81265287D01*
X97079281Y-81271109D01*
X97055581Y-81274624D01*
X97031650Y-81275800D01*
X96543350Y-81275800D01*
X96519419Y-81274624D01*
X96495719Y-81271109D01*
X96472477Y-81265287D01*
X96449918Y-81257215D01*
X96428258Y-81246971D01*
X96407708Y-81234653D01*
X96388463Y-81220381D01*
X96370710Y-81204290D01*
X96354619Y-81186537D01*
X96340347Y-81167292D01*
X96328029Y-81146742D01*
X96317785Y-81125082D01*
X96309713Y-81102523D01*
X96303891Y-81079281D01*
X96300376Y-81055581D01*
X96299200Y-81031650D01*
X96299200Y-80468350D01*
X96300376Y-80444419D01*
X96303891Y-80420719D01*
X96309713Y-80397477D01*
X96317785Y-80374918D01*
X96328029Y-80353258D01*
X96340347Y-80332708D01*
X96354619Y-80313463D01*
X96370710Y-80295710D01*
X96388463Y-80279619D01*
X96407708Y-80265347D01*
X96428258Y-80253029D01*
X96449918Y-80242785D01*
X96472477Y-80234713D01*
X96495719Y-80228891D01*
X96519419Y-80225376D01*
X96543350Y-80224200D01*
X97031650Y-80224200D01*
X97055581Y-80225376D01*
X97055581Y-80225376D01*
G37*
D15*
X96787500Y-80750000D03*
D14*
G36*
X95480581Y-80225376D02*
X95504281Y-80228891D01*
X95527523Y-80234713D01*
X95550082Y-80242785D01*
X95571742Y-80253029D01*
X95592292Y-80265347D01*
X95611537Y-80279619D01*
X95629290Y-80295710D01*
X95645381Y-80313463D01*
X95659653Y-80332708D01*
X95671971Y-80353258D01*
X95682215Y-80374918D01*
X95690287Y-80397477D01*
X95696109Y-80420719D01*
X95699624Y-80444419D01*
X95700800Y-80468350D01*
X95700800Y-81031650D01*
X95699624Y-81055581D01*
X95696109Y-81079281D01*
X95690287Y-81102523D01*
X95682215Y-81125082D01*
X95671971Y-81146742D01*
X95659653Y-81167292D01*
X95645381Y-81186537D01*
X95629290Y-81204290D01*
X95611537Y-81220381D01*
X95592292Y-81234653D01*
X95571742Y-81246971D01*
X95550082Y-81257215D01*
X95527523Y-81265287D01*
X95504281Y-81271109D01*
X95480581Y-81274624D01*
X95456650Y-81275800D01*
X94968350Y-81275800D01*
X94944419Y-81274624D01*
X94920719Y-81271109D01*
X94897477Y-81265287D01*
X94874918Y-81257215D01*
X94853258Y-81246971D01*
X94832708Y-81234653D01*
X94813463Y-81220381D01*
X94795710Y-81204290D01*
X94779619Y-81186537D01*
X94765347Y-81167292D01*
X94753029Y-81146742D01*
X94742785Y-81125082D01*
X94734713Y-81102523D01*
X94728891Y-81079281D01*
X94725376Y-81055581D01*
X94724200Y-81031650D01*
X94724200Y-80468350D01*
X94725376Y-80444419D01*
X94728891Y-80420719D01*
X94734713Y-80397477D01*
X94742785Y-80374918D01*
X94753029Y-80353258D01*
X94765347Y-80332708D01*
X94779619Y-80313463D01*
X94795710Y-80295710D01*
X94813463Y-80279619D01*
X94832708Y-80265347D01*
X94853258Y-80253029D01*
X94874918Y-80242785D01*
X94897477Y-80234713D01*
X94920719Y-80228891D01*
X94944419Y-80225376D01*
X94968350Y-80224200D01*
X95456650Y-80224200D01*
X95480581Y-80225376D01*
X95480581Y-80225376D01*
G37*
D15*
X95212500Y-80750000D03*
G04 #@! TD*
D14*
G04 #@! TO.C,C3*
G36*
X95480581Y-81725376D02*
X95504281Y-81728891D01*
X95527523Y-81734713D01*
X95550082Y-81742785D01*
X95571742Y-81753029D01*
X95592292Y-81765347D01*
X95611537Y-81779619D01*
X95629290Y-81795710D01*
X95645381Y-81813463D01*
X95659653Y-81832708D01*
X95671971Y-81853258D01*
X95682215Y-81874918D01*
X95690287Y-81897477D01*
X95696109Y-81920719D01*
X95699624Y-81944419D01*
X95700800Y-81968350D01*
X95700800Y-82531650D01*
X95699624Y-82555581D01*
X95696109Y-82579281D01*
X95690287Y-82602523D01*
X95682215Y-82625082D01*
X95671971Y-82646742D01*
X95659653Y-82667292D01*
X95645381Y-82686537D01*
X95629290Y-82704290D01*
X95611537Y-82720381D01*
X95592292Y-82734653D01*
X95571742Y-82746971D01*
X95550082Y-82757215D01*
X95527523Y-82765287D01*
X95504281Y-82771109D01*
X95480581Y-82774624D01*
X95456650Y-82775800D01*
X94968350Y-82775800D01*
X94944419Y-82774624D01*
X94920719Y-82771109D01*
X94897477Y-82765287D01*
X94874918Y-82757215D01*
X94853258Y-82746971D01*
X94832708Y-82734653D01*
X94813463Y-82720381D01*
X94795710Y-82704290D01*
X94779619Y-82686537D01*
X94765347Y-82667292D01*
X94753029Y-82646742D01*
X94742785Y-82625082D01*
X94734713Y-82602523D01*
X94728891Y-82579281D01*
X94725376Y-82555581D01*
X94724200Y-82531650D01*
X94724200Y-81968350D01*
X94725376Y-81944419D01*
X94728891Y-81920719D01*
X94734713Y-81897477D01*
X94742785Y-81874918D01*
X94753029Y-81853258D01*
X94765347Y-81832708D01*
X94779619Y-81813463D01*
X94795710Y-81795710D01*
X94813463Y-81779619D01*
X94832708Y-81765347D01*
X94853258Y-81753029D01*
X94874918Y-81742785D01*
X94897477Y-81734713D01*
X94920719Y-81728891D01*
X94944419Y-81725376D01*
X94968350Y-81724200D01*
X95456650Y-81724200D01*
X95480581Y-81725376D01*
X95480581Y-81725376D01*
G37*
D15*
X95212500Y-82250000D03*
D14*
G36*
X97055581Y-81725376D02*
X97079281Y-81728891D01*
X97102523Y-81734713D01*
X97125082Y-81742785D01*
X97146742Y-81753029D01*
X97167292Y-81765347D01*
X97186537Y-81779619D01*
X97204290Y-81795710D01*
X97220381Y-81813463D01*
X97234653Y-81832708D01*
X97246971Y-81853258D01*
X97257215Y-81874918D01*
X97265287Y-81897477D01*
X97271109Y-81920719D01*
X97274624Y-81944419D01*
X97275800Y-81968350D01*
X97275800Y-82531650D01*
X97274624Y-82555581D01*
X97271109Y-82579281D01*
X97265287Y-82602523D01*
X97257215Y-82625082D01*
X97246971Y-82646742D01*
X97234653Y-82667292D01*
X97220381Y-82686537D01*
X97204290Y-82704290D01*
X97186537Y-82720381D01*
X97167292Y-82734653D01*
X97146742Y-82746971D01*
X97125082Y-82757215D01*
X97102523Y-82765287D01*
X97079281Y-82771109D01*
X97055581Y-82774624D01*
X97031650Y-82775800D01*
X96543350Y-82775800D01*
X96519419Y-82774624D01*
X96495719Y-82771109D01*
X96472477Y-82765287D01*
X96449918Y-82757215D01*
X96428258Y-82746971D01*
X96407708Y-82734653D01*
X96388463Y-82720381D01*
X96370710Y-82704290D01*
X96354619Y-82686537D01*
X96340347Y-82667292D01*
X96328029Y-82646742D01*
X96317785Y-82625082D01*
X96309713Y-82602523D01*
X96303891Y-82579281D01*
X96300376Y-82555581D01*
X96299200Y-82531650D01*
X96299200Y-81968350D01*
X96300376Y-81944419D01*
X96303891Y-81920719D01*
X96309713Y-81897477D01*
X96317785Y-81874918D01*
X96328029Y-81853258D01*
X96340347Y-81832708D01*
X96354619Y-81813463D01*
X96370710Y-81795710D01*
X96388463Y-81779619D01*
X96407708Y-81765347D01*
X96428258Y-81753029D01*
X96449918Y-81742785D01*
X96472477Y-81734713D01*
X96495719Y-81728891D01*
X96519419Y-81725376D01*
X96543350Y-81724200D01*
X97031650Y-81724200D01*
X97055581Y-81725376D01*
X97055581Y-81725376D01*
G37*
D15*
X96787500Y-82250000D03*
G04 #@! TD*
D14*
G04 #@! TO.C,C4*
G36*
X97055581Y-83225376D02*
X97079281Y-83228891D01*
X97102523Y-83234713D01*
X97125082Y-83242785D01*
X97146742Y-83253029D01*
X97167292Y-83265347D01*
X97186537Y-83279619D01*
X97204290Y-83295710D01*
X97220381Y-83313463D01*
X97234653Y-83332708D01*
X97246971Y-83353258D01*
X97257215Y-83374918D01*
X97265287Y-83397477D01*
X97271109Y-83420719D01*
X97274624Y-83444419D01*
X97275800Y-83468350D01*
X97275800Y-84031650D01*
X97274624Y-84055581D01*
X97271109Y-84079281D01*
X97265287Y-84102523D01*
X97257215Y-84125082D01*
X97246971Y-84146742D01*
X97234653Y-84167292D01*
X97220381Y-84186537D01*
X97204290Y-84204290D01*
X97186537Y-84220381D01*
X97167292Y-84234653D01*
X97146742Y-84246971D01*
X97125082Y-84257215D01*
X97102523Y-84265287D01*
X97079281Y-84271109D01*
X97055581Y-84274624D01*
X97031650Y-84275800D01*
X96543350Y-84275800D01*
X96519419Y-84274624D01*
X96495719Y-84271109D01*
X96472477Y-84265287D01*
X96449918Y-84257215D01*
X96428258Y-84246971D01*
X96407708Y-84234653D01*
X96388463Y-84220381D01*
X96370710Y-84204290D01*
X96354619Y-84186537D01*
X96340347Y-84167292D01*
X96328029Y-84146742D01*
X96317785Y-84125082D01*
X96309713Y-84102523D01*
X96303891Y-84079281D01*
X96300376Y-84055581D01*
X96299200Y-84031650D01*
X96299200Y-83468350D01*
X96300376Y-83444419D01*
X96303891Y-83420719D01*
X96309713Y-83397477D01*
X96317785Y-83374918D01*
X96328029Y-83353258D01*
X96340347Y-83332708D01*
X96354619Y-83313463D01*
X96370710Y-83295710D01*
X96388463Y-83279619D01*
X96407708Y-83265347D01*
X96428258Y-83253029D01*
X96449918Y-83242785D01*
X96472477Y-83234713D01*
X96495719Y-83228891D01*
X96519419Y-83225376D01*
X96543350Y-83224200D01*
X97031650Y-83224200D01*
X97055581Y-83225376D01*
X97055581Y-83225376D01*
G37*
D15*
X96787500Y-83750000D03*
D14*
G36*
X95480581Y-83225376D02*
X95504281Y-83228891D01*
X95527523Y-83234713D01*
X95550082Y-83242785D01*
X95571742Y-83253029D01*
X95592292Y-83265347D01*
X95611537Y-83279619D01*
X95629290Y-83295710D01*
X95645381Y-83313463D01*
X95659653Y-83332708D01*
X95671971Y-83353258D01*
X95682215Y-83374918D01*
X95690287Y-83397477D01*
X95696109Y-83420719D01*
X95699624Y-83444419D01*
X95700800Y-83468350D01*
X95700800Y-84031650D01*
X95699624Y-84055581D01*
X95696109Y-84079281D01*
X95690287Y-84102523D01*
X95682215Y-84125082D01*
X95671971Y-84146742D01*
X95659653Y-84167292D01*
X95645381Y-84186537D01*
X95629290Y-84204290D01*
X95611537Y-84220381D01*
X95592292Y-84234653D01*
X95571742Y-84246971D01*
X95550082Y-84257215D01*
X95527523Y-84265287D01*
X95504281Y-84271109D01*
X95480581Y-84274624D01*
X95456650Y-84275800D01*
X94968350Y-84275800D01*
X94944419Y-84274624D01*
X94920719Y-84271109D01*
X94897477Y-84265287D01*
X94874918Y-84257215D01*
X94853258Y-84246971D01*
X94832708Y-84234653D01*
X94813463Y-84220381D01*
X94795710Y-84204290D01*
X94779619Y-84186537D01*
X94765347Y-84167292D01*
X94753029Y-84146742D01*
X94742785Y-84125082D01*
X94734713Y-84102523D01*
X94728891Y-84079281D01*
X94725376Y-84055581D01*
X94724200Y-84031650D01*
X94724200Y-83468350D01*
X94725376Y-83444419D01*
X94728891Y-83420719D01*
X94734713Y-83397477D01*
X94742785Y-83374918D01*
X94753029Y-83353258D01*
X94765347Y-83332708D01*
X94779619Y-83313463D01*
X94795710Y-83295710D01*
X94813463Y-83279619D01*
X94832708Y-83265347D01*
X94853258Y-83253029D01*
X94874918Y-83242785D01*
X94897477Y-83234713D01*
X94920719Y-83228891D01*
X94944419Y-83225376D01*
X94968350Y-83224200D01*
X95456650Y-83224200D01*
X95480581Y-83225376D01*
X95480581Y-83225376D01*
G37*
D15*
X95212500Y-83750000D03*
G04 #@! TD*
D14*
G04 #@! TO.C,C5*
G36*
X103055581Y-83225376D02*
X103079281Y-83228891D01*
X103102523Y-83234713D01*
X103125082Y-83242785D01*
X103146742Y-83253029D01*
X103167292Y-83265347D01*
X103186537Y-83279619D01*
X103204290Y-83295710D01*
X103220381Y-83313463D01*
X103234653Y-83332708D01*
X103246971Y-83353258D01*
X103257215Y-83374918D01*
X103265287Y-83397477D01*
X103271109Y-83420719D01*
X103274624Y-83444419D01*
X103275800Y-83468350D01*
X103275800Y-84031650D01*
X103274624Y-84055581D01*
X103271109Y-84079281D01*
X103265287Y-84102523D01*
X103257215Y-84125082D01*
X103246971Y-84146742D01*
X103234653Y-84167292D01*
X103220381Y-84186537D01*
X103204290Y-84204290D01*
X103186537Y-84220381D01*
X103167292Y-84234653D01*
X103146742Y-84246971D01*
X103125082Y-84257215D01*
X103102523Y-84265287D01*
X103079281Y-84271109D01*
X103055581Y-84274624D01*
X103031650Y-84275800D01*
X102543350Y-84275800D01*
X102519419Y-84274624D01*
X102495719Y-84271109D01*
X102472477Y-84265287D01*
X102449918Y-84257215D01*
X102428258Y-84246971D01*
X102407708Y-84234653D01*
X102388463Y-84220381D01*
X102370710Y-84204290D01*
X102354619Y-84186537D01*
X102340347Y-84167292D01*
X102328029Y-84146742D01*
X102317785Y-84125082D01*
X102309713Y-84102523D01*
X102303891Y-84079281D01*
X102300376Y-84055581D01*
X102299200Y-84031650D01*
X102299200Y-83468350D01*
X102300376Y-83444419D01*
X102303891Y-83420719D01*
X102309713Y-83397477D01*
X102317785Y-83374918D01*
X102328029Y-83353258D01*
X102340347Y-83332708D01*
X102354619Y-83313463D01*
X102370710Y-83295710D01*
X102388463Y-83279619D01*
X102407708Y-83265347D01*
X102428258Y-83253029D01*
X102449918Y-83242785D01*
X102472477Y-83234713D01*
X102495719Y-83228891D01*
X102519419Y-83225376D01*
X102543350Y-83224200D01*
X103031650Y-83224200D01*
X103055581Y-83225376D01*
X103055581Y-83225376D01*
G37*
D15*
X102787500Y-83750000D03*
D14*
G36*
X101480581Y-83225376D02*
X101504281Y-83228891D01*
X101527523Y-83234713D01*
X101550082Y-83242785D01*
X101571742Y-83253029D01*
X101592292Y-83265347D01*
X101611537Y-83279619D01*
X101629290Y-83295710D01*
X101645381Y-83313463D01*
X101659653Y-83332708D01*
X101671971Y-83353258D01*
X101682215Y-83374918D01*
X101690287Y-83397477D01*
X101696109Y-83420719D01*
X101699624Y-83444419D01*
X101700800Y-83468350D01*
X101700800Y-84031650D01*
X101699624Y-84055581D01*
X101696109Y-84079281D01*
X101690287Y-84102523D01*
X101682215Y-84125082D01*
X101671971Y-84146742D01*
X101659653Y-84167292D01*
X101645381Y-84186537D01*
X101629290Y-84204290D01*
X101611537Y-84220381D01*
X101592292Y-84234653D01*
X101571742Y-84246971D01*
X101550082Y-84257215D01*
X101527523Y-84265287D01*
X101504281Y-84271109D01*
X101480581Y-84274624D01*
X101456650Y-84275800D01*
X100968350Y-84275800D01*
X100944419Y-84274624D01*
X100920719Y-84271109D01*
X100897477Y-84265287D01*
X100874918Y-84257215D01*
X100853258Y-84246971D01*
X100832708Y-84234653D01*
X100813463Y-84220381D01*
X100795710Y-84204290D01*
X100779619Y-84186537D01*
X100765347Y-84167292D01*
X100753029Y-84146742D01*
X100742785Y-84125082D01*
X100734713Y-84102523D01*
X100728891Y-84079281D01*
X100725376Y-84055581D01*
X100724200Y-84031650D01*
X100724200Y-83468350D01*
X100725376Y-83444419D01*
X100728891Y-83420719D01*
X100734713Y-83397477D01*
X100742785Y-83374918D01*
X100753029Y-83353258D01*
X100765347Y-83332708D01*
X100779619Y-83313463D01*
X100795710Y-83295710D01*
X100813463Y-83279619D01*
X100832708Y-83265347D01*
X100853258Y-83253029D01*
X100874918Y-83242785D01*
X100897477Y-83234713D01*
X100920719Y-83228891D01*
X100944419Y-83225376D01*
X100968350Y-83224200D01*
X101456650Y-83224200D01*
X101480581Y-83225376D01*
X101480581Y-83225376D01*
G37*
D15*
X101212500Y-83750000D03*
G04 #@! TD*
D14*
G04 #@! TO.C,C6*
G36*
X97055581Y-84725376D02*
X97079281Y-84728891D01*
X97102523Y-84734713D01*
X97125082Y-84742785D01*
X97146742Y-84753029D01*
X97167292Y-84765347D01*
X97186537Y-84779619D01*
X97204290Y-84795710D01*
X97220381Y-84813463D01*
X97234653Y-84832708D01*
X97246971Y-84853258D01*
X97257215Y-84874918D01*
X97265287Y-84897477D01*
X97271109Y-84920719D01*
X97274624Y-84944419D01*
X97275800Y-84968350D01*
X97275800Y-85531650D01*
X97274624Y-85555581D01*
X97271109Y-85579281D01*
X97265287Y-85602523D01*
X97257215Y-85625082D01*
X97246971Y-85646742D01*
X97234653Y-85667292D01*
X97220381Y-85686537D01*
X97204290Y-85704290D01*
X97186537Y-85720381D01*
X97167292Y-85734653D01*
X97146742Y-85746971D01*
X97125082Y-85757215D01*
X97102523Y-85765287D01*
X97079281Y-85771109D01*
X97055581Y-85774624D01*
X97031650Y-85775800D01*
X96543350Y-85775800D01*
X96519419Y-85774624D01*
X96495719Y-85771109D01*
X96472477Y-85765287D01*
X96449918Y-85757215D01*
X96428258Y-85746971D01*
X96407708Y-85734653D01*
X96388463Y-85720381D01*
X96370710Y-85704290D01*
X96354619Y-85686537D01*
X96340347Y-85667292D01*
X96328029Y-85646742D01*
X96317785Y-85625082D01*
X96309713Y-85602523D01*
X96303891Y-85579281D01*
X96300376Y-85555581D01*
X96299200Y-85531650D01*
X96299200Y-84968350D01*
X96300376Y-84944419D01*
X96303891Y-84920719D01*
X96309713Y-84897477D01*
X96317785Y-84874918D01*
X96328029Y-84853258D01*
X96340347Y-84832708D01*
X96354619Y-84813463D01*
X96370710Y-84795710D01*
X96388463Y-84779619D01*
X96407708Y-84765347D01*
X96428258Y-84753029D01*
X96449918Y-84742785D01*
X96472477Y-84734713D01*
X96495719Y-84728891D01*
X96519419Y-84725376D01*
X96543350Y-84724200D01*
X97031650Y-84724200D01*
X97055581Y-84725376D01*
X97055581Y-84725376D01*
G37*
D15*
X96787500Y-85250000D03*
D14*
G36*
X95480581Y-84725376D02*
X95504281Y-84728891D01*
X95527523Y-84734713D01*
X95550082Y-84742785D01*
X95571742Y-84753029D01*
X95592292Y-84765347D01*
X95611537Y-84779619D01*
X95629290Y-84795710D01*
X95645381Y-84813463D01*
X95659653Y-84832708D01*
X95671971Y-84853258D01*
X95682215Y-84874918D01*
X95690287Y-84897477D01*
X95696109Y-84920719D01*
X95699624Y-84944419D01*
X95700800Y-84968350D01*
X95700800Y-85531650D01*
X95699624Y-85555581D01*
X95696109Y-85579281D01*
X95690287Y-85602523D01*
X95682215Y-85625082D01*
X95671971Y-85646742D01*
X95659653Y-85667292D01*
X95645381Y-85686537D01*
X95629290Y-85704290D01*
X95611537Y-85720381D01*
X95592292Y-85734653D01*
X95571742Y-85746971D01*
X95550082Y-85757215D01*
X95527523Y-85765287D01*
X95504281Y-85771109D01*
X95480581Y-85774624D01*
X95456650Y-85775800D01*
X94968350Y-85775800D01*
X94944419Y-85774624D01*
X94920719Y-85771109D01*
X94897477Y-85765287D01*
X94874918Y-85757215D01*
X94853258Y-85746971D01*
X94832708Y-85734653D01*
X94813463Y-85720381D01*
X94795710Y-85704290D01*
X94779619Y-85686537D01*
X94765347Y-85667292D01*
X94753029Y-85646742D01*
X94742785Y-85625082D01*
X94734713Y-85602523D01*
X94728891Y-85579281D01*
X94725376Y-85555581D01*
X94724200Y-85531650D01*
X94724200Y-84968350D01*
X94725376Y-84944419D01*
X94728891Y-84920719D01*
X94734713Y-84897477D01*
X94742785Y-84874918D01*
X94753029Y-84853258D01*
X94765347Y-84832708D01*
X94779619Y-84813463D01*
X94795710Y-84795710D01*
X94813463Y-84779619D01*
X94832708Y-84765347D01*
X94853258Y-84753029D01*
X94874918Y-84742785D01*
X94897477Y-84734713D01*
X94920719Y-84728891D01*
X94944419Y-84725376D01*
X94968350Y-84724200D01*
X95456650Y-84724200D01*
X95480581Y-84725376D01*
X95480581Y-84725376D01*
G37*
D15*
X95212500Y-85250000D03*
G04 #@! TD*
D14*
G04 #@! TO.C,C7*
G36*
X101480581Y-81725376D02*
X101504281Y-81728891D01*
X101527523Y-81734713D01*
X101550082Y-81742785D01*
X101571742Y-81753029D01*
X101592292Y-81765347D01*
X101611537Y-81779619D01*
X101629290Y-81795710D01*
X101645381Y-81813463D01*
X101659653Y-81832708D01*
X101671971Y-81853258D01*
X101682215Y-81874918D01*
X101690287Y-81897477D01*
X101696109Y-81920719D01*
X101699624Y-81944419D01*
X101700800Y-81968350D01*
X101700800Y-82531650D01*
X101699624Y-82555581D01*
X101696109Y-82579281D01*
X101690287Y-82602523D01*
X101682215Y-82625082D01*
X101671971Y-82646742D01*
X101659653Y-82667292D01*
X101645381Y-82686537D01*
X101629290Y-82704290D01*
X101611537Y-82720381D01*
X101592292Y-82734653D01*
X101571742Y-82746971D01*
X101550082Y-82757215D01*
X101527523Y-82765287D01*
X101504281Y-82771109D01*
X101480581Y-82774624D01*
X101456650Y-82775800D01*
X100968350Y-82775800D01*
X100944419Y-82774624D01*
X100920719Y-82771109D01*
X100897477Y-82765287D01*
X100874918Y-82757215D01*
X100853258Y-82746971D01*
X100832708Y-82734653D01*
X100813463Y-82720381D01*
X100795710Y-82704290D01*
X100779619Y-82686537D01*
X100765347Y-82667292D01*
X100753029Y-82646742D01*
X100742785Y-82625082D01*
X100734713Y-82602523D01*
X100728891Y-82579281D01*
X100725376Y-82555581D01*
X100724200Y-82531650D01*
X100724200Y-81968350D01*
X100725376Y-81944419D01*
X100728891Y-81920719D01*
X100734713Y-81897477D01*
X100742785Y-81874918D01*
X100753029Y-81853258D01*
X100765347Y-81832708D01*
X100779619Y-81813463D01*
X100795710Y-81795710D01*
X100813463Y-81779619D01*
X100832708Y-81765347D01*
X100853258Y-81753029D01*
X100874918Y-81742785D01*
X100897477Y-81734713D01*
X100920719Y-81728891D01*
X100944419Y-81725376D01*
X100968350Y-81724200D01*
X101456650Y-81724200D01*
X101480581Y-81725376D01*
X101480581Y-81725376D01*
G37*
D15*
X101212500Y-82250000D03*
D14*
G36*
X103055581Y-81725376D02*
X103079281Y-81728891D01*
X103102523Y-81734713D01*
X103125082Y-81742785D01*
X103146742Y-81753029D01*
X103167292Y-81765347D01*
X103186537Y-81779619D01*
X103204290Y-81795710D01*
X103220381Y-81813463D01*
X103234653Y-81832708D01*
X103246971Y-81853258D01*
X103257215Y-81874918D01*
X103265287Y-81897477D01*
X103271109Y-81920719D01*
X103274624Y-81944419D01*
X103275800Y-81968350D01*
X103275800Y-82531650D01*
X103274624Y-82555581D01*
X103271109Y-82579281D01*
X103265287Y-82602523D01*
X103257215Y-82625082D01*
X103246971Y-82646742D01*
X103234653Y-82667292D01*
X103220381Y-82686537D01*
X103204290Y-82704290D01*
X103186537Y-82720381D01*
X103167292Y-82734653D01*
X103146742Y-82746971D01*
X103125082Y-82757215D01*
X103102523Y-82765287D01*
X103079281Y-82771109D01*
X103055581Y-82774624D01*
X103031650Y-82775800D01*
X102543350Y-82775800D01*
X102519419Y-82774624D01*
X102495719Y-82771109D01*
X102472477Y-82765287D01*
X102449918Y-82757215D01*
X102428258Y-82746971D01*
X102407708Y-82734653D01*
X102388463Y-82720381D01*
X102370710Y-82704290D01*
X102354619Y-82686537D01*
X102340347Y-82667292D01*
X102328029Y-82646742D01*
X102317785Y-82625082D01*
X102309713Y-82602523D01*
X102303891Y-82579281D01*
X102300376Y-82555581D01*
X102299200Y-82531650D01*
X102299200Y-81968350D01*
X102300376Y-81944419D01*
X102303891Y-81920719D01*
X102309713Y-81897477D01*
X102317785Y-81874918D01*
X102328029Y-81853258D01*
X102340347Y-81832708D01*
X102354619Y-81813463D01*
X102370710Y-81795710D01*
X102388463Y-81779619D01*
X102407708Y-81765347D01*
X102428258Y-81753029D01*
X102449918Y-81742785D01*
X102472477Y-81734713D01*
X102495719Y-81728891D01*
X102519419Y-81725376D01*
X102543350Y-81724200D01*
X103031650Y-81724200D01*
X103055581Y-81725376D01*
X103055581Y-81725376D01*
G37*
D15*
X102787500Y-82250000D03*
G04 #@! TD*
D14*
G04 #@! TO.C,C8*
G36*
X103055581Y-84725376D02*
X103079281Y-84728891D01*
X103102523Y-84734713D01*
X103125082Y-84742785D01*
X103146742Y-84753029D01*
X103167292Y-84765347D01*
X103186537Y-84779619D01*
X103204290Y-84795710D01*
X103220381Y-84813463D01*
X103234653Y-84832708D01*
X103246971Y-84853258D01*
X103257215Y-84874918D01*
X103265287Y-84897477D01*
X103271109Y-84920719D01*
X103274624Y-84944419D01*
X103275800Y-84968350D01*
X103275800Y-85531650D01*
X103274624Y-85555581D01*
X103271109Y-85579281D01*
X103265287Y-85602523D01*
X103257215Y-85625082D01*
X103246971Y-85646742D01*
X103234653Y-85667292D01*
X103220381Y-85686537D01*
X103204290Y-85704290D01*
X103186537Y-85720381D01*
X103167292Y-85734653D01*
X103146742Y-85746971D01*
X103125082Y-85757215D01*
X103102523Y-85765287D01*
X103079281Y-85771109D01*
X103055581Y-85774624D01*
X103031650Y-85775800D01*
X102543350Y-85775800D01*
X102519419Y-85774624D01*
X102495719Y-85771109D01*
X102472477Y-85765287D01*
X102449918Y-85757215D01*
X102428258Y-85746971D01*
X102407708Y-85734653D01*
X102388463Y-85720381D01*
X102370710Y-85704290D01*
X102354619Y-85686537D01*
X102340347Y-85667292D01*
X102328029Y-85646742D01*
X102317785Y-85625082D01*
X102309713Y-85602523D01*
X102303891Y-85579281D01*
X102300376Y-85555581D01*
X102299200Y-85531650D01*
X102299200Y-84968350D01*
X102300376Y-84944419D01*
X102303891Y-84920719D01*
X102309713Y-84897477D01*
X102317785Y-84874918D01*
X102328029Y-84853258D01*
X102340347Y-84832708D01*
X102354619Y-84813463D01*
X102370710Y-84795710D01*
X102388463Y-84779619D01*
X102407708Y-84765347D01*
X102428258Y-84753029D01*
X102449918Y-84742785D01*
X102472477Y-84734713D01*
X102495719Y-84728891D01*
X102519419Y-84725376D01*
X102543350Y-84724200D01*
X103031650Y-84724200D01*
X103055581Y-84725376D01*
X103055581Y-84725376D01*
G37*
D15*
X102787500Y-85250000D03*
D14*
G36*
X101480581Y-84725376D02*
X101504281Y-84728891D01*
X101527523Y-84734713D01*
X101550082Y-84742785D01*
X101571742Y-84753029D01*
X101592292Y-84765347D01*
X101611537Y-84779619D01*
X101629290Y-84795710D01*
X101645381Y-84813463D01*
X101659653Y-84832708D01*
X101671971Y-84853258D01*
X101682215Y-84874918D01*
X101690287Y-84897477D01*
X101696109Y-84920719D01*
X101699624Y-84944419D01*
X101700800Y-84968350D01*
X101700800Y-85531650D01*
X101699624Y-85555581D01*
X101696109Y-85579281D01*
X101690287Y-85602523D01*
X101682215Y-85625082D01*
X101671971Y-85646742D01*
X101659653Y-85667292D01*
X101645381Y-85686537D01*
X101629290Y-85704290D01*
X101611537Y-85720381D01*
X101592292Y-85734653D01*
X101571742Y-85746971D01*
X101550082Y-85757215D01*
X101527523Y-85765287D01*
X101504281Y-85771109D01*
X101480581Y-85774624D01*
X101456650Y-85775800D01*
X100968350Y-85775800D01*
X100944419Y-85774624D01*
X100920719Y-85771109D01*
X100897477Y-85765287D01*
X100874918Y-85757215D01*
X100853258Y-85746971D01*
X100832708Y-85734653D01*
X100813463Y-85720381D01*
X100795710Y-85704290D01*
X100779619Y-85686537D01*
X100765347Y-85667292D01*
X100753029Y-85646742D01*
X100742785Y-85625082D01*
X100734713Y-85602523D01*
X100728891Y-85579281D01*
X100725376Y-85555581D01*
X100724200Y-85531650D01*
X100724200Y-84968350D01*
X100725376Y-84944419D01*
X100728891Y-84920719D01*
X100734713Y-84897477D01*
X100742785Y-84874918D01*
X100753029Y-84853258D01*
X100765347Y-84832708D01*
X100779619Y-84813463D01*
X100795710Y-84795710D01*
X100813463Y-84779619D01*
X100832708Y-84765347D01*
X100853258Y-84753029D01*
X100874918Y-84742785D01*
X100897477Y-84734713D01*
X100920719Y-84728891D01*
X100944419Y-84725376D01*
X100968350Y-84724200D01*
X101456650Y-84724200D01*
X101480581Y-84725376D01*
X101480581Y-84725376D01*
G37*
D15*
X101212500Y-85250000D03*
G04 #@! TD*
D14*
G04 #@! TO.C,C9*
G36*
X101480581Y-80225376D02*
X101504281Y-80228891D01*
X101527523Y-80234713D01*
X101550082Y-80242785D01*
X101571742Y-80253029D01*
X101592292Y-80265347D01*
X101611537Y-80279619D01*
X101629290Y-80295710D01*
X101645381Y-80313463D01*
X101659653Y-80332708D01*
X101671971Y-80353258D01*
X101682215Y-80374918D01*
X101690287Y-80397477D01*
X101696109Y-80420719D01*
X101699624Y-80444419D01*
X101700800Y-80468350D01*
X101700800Y-81031650D01*
X101699624Y-81055581D01*
X101696109Y-81079281D01*
X101690287Y-81102523D01*
X101682215Y-81125082D01*
X101671971Y-81146742D01*
X101659653Y-81167292D01*
X101645381Y-81186537D01*
X101629290Y-81204290D01*
X101611537Y-81220381D01*
X101592292Y-81234653D01*
X101571742Y-81246971D01*
X101550082Y-81257215D01*
X101527523Y-81265287D01*
X101504281Y-81271109D01*
X101480581Y-81274624D01*
X101456650Y-81275800D01*
X100968350Y-81275800D01*
X100944419Y-81274624D01*
X100920719Y-81271109D01*
X100897477Y-81265287D01*
X100874918Y-81257215D01*
X100853258Y-81246971D01*
X100832708Y-81234653D01*
X100813463Y-81220381D01*
X100795710Y-81204290D01*
X100779619Y-81186537D01*
X100765347Y-81167292D01*
X100753029Y-81146742D01*
X100742785Y-81125082D01*
X100734713Y-81102523D01*
X100728891Y-81079281D01*
X100725376Y-81055581D01*
X100724200Y-81031650D01*
X100724200Y-80468350D01*
X100725376Y-80444419D01*
X100728891Y-80420719D01*
X100734713Y-80397477D01*
X100742785Y-80374918D01*
X100753029Y-80353258D01*
X100765347Y-80332708D01*
X100779619Y-80313463D01*
X100795710Y-80295710D01*
X100813463Y-80279619D01*
X100832708Y-80265347D01*
X100853258Y-80253029D01*
X100874918Y-80242785D01*
X100897477Y-80234713D01*
X100920719Y-80228891D01*
X100944419Y-80225376D01*
X100968350Y-80224200D01*
X101456650Y-80224200D01*
X101480581Y-80225376D01*
X101480581Y-80225376D01*
G37*
D15*
X101212500Y-80750000D03*
D14*
G36*
X103055581Y-80225376D02*
X103079281Y-80228891D01*
X103102523Y-80234713D01*
X103125082Y-80242785D01*
X103146742Y-80253029D01*
X103167292Y-80265347D01*
X103186537Y-80279619D01*
X103204290Y-80295710D01*
X103220381Y-80313463D01*
X103234653Y-80332708D01*
X103246971Y-80353258D01*
X103257215Y-80374918D01*
X103265287Y-80397477D01*
X103271109Y-80420719D01*
X103274624Y-80444419D01*
X103275800Y-80468350D01*
X103275800Y-81031650D01*
X103274624Y-81055581D01*
X103271109Y-81079281D01*
X103265287Y-81102523D01*
X103257215Y-81125082D01*
X103246971Y-81146742D01*
X103234653Y-81167292D01*
X103220381Y-81186537D01*
X103204290Y-81204290D01*
X103186537Y-81220381D01*
X103167292Y-81234653D01*
X103146742Y-81246971D01*
X103125082Y-81257215D01*
X103102523Y-81265287D01*
X103079281Y-81271109D01*
X103055581Y-81274624D01*
X103031650Y-81275800D01*
X102543350Y-81275800D01*
X102519419Y-81274624D01*
X102495719Y-81271109D01*
X102472477Y-81265287D01*
X102449918Y-81257215D01*
X102428258Y-81246971D01*
X102407708Y-81234653D01*
X102388463Y-81220381D01*
X102370710Y-81204290D01*
X102354619Y-81186537D01*
X102340347Y-81167292D01*
X102328029Y-81146742D01*
X102317785Y-81125082D01*
X102309713Y-81102523D01*
X102303891Y-81079281D01*
X102300376Y-81055581D01*
X102299200Y-81031650D01*
X102299200Y-80468350D01*
X102300376Y-80444419D01*
X102303891Y-80420719D01*
X102309713Y-80397477D01*
X102317785Y-80374918D01*
X102328029Y-80353258D01*
X102340347Y-80332708D01*
X102354619Y-80313463D01*
X102370710Y-80295710D01*
X102388463Y-80279619D01*
X102407708Y-80265347D01*
X102428258Y-80253029D01*
X102449918Y-80242785D01*
X102472477Y-80234713D01*
X102495719Y-80228891D01*
X102519419Y-80225376D01*
X102543350Y-80224200D01*
X103031650Y-80224200D01*
X103055581Y-80225376D01*
X103055581Y-80225376D01*
G37*
D15*
X102787500Y-80750000D03*
G04 #@! TD*
D14*
G04 #@! TO.C,C10*
G36*
X101730581Y-62725376D02*
X101754281Y-62728891D01*
X101777523Y-62734713D01*
X101800082Y-62742785D01*
X101821742Y-62753029D01*
X101842292Y-62765347D01*
X101861537Y-62779619D01*
X101879290Y-62795710D01*
X101895381Y-62813463D01*
X101909653Y-62832708D01*
X101921971Y-62853258D01*
X101932215Y-62874918D01*
X101940287Y-62897477D01*
X101946109Y-62920719D01*
X101949624Y-62944419D01*
X101950800Y-62968350D01*
X101950800Y-63531650D01*
X101949624Y-63555581D01*
X101946109Y-63579281D01*
X101940287Y-63602523D01*
X101932215Y-63625082D01*
X101921971Y-63646742D01*
X101909653Y-63667292D01*
X101895381Y-63686537D01*
X101879290Y-63704290D01*
X101861537Y-63720381D01*
X101842292Y-63734653D01*
X101821742Y-63746971D01*
X101800082Y-63757215D01*
X101777523Y-63765287D01*
X101754281Y-63771109D01*
X101730581Y-63774624D01*
X101706650Y-63775800D01*
X101218350Y-63775800D01*
X101194419Y-63774624D01*
X101170719Y-63771109D01*
X101147477Y-63765287D01*
X101124918Y-63757215D01*
X101103258Y-63746971D01*
X101082708Y-63734653D01*
X101063463Y-63720381D01*
X101045710Y-63704290D01*
X101029619Y-63686537D01*
X101015347Y-63667292D01*
X101003029Y-63646742D01*
X100992785Y-63625082D01*
X100984713Y-63602523D01*
X100978891Y-63579281D01*
X100975376Y-63555581D01*
X100974200Y-63531650D01*
X100974200Y-62968350D01*
X100975376Y-62944419D01*
X100978891Y-62920719D01*
X100984713Y-62897477D01*
X100992785Y-62874918D01*
X101003029Y-62853258D01*
X101015347Y-62832708D01*
X101029619Y-62813463D01*
X101045710Y-62795710D01*
X101063463Y-62779619D01*
X101082708Y-62765347D01*
X101103258Y-62753029D01*
X101124918Y-62742785D01*
X101147477Y-62734713D01*
X101170719Y-62728891D01*
X101194419Y-62725376D01*
X101218350Y-62724200D01*
X101706650Y-62724200D01*
X101730581Y-62725376D01*
X101730581Y-62725376D01*
G37*
D15*
X101462500Y-63250000D03*
D14*
G36*
X103305581Y-62725376D02*
X103329281Y-62728891D01*
X103352523Y-62734713D01*
X103375082Y-62742785D01*
X103396742Y-62753029D01*
X103417292Y-62765347D01*
X103436537Y-62779619D01*
X103454290Y-62795710D01*
X103470381Y-62813463D01*
X103484653Y-62832708D01*
X103496971Y-62853258D01*
X103507215Y-62874918D01*
X103515287Y-62897477D01*
X103521109Y-62920719D01*
X103524624Y-62944419D01*
X103525800Y-62968350D01*
X103525800Y-63531650D01*
X103524624Y-63555581D01*
X103521109Y-63579281D01*
X103515287Y-63602523D01*
X103507215Y-63625082D01*
X103496971Y-63646742D01*
X103484653Y-63667292D01*
X103470381Y-63686537D01*
X103454290Y-63704290D01*
X103436537Y-63720381D01*
X103417292Y-63734653D01*
X103396742Y-63746971D01*
X103375082Y-63757215D01*
X103352523Y-63765287D01*
X103329281Y-63771109D01*
X103305581Y-63774624D01*
X103281650Y-63775800D01*
X102793350Y-63775800D01*
X102769419Y-63774624D01*
X102745719Y-63771109D01*
X102722477Y-63765287D01*
X102699918Y-63757215D01*
X102678258Y-63746971D01*
X102657708Y-63734653D01*
X102638463Y-63720381D01*
X102620710Y-63704290D01*
X102604619Y-63686537D01*
X102590347Y-63667292D01*
X102578029Y-63646742D01*
X102567785Y-63625082D01*
X102559713Y-63602523D01*
X102553891Y-63579281D01*
X102550376Y-63555581D01*
X102549200Y-63531650D01*
X102549200Y-62968350D01*
X102550376Y-62944419D01*
X102553891Y-62920719D01*
X102559713Y-62897477D01*
X102567785Y-62874918D01*
X102578029Y-62853258D01*
X102590347Y-62832708D01*
X102604619Y-62813463D01*
X102620710Y-62795710D01*
X102638463Y-62779619D01*
X102657708Y-62765347D01*
X102678258Y-62753029D01*
X102699918Y-62742785D01*
X102722477Y-62734713D01*
X102745719Y-62728891D01*
X102769419Y-62725376D01*
X102793350Y-62724200D01*
X103281650Y-62724200D01*
X103305581Y-62725376D01*
X103305581Y-62725376D01*
G37*
D15*
X103037500Y-63250000D03*
G04 #@! TD*
D14*
G04 #@! TO.C,C11*
G36*
X98480581Y-62725376D02*
X98504281Y-62728891D01*
X98527523Y-62734713D01*
X98550082Y-62742785D01*
X98571742Y-62753029D01*
X98592292Y-62765347D01*
X98611537Y-62779619D01*
X98629290Y-62795710D01*
X98645381Y-62813463D01*
X98659653Y-62832708D01*
X98671971Y-62853258D01*
X98682215Y-62874918D01*
X98690287Y-62897477D01*
X98696109Y-62920719D01*
X98699624Y-62944419D01*
X98700800Y-62968350D01*
X98700800Y-63531650D01*
X98699624Y-63555581D01*
X98696109Y-63579281D01*
X98690287Y-63602523D01*
X98682215Y-63625082D01*
X98671971Y-63646742D01*
X98659653Y-63667292D01*
X98645381Y-63686537D01*
X98629290Y-63704290D01*
X98611537Y-63720381D01*
X98592292Y-63734653D01*
X98571742Y-63746971D01*
X98550082Y-63757215D01*
X98527523Y-63765287D01*
X98504281Y-63771109D01*
X98480581Y-63774624D01*
X98456650Y-63775800D01*
X97968350Y-63775800D01*
X97944419Y-63774624D01*
X97920719Y-63771109D01*
X97897477Y-63765287D01*
X97874918Y-63757215D01*
X97853258Y-63746971D01*
X97832708Y-63734653D01*
X97813463Y-63720381D01*
X97795710Y-63704290D01*
X97779619Y-63686537D01*
X97765347Y-63667292D01*
X97753029Y-63646742D01*
X97742785Y-63625082D01*
X97734713Y-63602523D01*
X97728891Y-63579281D01*
X97725376Y-63555581D01*
X97724200Y-63531650D01*
X97724200Y-62968350D01*
X97725376Y-62944419D01*
X97728891Y-62920719D01*
X97734713Y-62897477D01*
X97742785Y-62874918D01*
X97753029Y-62853258D01*
X97765347Y-62832708D01*
X97779619Y-62813463D01*
X97795710Y-62795710D01*
X97813463Y-62779619D01*
X97832708Y-62765347D01*
X97853258Y-62753029D01*
X97874918Y-62742785D01*
X97897477Y-62734713D01*
X97920719Y-62728891D01*
X97944419Y-62725376D01*
X97968350Y-62724200D01*
X98456650Y-62724200D01*
X98480581Y-62725376D01*
X98480581Y-62725376D01*
G37*
D15*
X98212500Y-63250000D03*
D14*
G36*
X100055581Y-62725376D02*
X100079281Y-62728891D01*
X100102523Y-62734713D01*
X100125082Y-62742785D01*
X100146742Y-62753029D01*
X100167292Y-62765347D01*
X100186537Y-62779619D01*
X100204290Y-62795710D01*
X100220381Y-62813463D01*
X100234653Y-62832708D01*
X100246971Y-62853258D01*
X100257215Y-62874918D01*
X100265287Y-62897477D01*
X100271109Y-62920719D01*
X100274624Y-62944419D01*
X100275800Y-62968350D01*
X100275800Y-63531650D01*
X100274624Y-63555581D01*
X100271109Y-63579281D01*
X100265287Y-63602523D01*
X100257215Y-63625082D01*
X100246971Y-63646742D01*
X100234653Y-63667292D01*
X100220381Y-63686537D01*
X100204290Y-63704290D01*
X100186537Y-63720381D01*
X100167292Y-63734653D01*
X100146742Y-63746971D01*
X100125082Y-63757215D01*
X100102523Y-63765287D01*
X100079281Y-63771109D01*
X100055581Y-63774624D01*
X100031650Y-63775800D01*
X99543350Y-63775800D01*
X99519419Y-63774624D01*
X99495719Y-63771109D01*
X99472477Y-63765287D01*
X99449918Y-63757215D01*
X99428258Y-63746971D01*
X99407708Y-63734653D01*
X99388463Y-63720381D01*
X99370710Y-63704290D01*
X99354619Y-63686537D01*
X99340347Y-63667292D01*
X99328029Y-63646742D01*
X99317785Y-63625082D01*
X99309713Y-63602523D01*
X99303891Y-63579281D01*
X99300376Y-63555581D01*
X99299200Y-63531650D01*
X99299200Y-62968350D01*
X99300376Y-62944419D01*
X99303891Y-62920719D01*
X99309713Y-62897477D01*
X99317785Y-62874918D01*
X99328029Y-62853258D01*
X99340347Y-62832708D01*
X99354619Y-62813463D01*
X99370710Y-62795710D01*
X99388463Y-62779619D01*
X99407708Y-62765347D01*
X99428258Y-62753029D01*
X99449918Y-62742785D01*
X99472477Y-62734713D01*
X99495719Y-62728891D01*
X99519419Y-62725376D01*
X99543350Y-62724200D01*
X100031650Y-62724200D01*
X100055581Y-62725376D01*
X100055581Y-62725376D01*
G37*
D15*
X99787500Y-63250000D03*
G04 #@! TD*
D14*
G04 #@! TO.C,C12*
G36*
X91055581Y-81725376D02*
X91079281Y-81728891D01*
X91102523Y-81734713D01*
X91125082Y-81742785D01*
X91146742Y-81753029D01*
X91167292Y-81765347D01*
X91186537Y-81779619D01*
X91204290Y-81795710D01*
X91220381Y-81813463D01*
X91234653Y-81832708D01*
X91246971Y-81853258D01*
X91257215Y-81874918D01*
X91265287Y-81897477D01*
X91271109Y-81920719D01*
X91274624Y-81944419D01*
X91275800Y-81968350D01*
X91275800Y-82531650D01*
X91274624Y-82555581D01*
X91271109Y-82579281D01*
X91265287Y-82602523D01*
X91257215Y-82625082D01*
X91246971Y-82646742D01*
X91234653Y-82667292D01*
X91220381Y-82686537D01*
X91204290Y-82704290D01*
X91186537Y-82720381D01*
X91167292Y-82734653D01*
X91146742Y-82746971D01*
X91125082Y-82757215D01*
X91102523Y-82765287D01*
X91079281Y-82771109D01*
X91055581Y-82774624D01*
X91031650Y-82775800D01*
X90543350Y-82775800D01*
X90519419Y-82774624D01*
X90495719Y-82771109D01*
X90472477Y-82765287D01*
X90449918Y-82757215D01*
X90428258Y-82746971D01*
X90407708Y-82734653D01*
X90388463Y-82720381D01*
X90370710Y-82704290D01*
X90354619Y-82686537D01*
X90340347Y-82667292D01*
X90328029Y-82646742D01*
X90317785Y-82625082D01*
X90309713Y-82602523D01*
X90303891Y-82579281D01*
X90300376Y-82555581D01*
X90299200Y-82531650D01*
X90299200Y-81968350D01*
X90300376Y-81944419D01*
X90303891Y-81920719D01*
X90309713Y-81897477D01*
X90317785Y-81874918D01*
X90328029Y-81853258D01*
X90340347Y-81832708D01*
X90354619Y-81813463D01*
X90370710Y-81795710D01*
X90388463Y-81779619D01*
X90407708Y-81765347D01*
X90428258Y-81753029D01*
X90449918Y-81742785D01*
X90472477Y-81734713D01*
X90495719Y-81728891D01*
X90519419Y-81725376D01*
X90543350Y-81724200D01*
X91031650Y-81724200D01*
X91055581Y-81725376D01*
X91055581Y-81725376D01*
G37*
D15*
X90787500Y-82250000D03*
D14*
G36*
X89480581Y-81725376D02*
X89504281Y-81728891D01*
X89527523Y-81734713D01*
X89550082Y-81742785D01*
X89571742Y-81753029D01*
X89592292Y-81765347D01*
X89611537Y-81779619D01*
X89629290Y-81795710D01*
X89645381Y-81813463D01*
X89659653Y-81832708D01*
X89671971Y-81853258D01*
X89682215Y-81874918D01*
X89690287Y-81897477D01*
X89696109Y-81920719D01*
X89699624Y-81944419D01*
X89700800Y-81968350D01*
X89700800Y-82531650D01*
X89699624Y-82555581D01*
X89696109Y-82579281D01*
X89690287Y-82602523D01*
X89682215Y-82625082D01*
X89671971Y-82646742D01*
X89659653Y-82667292D01*
X89645381Y-82686537D01*
X89629290Y-82704290D01*
X89611537Y-82720381D01*
X89592292Y-82734653D01*
X89571742Y-82746971D01*
X89550082Y-82757215D01*
X89527523Y-82765287D01*
X89504281Y-82771109D01*
X89480581Y-82774624D01*
X89456650Y-82775800D01*
X88968350Y-82775800D01*
X88944419Y-82774624D01*
X88920719Y-82771109D01*
X88897477Y-82765287D01*
X88874918Y-82757215D01*
X88853258Y-82746971D01*
X88832708Y-82734653D01*
X88813463Y-82720381D01*
X88795710Y-82704290D01*
X88779619Y-82686537D01*
X88765347Y-82667292D01*
X88753029Y-82646742D01*
X88742785Y-82625082D01*
X88734713Y-82602523D01*
X88728891Y-82579281D01*
X88725376Y-82555581D01*
X88724200Y-82531650D01*
X88724200Y-81968350D01*
X88725376Y-81944419D01*
X88728891Y-81920719D01*
X88734713Y-81897477D01*
X88742785Y-81874918D01*
X88753029Y-81853258D01*
X88765347Y-81832708D01*
X88779619Y-81813463D01*
X88795710Y-81795710D01*
X88813463Y-81779619D01*
X88832708Y-81765347D01*
X88853258Y-81753029D01*
X88874918Y-81742785D01*
X88897477Y-81734713D01*
X88920719Y-81728891D01*
X88944419Y-81725376D01*
X88968350Y-81724200D01*
X89456650Y-81724200D01*
X89480581Y-81725376D01*
X89480581Y-81725376D01*
G37*
D15*
X89212500Y-82250000D03*
G04 #@! TD*
D14*
G04 #@! TO.C,C13*
G36*
X89480581Y-80225376D02*
X89504281Y-80228891D01*
X89527523Y-80234713D01*
X89550082Y-80242785D01*
X89571742Y-80253029D01*
X89592292Y-80265347D01*
X89611537Y-80279619D01*
X89629290Y-80295710D01*
X89645381Y-80313463D01*
X89659653Y-80332708D01*
X89671971Y-80353258D01*
X89682215Y-80374918D01*
X89690287Y-80397477D01*
X89696109Y-80420719D01*
X89699624Y-80444419D01*
X89700800Y-80468350D01*
X89700800Y-81031650D01*
X89699624Y-81055581D01*
X89696109Y-81079281D01*
X89690287Y-81102523D01*
X89682215Y-81125082D01*
X89671971Y-81146742D01*
X89659653Y-81167292D01*
X89645381Y-81186537D01*
X89629290Y-81204290D01*
X89611537Y-81220381D01*
X89592292Y-81234653D01*
X89571742Y-81246971D01*
X89550082Y-81257215D01*
X89527523Y-81265287D01*
X89504281Y-81271109D01*
X89480581Y-81274624D01*
X89456650Y-81275800D01*
X88968350Y-81275800D01*
X88944419Y-81274624D01*
X88920719Y-81271109D01*
X88897477Y-81265287D01*
X88874918Y-81257215D01*
X88853258Y-81246971D01*
X88832708Y-81234653D01*
X88813463Y-81220381D01*
X88795710Y-81204290D01*
X88779619Y-81186537D01*
X88765347Y-81167292D01*
X88753029Y-81146742D01*
X88742785Y-81125082D01*
X88734713Y-81102523D01*
X88728891Y-81079281D01*
X88725376Y-81055581D01*
X88724200Y-81031650D01*
X88724200Y-80468350D01*
X88725376Y-80444419D01*
X88728891Y-80420719D01*
X88734713Y-80397477D01*
X88742785Y-80374918D01*
X88753029Y-80353258D01*
X88765347Y-80332708D01*
X88779619Y-80313463D01*
X88795710Y-80295710D01*
X88813463Y-80279619D01*
X88832708Y-80265347D01*
X88853258Y-80253029D01*
X88874918Y-80242785D01*
X88897477Y-80234713D01*
X88920719Y-80228891D01*
X88944419Y-80225376D01*
X88968350Y-80224200D01*
X89456650Y-80224200D01*
X89480581Y-80225376D01*
X89480581Y-80225376D01*
G37*
D15*
X89212500Y-80750000D03*
D14*
G36*
X91055581Y-80225376D02*
X91079281Y-80228891D01*
X91102523Y-80234713D01*
X91125082Y-80242785D01*
X91146742Y-80253029D01*
X91167292Y-80265347D01*
X91186537Y-80279619D01*
X91204290Y-80295710D01*
X91220381Y-80313463D01*
X91234653Y-80332708D01*
X91246971Y-80353258D01*
X91257215Y-80374918D01*
X91265287Y-80397477D01*
X91271109Y-80420719D01*
X91274624Y-80444419D01*
X91275800Y-80468350D01*
X91275800Y-81031650D01*
X91274624Y-81055581D01*
X91271109Y-81079281D01*
X91265287Y-81102523D01*
X91257215Y-81125082D01*
X91246971Y-81146742D01*
X91234653Y-81167292D01*
X91220381Y-81186537D01*
X91204290Y-81204290D01*
X91186537Y-81220381D01*
X91167292Y-81234653D01*
X91146742Y-81246971D01*
X91125082Y-81257215D01*
X91102523Y-81265287D01*
X91079281Y-81271109D01*
X91055581Y-81274624D01*
X91031650Y-81275800D01*
X90543350Y-81275800D01*
X90519419Y-81274624D01*
X90495719Y-81271109D01*
X90472477Y-81265287D01*
X90449918Y-81257215D01*
X90428258Y-81246971D01*
X90407708Y-81234653D01*
X90388463Y-81220381D01*
X90370710Y-81204290D01*
X90354619Y-81186537D01*
X90340347Y-81167292D01*
X90328029Y-81146742D01*
X90317785Y-81125082D01*
X90309713Y-81102523D01*
X90303891Y-81079281D01*
X90300376Y-81055581D01*
X90299200Y-81031650D01*
X90299200Y-80468350D01*
X90300376Y-80444419D01*
X90303891Y-80420719D01*
X90309713Y-80397477D01*
X90317785Y-80374918D01*
X90328029Y-80353258D01*
X90340347Y-80332708D01*
X90354619Y-80313463D01*
X90370710Y-80295710D01*
X90388463Y-80279619D01*
X90407708Y-80265347D01*
X90428258Y-80253029D01*
X90449918Y-80242785D01*
X90472477Y-80234713D01*
X90495719Y-80228891D01*
X90519419Y-80225376D01*
X90543350Y-80224200D01*
X91031650Y-80224200D01*
X91055581Y-80225376D01*
X91055581Y-80225376D01*
G37*
D15*
X90787500Y-80750000D03*
G04 #@! TD*
D14*
G04 #@! TO.C,C14*
G36*
X89480581Y-83225376D02*
X89504281Y-83228891D01*
X89527523Y-83234713D01*
X89550082Y-83242785D01*
X89571742Y-83253029D01*
X89592292Y-83265347D01*
X89611537Y-83279619D01*
X89629290Y-83295710D01*
X89645381Y-83313463D01*
X89659653Y-83332708D01*
X89671971Y-83353258D01*
X89682215Y-83374918D01*
X89690287Y-83397477D01*
X89696109Y-83420719D01*
X89699624Y-83444419D01*
X89700800Y-83468350D01*
X89700800Y-84031650D01*
X89699624Y-84055581D01*
X89696109Y-84079281D01*
X89690287Y-84102523D01*
X89682215Y-84125082D01*
X89671971Y-84146742D01*
X89659653Y-84167292D01*
X89645381Y-84186537D01*
X89629290Y-84204290D01*
X89611537Y-84220381D01*
X89592292Y-84234653D01*
X89571742Y-84246971D01*
X89550082Y-84257215D01*
X89527523Y-84265287D01*
X89504281Y-84271109D01*
X89480581Y-84274624D01*
X89456650Y-84275800D01*
X88968350Y-84275800D01*
X88944419Y-84274624D01*
X88920719Y-84271109D01*
X88897477Y-84265287D01*
X88874918Y-84257215D01*
X88853258Y-84246971D01*
X88832708Y-84234653D01*
X88813463Y-84220381D01*
X88795710Y-84204290D01*
X88779619Y-84186537D01*
X88765347Y-84167292D01*
X88753029Y-84146742D01*
X88742785Y-84125082D01*
X88734713Y-84102523D01*
X88728891Y-84079281D01*
X88725376Y-84055581D01*
X88724200Y-84031650D01*
X88724200Y-83468350D01*
X88725376Y-83444419D01*
X88728891Y-83420719D01*
X88734713Y-83397477D01*
X88742785Y-83374918D01*
X88753029Y-83353258D01*
X88765347Y-83332708D01*
X88779619Y-83313463D01*
X88795710Y-83295710D01*
X88813463Y-83279619D01*
X88832708Y-83265347D01*
X88853258Y-83253029D01*
X88874918Y-83242785D01*
X88897477Y-83234713D01*
X88920719Y-83228891D01*
X88944419Y-83225376D01*
X88968350Y-83224200D01*
X89456650Y-83224200D01*
X89480581Y-83225376D01*
X89480581Y-83225376D01*
G37*
D15*
X89212500Y-83750000D03*
D14*
G36*
X91055581Y-83225376D02*
X91079281Y-83228891D01*
X91102523Y-83234713D01*
X91125082Y-83242785D01*
X91146742Y-83253029D01*
X91167292Y-83265347D01*
X91186537Y-83279619D01*
X91204290Y-83295710D01*
X91220381Y-83313463D01*
X91234653Y-83332708D01*
X91246971Y-83353258D01*
X91257215Y-83374918D01*
X91265287Y-83397477D01*
X91271109Y-83420719D01*
X91274624Y-83444419D01*
X91275800Y-83468350D01*
X91275800Y-84031650D01*
X91274624Y-84055581D01*
X91271109Y-84079281D01*
X91265287Y-84102523D01*
X91257215Y-84125082D01*
X91246971Y-84146742D01*
X91234653Y-84167292D01*
X91220381Y-84186537D01*
X91204290Y-84204290D01*
X91186537Y-84220381D01*
X91167292Y-84234653D01*
X91146742Y-84246971D01*
X91125082Y-84257215D01*
X91102523Y-84265287D01*
X91079281Y-84271109D01*
X91055581Y-84274624D01*
X91031650Y-84275800D01*
X90543350Y-84275800D01*
X90519419Y-84274624D01*
X90495719Y-84271109D01*
X90472477Y-84265287D01*
X90449918Y-84257215D01*
X90428258Y-84246971D01*
X90407708Y-84234653D01*
X90388463Y-84220381D01*
X90370710Y-84204290D01*
X90354619Y-84186537D01*
X90340347Y-84167292D01*
X90328029Y-84146742D01*
X90317785Y-84125082D01*
X90309713Y-84102523D01*
X90303891Y-84079281D01*
X90300376Y-84055581D01*
X90299200Y-84031650D01*
X90299200Y-83468350D01*
X90300376Y-83444419D01*
X90303891Y-83420719D01*
X90309713Y-83397477D01*
X90317785Y-83374918D01*
X90328029Y-83353258D01*
X90340347Y-83332708D01*
X90354619Y-83313463D01*
X90370710Y-83295710D01*
X90388463Y-83279619D01*
X90407708Y-83265347D01*
X90428258Y-83253029D01*
X90449918Y-83242785D01*
X90472477Y-83234713D01*
X90495719Y-83228891D01*
X90519419Y-83225376D01*
X90543350Y-83224200D01*
X91031650Y-83224200D01*
X91055581Y-83225376D01*
X91055581Y-83225376D01*
G37*
D15*
X90787500Y-83750000D03*
G04 #@! TD*
D14*
G04 #@! TO.C,C15*
G36*
X96805581Y-64475376D02*
X96829281Y-64478891D01*
X96852523Y-64484713D01*
X96875082Y-64492785D01*
X96896742Y-64503029D01*
X96917292Y-64515347D01*
X96936537Y-64529619D01*
X96954290Y-64545710D01*
X96970381Y-64563463D01*
X96984653Y-64582708D01*
X96996971Y-64603258D01*
X97007215Y-64624918D01*
X97015287Y-64647477D01*
X97021109Y-64670719D01*
X97024624Y-64694419D01*
X97025800Y-64718350D01*
X97025800Y-65281650D01*
X97024624Y-65305581D01*
X97021109Y-65329281D01*
X97015287Y-65352523D01*
X97007215Y-65375082D01*
X96996971Y-65396742D01*
X96984653Y-65417292D01*
X96970381Y-65436537D01*
X96954290Y-65454290D01*
X96936537Y-65470381D01*
X96917292Y-65484653D01*
X96896742Y-65496971D01*
X96875082Y-65507215D01*
X96852523Y-65515287D01*
X96829281Y-65521109D01*
X96805581Y-65524624D01*
X96781650Y-65525800D01*
X96293350Y-65525800D01*
X96269419Y-65524624D01*
X96245719Y-65521109D01*
X96222477Y-65515287D01*
X96199918Y-65507215D01*
X96178258Y-65496971D01*
X96157708Y-65484653D01*
X96138463Y-65470381D01*
X96120710Y-65454290D01*
X96104619Y-65436537D01*
X96090347Y-65417292D01*
X96078029Y-65396742D01*
X96067785Y-65375082D01*
X96059713Y-65352523D01*
X96053891Y-65329281D01*
X96050376Y-65305581D01*
X96049200Y-65281650D01*
X96049200Y-64718350D01*
X96050376Y-64694419D01*
X96053891Y-64670719D01*
X96059713Y-64647477D01*
X96067785Y-64624918D01*
X96078029Y-64603258D01*
X96090347Y-64582708D01*
X96104619Y-64563463D01*
X96120710Y-64545710D01*
X96138463Y-64529619D01*
X96157708Y-64515347D01*
X96178258Y-64503029D01*
X96199918Y-64492785D01*
X96222477Y-64484713D01*
X96245719Y-64478891D01*
X96269419Y-64475376D01*
X96293350Y-64474200D01*
X96781650Y-64474200D01*
X96805581Y-64475376D01*
X96805581Y-64475376D01*
G37*
D15*
X96537500Y-65000000D03*
D14*
G36*
X95230581Y-64475376D02*
X95254281Y-64478891D01*
X95277523Y-64484713D01*
X95300082Y-64492785D01*
X95321742Y-64503029D01*
X95342292Y-64515347D01*
X95361537Y-64529619D01*
X95379290Y-64545710D01*
X95395381Y-64563463D01*
X95409653Y-64582708D01*
X95421971Y-64603258D01*
X95432215Y-64624918D01*
X95440287Y-64647477D01*
X95446109Y-64670719D01*
X95449624Y-64694419D01*
X95450800Y-64718350D01*
X95450800Y-65281650D01*
X95449624Y-65305581D01*
X95446109Y-65329281D01*
X95440287Y-65352523D01*
X95432215Y-65375082D01*
X95421971Y-65396742D01*
X95409653Y-65417292D01*
X95395381Y-65436537D01*
X95379290Y-65454290D01*
X95361537Y-65470381D01*
X95342292Y-65484653D01*
X95321742Y-65496971D01*
X95300082Y-65507215D01*
X95277523Y-65515287D01*
X95254281Y-65521109D01*
X95230581Y-65524624D01*
X95206650Y-65525800D01*
X94718350Y-65525800D01*
X94694419Y-65524624D01*
X94670719Y-65521109D01*
X94647477Y-65515287D01*
X94624918Y-65507215D01*
X94603258Y-65496971D01*
X94582708Y-65484653D01*
X94563463Y-65470381D01*
X94545710Y-65454290D01*
X94529619Y-65436537D01*
X94515347Y-65417292D01*
X94503029Y-65396742D01*
X94492785Y-65375082D01*
X94484713Y-65352523D01*
X94478891Y-65329281D01*
X94475376Y-65305581D01*
X94474200Y-65281650D01*
X94474200Y-64718350D01*
X94475376Y-64694419D01*
X94478891Y-64670719D01*
X94484713Y-64647477D01*
X94492785Y-64624918D01*
X94503029Y-64603258D01*
X94515347Y-64582708D01*
X94529619Y-64563463D01*
X94545710Y-64545710D01*
X94563463Y-64529619D01*
X94582708Y-64515347D01*
X94603258Y-64503029D01*
X94624918Y-64492785D01*
X94647477Y-64484713D01*
X94670719Y-64478891D01*
X94694419Y-64475376D01*
X94718350Y-64474200D01*
X95206650Y-64474200D01*
X95230581Y-64475376D01*
X95230581Y-64475376D01*
G37*
D15*
X94962500Y-65000000D03*
G04 #@! TD*
D12*
G04 #@! TO.C,J2*
X109220000Y-52070000D03*
D13*
X111760000Y-52070000D03*
X109220000Y-54610000D03*
X111760000Y-54610000D03*
X109220000Y-57150000D03*
X111760000Y-57150000D03*
X109220000Y-59690000D03*
X111760000Y-59690000D03*
X109220000Y-62230000D03*
X111760000Y-62230000D03*
X109220000Y-64770000D03*
X111760000Y-64770000D03*
X109220000Y-67310000D03*
X111760000Y-67310000D03*
X109220000Y-69850000D03*
X111760000Y-69850000D03*
X109220000Y-72390000D03*
X111760000Y-72390000D03*
X109220000Y-74930000D03*
X111760000Y-74930000D03*
X109220000Y-77470000D03*
X111760000Y-77470000D03*
X109220000Y-80010000D03*
X111760000Y-80010000D03*
X109220000Y-82550000D03*
X111760000Y-82550000D03*
X109220000Y-85090000D03*
X111760000Y-85090000D03*
X109220000Y-87630000D03*
X111760000Y-87630000D03*
X109220000Y-90170000D03*
X111760000Y-90170000D03*
X109220000Y-92710000D03*
X111760000Y-92710000D03*
X109220000Y-95250000D03*
X111760000Y-95250000D03*
X109220000Y-97790000D03*
X111760000Y-97790000D03*
X109220000Y-100330000D03*
X111760000Y-100330000D03*
G04 #@! TD*
D12*
G04 #@! TO.C,J4*
X88900000Y-69850000D03*
D13*
X86360000Y-69850000D03*
X88900000Y-67310000D03*
X86360000Y-67310000D03*
X88900000Y-64770000D03*
X86360000Y-64770000D03*
X88900000Y-62230000D03*
X86360000Y-62230000D03*
G04 #@! TD*
D12*
G04 #@! TO.C,J5*
X88900000Y-100330000D03*
D13*
X86360000Y-100330000D03*
G04 #@! TD*
D14*
G04 #@! TO.C,R1*
G36*
X103055581Y-86225376D02*
X103079281Y-86228891D01*
X103102523Y-86234713D01*
X103125082Y-86242785D01*
X103146742Y-86253029D01*
X103167292Y-86265347D01*
X103186537Y-86279619D01*
X103204290Y-86295710D01*
X103220381Y-86313463D01*
X103234653Y-86332708D01*
X103246971Y-86353258D01*
X103257215Y-86374918D01*
X103265287Y-86397477D01*
X103271109Y-86420719D01*
X103274624Y-86444419D01*
X103275800Y-86468350D01*
X103275800Y-87031650D01*
X103274624Y-87055581D01*
X103271109Y-87079281D01*
X103265287Y-87102523D01*
X103257215Y-87125082D01*
X103246971Y-87146742D01*
X103234653Y-87167292D01*
X103220381Y-87186537D01*
X103204290Y-87204290D01*
X103186537Y-87220381D01*
X103167292Y-87234653D01*
X103146742Y-87246971D01*
X103125082Y-87257215D01*
X103102523Y-87265287D01*
X103079281Y-87271109D01*
X103055581Y-87274624D01*
X103031650Y-87275800D01*
X102543350Y-87275800D01*
X102519419Y-87274624D01*
X102495719Y-87271109D01*
X102472477Y-87265287D01*
X102449918Y-87257215D01*
X102428258Y-87246971D01*
X102407708Y-87234653D01*
X102388463Y-87220381D01*
X102370710Y-87204290D01*
X102354619Y-87186537D01*
X102340347Y-87167292D01*
X102328029Y-87146742D01*
X102317785Y-87125082D01*
X102309713Y-87102523D01*
X102303891Y-87079281D01*
X102300376Y-87055581D01*
X102299200Y-87031650D01*
X102299200Y-86468350D01*
X102300376Y-86444419D01*
X102303891Y-86420719D01*
X102309713Y-86397477D01*
X102317785Y-86374918D01*
X102328029Y-86353258D01*
X102340347Y-86332708D01*
X102354619Y-86313463D01*
X102370710Y-86295710D01*
X102388463Y-86279619D01*
X102407708Y-86265347D01*
X102428258Y-86253029D01*
X102449918Y-86242785D01*
X102472477Y-86234713D01*
X102495719Y-86228891D01*
X102519419Y-86225376D01*
X102543350Y-86224200D01*
X103031650Y-86224200D01*
X103055581Y-86225376D01*
X103055581Y-86225376D01*
G37*
D15*
X102787500Y-86750000D03*
D14*
G36*
X101480581Y-86225376D02*
X101504281Y-86228891D01*
X101527523Y-86234713D01*
X101550082Y-86242785D01*
X101571742Y-86253029D01*
X101592292Y-86265347D01*
X101611537Y-86279619D01*
X101629290Y-86295710D01*
X101645381Y-86313463D01*
X101659653Y-86332708D01*
X101671971Y-86353258D01*
X101682215Y-86374918D01*
X101690287Y-86397477D01*
X101696109Y-86420719D01*
X101699624Y-86444419D01*
X101700800Y-86468350D01*
X101700800Y-87031650D01*
X101699624Y-87055581D01*
X101696109Y-87079281D01*
X101690287Y-87102523D01*
X101682215Y-87125082D01*
X101671971Y-87146742D01*
X101659653Y-87167292D01*
X101645381Y-87186537D01*
X101629290Y-87204290D01*
X101611537Y-87220381D01*
X101592292Y-87234653D01*
X101571742Y-87246971D01*
X101550082Y-87257215D01*
X101527523Y-87265287D01*
X101504281Y-87271109D01*
X101480581Y-87274624D01*
X101456650Y-87275800D01*
X100968350Y-87275800D01*
X100944419Y-87274624D01*
X100920719Y-87271109D01*
X100897477Y-87265287D01*
X100874918Y-87257215D01*
X100853258Y-87246971D01*
X100832708Y-87234653D01*
X100813463Y-87220381D01*
X100795710Y-87204290D01*
X100779619Y-87186537D01*
X100765347Y-87167292D01*
X100753029Y-87146742D01*
X100742785Y-87125082D01*
X100734713Y-87102523D01*
X100728891Y-87079281D01*
X100725376Y-87055581D01*
X100724200Y-87031650D01*
X100724200Y-86468350D01*
X100725376Y-86444419D01*
X100728891Y-86420719D01*
X100734713Y-86397477D01*
X100742785Y-86374918D01*
X100753029Y-86353258D01*
X100765347Y-86332708D01*
X100779619Y-86313463D01*
X100795710Y-86295710D01*
X100813463Y-86279619D01*
X100832708Y-86265347D01*
X100853258Y-86253029D01*
X100874918Y-86242785D01*
X100897477Y-86234713D01*
X100920719Y-86228891D01*
X100944419Y-86225376D01*
X100968350Y-86224200D01*
X101456650Y-86224200D01*
X101480581Y-86225376D01*
X101480581Y-86225376D01*
G37*
D15*
X101212500Y-86750000D03*
G04 #@! TD*
D14*
G04 #@! TO.C,R2*
G36*
X98480581Y-86225376D02*
X98504281Y-86228891D01*
X98527523Y-86234713D01*
X98550082Y-86242785D01*
X98571742Y-86253029D01*
X98592292Y-86265347D01*
X98611537Y-86279619D01*
X98629290Y-86295710D01*
X98645381Y-86313463D01*
X98659653Y-86332708D01*
X98671971Y-86353258D01*
X98682215Y-86374918D01*
X98690287Y-86397477D01*
X98696109Y-86420719D01*
X98699624Y-86444419D01*
X98700800Y-86468350D01*
X98700800Y-87031650D01*
X98699624Y-87055581D01*
X98696109Y-87079281D01*
X98690287Y-87102523D01*
X98682215Y-87125082D01*
X98671971Y-87146742D01*
X98659653Y-87167292D01*
X98645381Y-87186537D01*
X98629290Y-87204290D01*
X98611537Y-87220381D01*
X98592292Y-87234653D01*
X98571742Y-87246971D01*
X98550082Y-87257215D01*
X98527523Y-87265287D01*
X98504281Y-87271109D01*
X98480581Y-87274624D01*
X98456650Y-87275800D01*
X97968350Y-87275800D01*
X97944419Y-87274624D01*
X97920719Y-87271109D01*
X97897477Y-87265287D01*
X97874918Y-87257215D01*
X97853258Y-87246971D01*
X97832708Y-87234653D01*
X97813463Y-87220381D01*
X97795710Y-87204290D01*
X97779619Y-87186537D01*
X97765347Y-87167292D01*
X97753029Y-87146742D01*
X97742785Y-87125082D01*
X97734713Y-87102523D01*
X97728891Y-87079281D01*
X97725376Y-87055581D01*
X97724200Y-87031650D01*
X97724200Y-86468350D01*
X97725376Y-86444419D01*
X97728891Y-86420719D01*
X97734713Y-86397477D01*
X97742785Y-86374918D01*
X97753029Y-86353258D01*
X97765347Y-86332708D01*
X97779619Y-86313463D01*
X97795710Y-86295710D01*
X97813463Y-86279619D01*
X97832708Y-86265347D01*
X97853258Y-86253029D01*
X97874918Y-86242785D01*
X97897477Y-86234713D01*
X97920719Y-86228891D01*
X97944419Y-86225376D01*
X97968350Y-86224200D01*
X98456650Y-86224200D01*
X98480581Y-86225376D01*
X98480581Y-86225376D01*
G37*
D15*
X98212500Y-86750000D03*
D14*
G36*
X100055581Y-86225376D02*
X100079281Y-86228891D01*
X100102523Y-86234713D01*
X100125082Y-86242785D01*
X100146742Y-86253029D01*
X100167292Y-86265347D01*
X100186537Y-86279619D01*
X100204290Y-86295710D01*
X100220381Y-86313463D01*
X100234653Y-86332708D01*
X100246971Y-86353258D01*
X100257215Y-86374918D01*
X100265287Y-86397477D01*
X100271109Y-86420719D01*
X100274624Y-86444419D01*
X100275800Y-86468350D01*
X100275800Y-87031650D01*
X100274624Y-87055581D01*
X100271109Y-87079281D01*
X100265287Y-87102523D01*
X100257215Y-87125082D01*
X100246971Y-87146742D01*
X100234653Y-87167292D01*
X100220381Y-87186537D01*
X100204290Y-87204290D01*
X100186537Y-87220381D01*
X100167292Y-87234653D01*
X100146742Y-87246971D01*
X100125082Y-87257215D01*
X100102523Y-87265287D01*
X100079281Y-87271109D01*
X100055581Y-87274624D01*
X100031650Y-87275800D01*
X99543350Y-87275800D01*
X99519419Y-87274624D01*
X99495719Y-87271109D01*
X99472477Y-87265287D01*
X99449918Y-87257215D01*
X99428258Y-87246971D01*
X99407708Y-87234653D01*
X99388463Y-87220381D01*
X99370710Y-87204290D01*
X99354619Y-87186537D01*
X99340347Y-87167292D01*
X99328029Y-87146742D01*
X99317785Y-87125082D01*
X99309713Y-87102523D01*
X99303891Y-87079281D01*
X99300376Y-87055581D01*
X99299200Y-87031650D01*
X99299200Y-86468350D01*
X99300376Y-86444419D01*
X99303891Y-86420719D01*
X99309713Y-86397477D01*
X99317785Y-86374918D01*
X99328029Y-86353258D01*
X99340347Y-86332708D01*
X99354619Y-86313463D01*
X99370710Y-86295710D01*
X99388463Y-86279619D01*
X99407708Y-86265347D01*
X99428258Y-86253029D01*
X99449918Y-86242785D01*
X99472477Y-86234713D01*
X99495719Y-86228891D01*
X99519419Y-86225376D01*
X99543350Y-86224200D01*
X100031650Y-86224200D01*
X100055581Y-86225376D01*
X100055581Y-86225376D01*
G37*
D15*
X99787500Y-86750000D03*
G04 #@! TD*
D14*
G04 #@! TO.C,R3*
G36*
X93555581Y-89225376D02*
X93579281Y-89228891D01*
X93602523Y-89234713D01*
X93625082Y-89242785D01*
X93646742Y-89253029D01*
X93667292Y-89265347D01*
X93686537Y-89279619D01*
X93704290Y-89295710D01*
X93720381Y-89313463D01*
X93734653Y-89332708D01*
X93746971Y-89353258D01*
X93757215Y-89374918D01*
X93765287Y-89397477D01*
X93771109Y-89420719D01*
X93774624Y-89444419D01*
X93775800Y-89468350D01*
X93775800Y-89956650D01*
X93774624Y-89980581D01*
X93771109Y-90004281D01*
X93765287Y-90027523D01*
X93757215Y-90050082D01*
X93746971Y-90071742D01*
X93734653Y-90092292D01*
X93720381Y-90111537D01*
X93704290Y-90129290D01*
X93686537Y-90145381D01*
X93667292Y-90159653D01*
X93646742Y-90171971D01*
X93625082Y-90182215D01*
X93602523Y-90190287D01*
X93579281Y-90196109D01*
X93555581Y-90199624D01*
X93531650Y-90200800D01*
X92968350Y-90200800D01*
X92944419Y-90199624D01*
X92920719Y-90196109D01*
X92897477Y-90190287D01*
X92874918Y-90182215D01*
X92853258Y-90171971D01*
X92832708Y-90159653D01*
X92813463Y-90145381D01*
X92795710Y-90129290D01*
X92779619Y-90111537D01*
X92765347Y-90092292D01*
X92753029Y-90071742D01*
X92742785Y-90050082D01*
X92734713Y-90027523D01*
X92728891Y-90004281D01*
X92725376Y-89980581D01*
X92724200Y-89956650D01*
X92724200Y-89468350D01*
X92725376Y-89444419D01*
X92728891Y-89420719D01*
X92734713Y-89397477D01*
X92742785Y-89374918D01*
X92753029Y-89353258D01*
X92765347Y-89332708D01*
X92779619Y-89313463D01*
X92795710Y-89295710D01*
X92813463Y-89279619D01*
X92832708Y-89265347D01*
X92853258Y-89253029D01*
X92874918Y-89242785D01*
X92897477Y-89234713D01*
X92920719Y-89228891D01*
X92944419Y-89225376D01*
X92968350Y-89224200D01*
X93531650Y-89224200D01*
X93555581Y-89225376D01*
X93555581Y-89225376D01*
G37*
D15*
X93250000Y-89712500D03*
D14*
G36*
X93555581Y-90800376D02*
X93579281Y-90803891D01*
X93602523Y-90809713D01*
X93625082Y-90817785D01*
X93646742Y-90828029D01*
X93667292Y-90840347D01*
X93686537Y-90854619D01*
X93704290Y-90870710D01*
X93720381Y-90888463D01*
X93734653Y-90907708D01*
X93746971Y-90928258D01*
X93757215Y-90949918D01*
X93765287Y-90972477D01*
X93771109Y-90995719D01*
X93774624Y-91019419D01*
X93775800Y-91043350D01*
X93775800Y-91531650D01*
X93774624Y-91555581D01*
X93771109Y-91579281D01*
X93765287Y-91602523D01*
X93757215Y-91625082D01*
X93746971Y-91646742D01*
X93734653Y-91667292D01*
X93720381Y-91686537D01*
X93704290Y-91704290D01*
X93686537Y-91720381D01*
X93667292Y-91734653D01*
X93646742Y-91746971D01*
X93625082Y-91757215D01*
X93602523Y-91765287D01*
X93579281Y-91771109D01*
X93555581Y-91774624D01*
X93531650Y-91775800D01*
X92968350Y-91775800D01*
X92944419Y-91774624D01*
X92920719Y-91771109D01*
X92897477Y-91765287D01*
X92874918Y-91757215D01*
X92853258Y-91746971D01*
X92832708Y-91734653D01*
X92813463Y-91720381D01*
X92795710Y-91704290D01*
X92779619Y-91686537D01*
X92765347Y-91667292D01*
X92753029Y-91646742D01*
X92742785Y-91625082D01*
X92734713Y-91602523D01*
X92728891Y-91579281D01*
X92725376Y-91555581D01*
X92724200Y-91531650D01*
X92724200Y-91043350D01*
X92725376Y-91019419D01*
X92728891Y-90995719D01*
X92734713Y-90972477D01*
X92742785Y-90949918D01*
X92753029Y-90928258D01*
X92765347Y-90907708D01*
X92779619Y-90888463D01*
X92795710Y-90870710D01*
X92813463Y-90854619D01*
X92832708Y-90840347D01*
X92853258Y-90828029D01*
X92874918Y-90817785D01*
X92897477Y-90809713D01*
X92920719Y-90803891D01*
X92944419Y-90800376D01*
X92968350Y-90799200D01*
X93531650Y-90799200D01*
X93555581Y-90800376D01*
X93555581Y-90800376D01*
G37*
D15*
X93250000Y-91287500D03*
G04 #@! TD*
D14*
G04 #@! TO.C,R4*
G36*
X95055581Y-90800376D02*
X95079281Y-90803891D01*
X95102523Y-90809713D01*
X95125082Y-90817785D01*
X95146742Y-90828029D01*
X95167292Y-90840347D01*
X95186537Y-90854619D01*
X95204290Y-90870710D01*
X95220381Y-90888463D01*
X95234653Y-90907708D01*
X95246971Y-90928258D01*
X95257215Y-90949918D01*
X95265287Y-90972477D01*
X95271109Y-90995719D01*
X95274624Y-91019419D01*
X95275800Y-91043350D01*
X95275800Y-91531650D01*
X95274624Y-91555581D01*
X95271109Y-91579281D01*
X95265287Y-91602523D01*
X95257215Y-91625082D01*
X95246971Y-91646742D01*
X95234653Y-91667292D01*
X95220381Y-91686537D01*
X95204290Y-91704290D01*
X95186537Y-91720381D01*
X95167292Y-91734653D01*
X95146742Y-91746971D01*
X95125082Y-91757215D01*
X95102523Y-91765287D01*
X95079281Y-91771109D01*
X95055581Y-91774624D01*
X95031650Y-91775800D01*
X94468350Y-91775800D01*
X94444419Y-91774624D01*
X94420719Y-91771109D01*
X94397477Y-91765287D01*
X94374918Y-91757215D01*
X94353258Y-91746971D01*
X94332708Y-91734653D01*
X94313463Y-91720381D01*
X94295710Y-91704290D01*
X94279619Y-91686537D01*
X94265347Y-91667292D01*
X94253029Y-91646742D01*
X94242785Y-91625082D01*
X94234713Y-91602523D01*
X94228891Y-91579281D01*
X94225376Y-91555581D01*
X94224200Y-91531650D01*
X94224200Y-91043350D01*
X94225376Y-91019419D01*
X94228891Y-90995719D01*
X94234713Y-90972477D01*
X94242785Y-90949918D01*
X94253029Y-90928258D01*
X94265347Y-90907708D01*
X94279619Y-90888463D01*
X94295710Y-90870710D01*
X94313463Y-90854619D01*
X94332708Y-90840347D01*
X94353258Y-90828029D01*
X94374918Y-90817785D01*
X94397477Y-90809713D01*
X94420719Y-90803891D01*
X94444419Y-90800376D01*
X94468350Y-90799200D01*
X95031650Y-90799200D01*
X95055581Y-90800376D01*
X95055581Y-90800376D01*
G37*
D15*
X94750000Y-91287500D03*
D14*
G36*
X95055581Y-89225376D02*
X95079281Y-89228891D01*
X95102523Y-89234713D01*
X95125082Y-89242785D01*
X95146742Y-89253029D01*
X95167292Y-89265347D01*
X95186537Y-89279619D01*
X95204290Y-89295710D01*
X95220381Y-89313463D01*
X95234653Y-89332708D01*
X95246971Y-89353258D01*
X95257215Y-89374918D01*
X95265287Y-89397477D01*
X95271109Y-89420719D01*
X95274624Y-89444419D01*
X95275800Y-89468350D01*
X95275800Y-89956650D01*
X95274624Y-89980581D01*
X95271109Y-90004281D01*
X95265287Y-90027523D01*
X95257215Y-90050082D01*
X95246971Y-90071742D01*
X95234653Y-90092292D01*
X95220381Y-90111537D01*
X95204290Y-90129290D01*
X95186537Y-90145381D01*
X95167292Y-90159653D01*
X95146742Y-90171971D01*
X95125082Y-90182215D01*
X95102523Y-90190287D01*
X95079281Y-90196109D01*
X95055581Y-90199624D01*
X95031650Y-90200800D01*
X94468350Y-90200800D01*
X94444419Y-90199624D01*
X94420719Y-90196109D01*
X94397477Y-90190287D01*
X94374918Y-90182215D01*
X94353258Y-90171971D01*
X94332708Y-90159653D01*
X94313463Y-90145381D01*
X94295710Y-90129290D01*
X94279619Y-90111537D01*
X94265347Y-90092292D01*
X94253029Y-90071742D01*
X94242785Y-90050082D01*
X94234713Y-90027523D01*
X94228891Y-90004281D01*
X94225376Y-89980581D01*
X94224200Y-89956650D01*
X94224200Y-89468350D01*
X94225376Y-89444419D01*
X94228891Y-89420719D01*
X94234713Y-89397477D01*
X94242785Y-89374918D01*
X94253029Y-89353258D01*
X94265347Y-89332708D01*
X94279619Y-89313463D01*
X94295710Y-89295710D01*
X94313463Y-89279619D01*
X94332708Y-89265347D01*
X94353258Y-89253029D01*
X94374918Y-89242785D01*
X94397477Y-89234713D01*
X94420719Y-89228891D01*
X94444419Y-89225376D01*
X94468350Y-89224200D01*
X95031650Y-89224200D01*
X95055581Y-89225376D01*
X95055581Y-89225376D01*
G37*
D15*
X94750000Y-89712500D03*
G04 #@! TD*
D14*
G04 #@! TO.C,R5*
G36*
X96805581Y-62725376D02*
X96829281Y-62728891D01*
X96852523Y-62734713D01*
X96875082Y-62742785D01*
X96896742Y-62753029D01*
X96917292Y-62765347D01*
X96936537Y-62779619D01*
X96954290Y-62795710D01*
X96970381Y-62813463D01*
X96984653Y-62832708D01*
X96996971Y-62853258D01*
X97007215Y-62874918D01*
X97015287Y-62897477D01*
X97021109Y-62920719D01*
X97024624Y-62944419D01*
X97025800Y-62968350D01*
X97025800Y-63531650D01*
X97024624Y-63555581D01*
X97021109Y-63579281D01*
X97015287Y-63602523D01*
X97007215Y-63625082D01*
X96996971Y-63646742D01*
X96984653Y-63667292D01*
X96970381Y-63686537D01*
X96954290Y-63704290D01*
X96936537Y-63720381D01*
X96917292Y-63734653D01*
X96896742Y-63746971D01*
X96875082Y-63757215D01*
X96852523Y-63765287D01*
X96829281Y-63771109D01*
X96805581Y-63774624D01*
X96781650Y-63775800D01*
X96293350Y-63775800D01*
X96269419Y-63774624D01*
X96245719Y-63771109D01*
X96222477Y-63765287D01*
X96199918Y-63757215D01*
X96178258Y-63746971D01*
X96157708Y-63734653D01*
X96138463Y-63720381D01*
X96120710Y-63704290D01*
X96104619Y-63686537D01*
X96090347Y-63667292D01*
X96078029Y-63646742D01*
X96067785Y-63625082D01*
X96059713Y-63602523D01*
X96053891Y-63579281D01*
X96050376Y-63555581D01*
X96049200Y-63531650D01*
X96049200Y-62968350D01*
X96050376Y-62944419D01*
X96053891Y-62920719D01*
X96059713Y-62897477D01*
X96067785Y-62874918D01*
X96078029Y-62853258D01*
X96090347Y-62832708D01*
X96104619Y-62813463D01*
X96120710Y-62795710D01*
X96138463Y-62779619D01*
X96157708Y-62765347D01*
X96178258Y-62753029D01*
X96199918Y-62742785D01*
X96222477Y-62734713D01*
X96245719Y-62728891D01*
X96269419Y-62725376D01*
X96293350Y-62724200D01*
X96781650Y-62724200D01*
X96805581Y-62725376D01*
X96805581Y-62725376D01*
G37*
D15*
X96537500Y-63250000D03*
D14*
G36*
X95230581Y-62725376D02*
X95254281Y-62728891D01*
X95277523Y-62734713D01*
X95300082Y-62742785D01*
X95321742Y-62753029D01*
X95342292Y-62765347D01*
X95361537Y-62779619D01*
X95379290Y-62795710D01*
X95395381Y-62813463D01*
X95409653Y-62832708D01*
X95421971Y-62853258D01*
X95432215Y-62874918D01*
X95440287Y-62897477D01*
X95446109Y-62920719D01*
X95449624Y-62944419D01*
X95450800Y-62968350D01*
X95450800Y-63531650D01*
X95449624Y-63555581D01*
X95446109Y-63579281D01*
X95440287Y-63602523D01*
X95432215Y-63625082D01*
X95421971Y-63646742D01*
X95409653Y-63667292D01*
X95395381Y-63686537D01*
X95379290Y-63704290D01*
X95361537Y-63720381D01*
X95342292Y-63734653D01*
X95321742Y-63746971D01*
X95300082Y-63757215D01*
X95277523Y-63765287D01*
X95254281Y-63771109D01*
X95230581Y-63774624D01*
X95206650Y-63775800D01*
X94718350Y-63775800D01*
X94694419Y-63774624D01*
X94670719Y-63771109D01*
X94647477Y-63765287D01*
X94624918Y-63757215D01*
X94603258Y-63746971D01*
X94582708Y-63734653D01*
X94563463Y-63720381D01*
X94545710Y-63704290D01*
X94529619Y-63686537D01*
X94515347Y-63667292D01*
X94503029Y-63646742D01*
X94492785Y-63625082D01*
X94484713Y-63602523D01*
X94478891Y-63579281D01*
X94475376Y-63555581D01*
X94474200Y-63531650D01*
X94474200Y-62968350D01*
X94475376Y-62944419D01*
X94478891Y-62920719D01*
X94484713Y-62897477D01*
X94492785Y-62874918D01*
X94503029Y-62853258D01*
X94515347Y-62832708D01*
X94529619Y-62813463D01*
X94545710Y-62795710D01*
X94563463Y-62779619D01*
X94582708Y-62765347D01*
X94603258Y-62753029D01*
X94624918Y-62742785D01*
X94647477Y-62734713D01*
X94670719Y-62728891D01*
X94694419Y-62725376D01*
X94718350Y-62724200D01*
X95206650Y-62724200D01*
X95230581Y-62725376D01*
X95230581Y-62725376D01*
G37*
D15*
X94962500Y-63250000D03*
G04 #@! TD*
D14*
G04 #@! TO.C,R6*
G36*
X86665581Y-56662876D02*
X86689281Y-56666391D01*
X86712523Y-56672213D01*
X86735082Y-56680285D01*
X86756742Y-56690529D01*
X86777292Y-56702847D01*
X86796537Y-56717119D01*
X86814290Y-56733210D01*
X86830381Y-56750963D01*
X86844653Y-56770208D01*
X86856971Y-56790758D01*
X86867215Y-56812418D01*
X86875287Y-56834977D01*
X86881109Y-56858219D01*
X86884624Y-56881919D01*
X86885800Y-56905850D01*
X86885800Y-57394150D01*
X86884624Y-57418081D01*
X86881109Y-57441781D01*
X86875287Y-57465023D01*
X86867215Y-57487582D01*
X86856971Y-57509242D01*
X86844653Y-57529792D01*
X86830381Y-57549037D01*
X86814290Y-57566790D01*
X86796537Y-57582881D01*
X86777292Y-57597153D01*
X86756742Y-57609471D01*
X86735082Y-57619715D01*
X86712523Y-57627787D01*
X86689281Y-57633609D01*
X86665581Y-57637124D01*
X86641650Y-57638300D01*
X86078350Y-57638300D01*
X86054419Y-57637124D01*
X86030719Y-57633609D01*
X86007477Y-57627787D01*
X85984918Y-57619715D01*
X85963258Y-57609471D01*
X85942708Y-57597153D01*
X85923463Y-57582881D01*
X85905710Y-57566790D01*
X85889619Y-57549037D01*
X85875347Y-57529792D01*
X85863029Y-57509242D01*
X85852785Y-57487582D01*
X85844713Y-57465023D01*
X85838891Y-57441781D01*
X85835376Y-57418081D01*
X85834200Y-57394150D01*
X85834200Y-56905850D01*
X85835376Y-56881919D01*
X85838891Y-56858219D01*
X85844713Y-56834977D01*
X85852785Y-56812418D01*
X85863029Y-56790758D01*
X85875347Y-56770208D01*
X85889619Y-56750963D01*
X85905710Y-56733210D01*
X85923463Y-56717119D01*
X85942708Y-56702847D01*
X85963258Y-56690529D01*
X85984918Y-56680285D01*
X86007477Y-56672213D01*
X86030719Y-56666391D01*
X86054419Y-56662876D01*
X86078350Y-56661700D01*
X86641650Y-56661700D01*
X86665581Y-56662876D01*
X86665581Y-56662876D01*
G37*
D15*
X86360000Y-57150000D03*
D14*
G36*
X86665581Y-58237876D02*
X86689281Y-58241391D01*
X86712523Y-58247213D01*
X86735082Y-58255285D01*
X86756742Y-58265529D01*
X86777292Y-58277847D01*
X86796537Y-58292119D01*
X86814290Y-58308210D01*
X86830381Y-58325963D01*
X86844653Y-58345208D01*
X86856971Y-58365758D01*
X86867215Y-58387418D01*
X86875287Y-58409977D01*
X86881109Y-58433219D01*
X86884624Y-58456919D01*
X86885800Y-58480850D01*
X86885800Y-58969150D01*
X86884624Y-58993081D01*
X86881109Y-59016781D01*
X86875287Y-59040023D01*
X86867215Y-59062582D01*
X86856971Y-59084242D01*
X86844653Y-59104792D01*
X86830381Y-59124037D01*
X86814290Y-59141790D01*
X86796537Y-59157881D01*
X86777292Y-59172153D01*
X86756742Y-59184471D01*
X86735082Y-59194715D01*
X86712523Y-59202787D01*
X86689281Y-59208609D01*
X86665581Y-59212124D01*
X86641650Y-59213300D01*
X86078350Y-59213300D01*
X86054419Y-59212124D01*
X86030719Y-59208609D01*
X86007477Y-59202787D01*
X85984918Y-59194715D01*
X85963258Y-59184471D01*
X85942708Y-59172153D01*
X85923463Y-59157881D01*
X85905710Y-59141790D01*
X85889619Y-59124037D01*
X85875347Y-59104792D01*
X85863029Y-59084242D01*
X85852785Y-59062582D01*
X85844713Y-59040023D01*
X85838891Y-59016781D01*
X85835376Y-58993081D01*
X85834200Y-58969150D01*
X85834200Y-58480850D01*
X85835376Y-58456919D01*
X85838891Y-58433219D01*
X85844713Y-58409977D01*
X85852785Y-58387418D01*
X85863029Y-58365758D01*
X85875347Y-58345208D01*
X85889619Y-58325963D01*
X85905710Y-58308210D01*
X85923463Y-58292119D01*
X85942708Y-58277847D01*
X85963258Y-58265529D01*
X85984918Y-58255285D01*
X86007477Y-58247213D01*
X86030719Y-58241391D01*
X86054419Y-58237876D01*
X86078350Y-58236700D01*
X86641650Y-58236700D01*
X86665581Y-58237876D01*
X86665581Y-58237876D01*
G37*
D15*
X86360000Y-58725000D03*
G04 #@! TD*
D14*
G04 #@! TO.C,R7*
G36*
X89205581Y-58237876D02*
X89229281Y-58241391D01*
X89252523Y-58247213D01*
X89275082Y-58255285D01*
X89296742Y-58265529D01*
X89317292Y-58277847D01*
X89336537Y-58292119D01*
X89354290Y-58308210D01*
X89370381Y-58325963D01*
X89384653Y-58345208D01*
X89396971Y-58365758D01*
X89407215Y-58387418D01*
X89415287Y-58409977D01*
X89421109Y-58433219D01*
X89424624Y-58456919D01*
X89425800Y-58480850D01*
X89425800Y-58969150D01*
X89424624Y-58993081D01*
X89421109Y-59016781D01*
X89415287Y-59040023D01*
X89407215Y-59062582D01*
X89396971Y-59084242D01*
X89384653Y-59104792D01*
X89370381Y-59124037D01*
X89354290Y-59141790D01*
X89336537Y-59157881D01*
X89317292Y-59172153D01*
X89296742Y-59184471D01*
X89275082Y-59194715D01*
X89252523Y-59202787D01*
X89229281Y-59208609D01*
X89205581Y-59212124D01*
X89181650Y-59213300D01*
X88618350Y-59213300D01*
X88594419Y-59212124D01*
X88570719Y-59208609D01*
X88547477Y-59202787D01*
X88524918Y-59194715D01*
X88503258Y-59184471D01*
X88482708Y-59172153D01*
X88463463Y-59157881D01*
X88445710Y-59141790D01*
X88429619Y-59124037D01*
X88415347Y-59104792D01*
X88403029Y-59084242D01*
X88392785Y-59062582D01*
X88384713Y-59040023D01*
X88378891Y-59016781D01*
X88375376Y-58993081D01*
X88374200Y-58969150D01*
X88374200Y-58480850D01*
X88375376Y-58456919D01*
X88378891Y-58433219D01*
X88384713Y-58409977D01*
X88392785Y-58387418D01*
X88403029Y-58365758D01*
X88415347Y-58345208D01*
X88429619Y-58325963D01*
X88445710Y-58308210D01*
X88463463Y-58292119D01*
X88482708Y-58277847D01*
X88503258Y-58265529D01*
X88524918Y-58255285D01*
X88547477Y-58247213D01*
X88570719Y-58241391D01*
X88594419Y-58237876D01*
X88618350Y-58236700D01*
X89181650Y-58236700D01*
X89205581Y-58237876D01*
X89205581Y-58237876D01*
G37*
D15*
X88900000Y-58725000D03*
D14*
G36*
X89205581Y-56662876D02*
X89229281Y-56666391D01*
X89252523Y-56672213D01*
X89275082Y-56680285D01*
X89296742Y-56690529D01*
X89317292Y-56702847D01*
X89336537Y-56717119D01*
X89354290Y-56733210D01*
X89370381Y-56750963D01*
X89384653Y-56770208D01*
X89396971Y-56790758D01*
X89407215Y-56812418D01*
X89415287Y-56834977D01*
X89421109Y-56858219D01*
X89424624Y-56881919D01*
X89425800Y-56905850D01*
X89425800Y-57394150D01*
X89424624Y-57418081D01*
X89421109Y-57441781D01*
X89415287Y-57465023D01*
X89407215Y-57487582D01*
X89396971Y-57509242D01*
X89384653Y-57529792D01*
X89370381Y-57549037D01*
X89354290Y-57566790D01*
X89336537Y-57582881D01*
X89317292Y-57597153D01*
X89296742Y-57609471D01*
X89275082Y-57619715D01*
X89252523Y-57627787D01*
X89229281Y-57633609D01*
X89205581Y-57637124D01*
X89181650Y-57638300D01*
X88618350Y-57638300D01*
X88594419Y-57637124D01*
X88570719Y-57633609D01*
X88547477Y-57627787D01*
X88524918Y-57619715D01*
X88503258Y-57609471D01*
X88482708Y-57597153D01*
X88463463Y-57582881D01*
X88445710Y-57566790D01*
X88429619Y-57549037D01*
X88415347Y-57529792D01*
X88403029Y-57509242D01*
X88392785Y-57487582D01*
X88384713Y-57465023D01*
X88378891Y-57441781D01*
X88375376Y-57418081D01*
X88374200Y-57394150D01*
X88374200Y-56905850D01*
X88375376Y-56881919D01*
X88378891Y-56858219D01*
X88384713Y-56834977D01*
X88392785Y-56812418D01*
X88403029Y-56790758D01*
X88415347Y-56770208D01*
X88429619Y-56750963D01*
X88445710Y-56733210D01*
X88463463Y-56717119D01*
X88482708Y-56702847D01*
X88503258Y-56690529D01*
X88524918Y-56680285D01*
X88547477Y-56672213D01*
X88570719Y-56666391D01*
X88594419Y-56662876D01*
X88618350Y-56661700D01*
X89181650Y-56661700D01*
X89205581Y-56662876D01*
X89205581Y-56662876D01*
G37*
D15*
X88900000Y-57150000D03*
G04 #@! TD*
D14*
G04 #@! TO.C,R8*
G36*
X91745581Y-56662876D02*
X91769281Y-56666391D01*
X91792523Y-56672213D01*
X91815082Y-56680285D01*
X91836742Y-56690529D01*
X91857292Y-56702847D01*
X91876537Y-56717119D01*
X91894290Y-56733210D01*
X91910381Y-56750963D01*
X91924653Y-56770208D01*
X91936971Y-56790758D01*
X91947215Y-56812418D01*
X91955287Y-56834977D01*
X91961109Y-56858219D01*
X91964624Y-56881919D01*
X91965800Y-56905850D01*
X91965800Y-57394150D01*
X91964624Y-57418081D01*
X91961109Y-57441781D01*
X91955287Y-57465023D01*
X91947215Y-57487582D01*
X91936971Y-57509242D01*
X91924653Y-57529792D01*
X91910381Y-57549037D01*
X91894290Y-57566790D01*
X91876537Y-57582881D01*
X91857292Y-57597153D01*
X91836742Y-57609471D01*
X91815082Y-57619715D01*
X91792523Y-57627787D01*
X91769281Y-57633609D01*
X91745581Y-57637124D01*
X91721650Y-57638300D01*
X91158350Y-57638300D01*
X91134419Y-57637124D01*
X91110719Y-57633609D01*
X91087477Y-57627787D01*
X91064918Y-57619715D01*
X91043258Y-57609471D01*
X91022708Y-57597153D01*
X91003463Y-57582881D01*
X90985710Y-57566790D01*
X90969619Y-57549037D01*
X90955347Y-57529792D01*
X90943029Y-57509242D01*
X90932785Y-57487582D01*
X90924713Y-57465023D01*
X90918891Y-57441781D01*
X90915376Y-57418081D01*
X90914200Y-57394150D01*
X90914200Y-56905850D01*
X90915376Y-56881919D01*
X90918891Y-56858219D01*
X90924713Y-56834977D01*
X90932785Y-56812418D01*
X90943029Y-56790758D01*
X90955347Y-56770208D01*
X90969619Y-56750963D01*
X90985710Y-56733210D01*
X91003463Y-56717119D01*
X91022708Y-56702847D01*
X91043258Y-56690529D01*
X91064918Y-56680285D01*
X91087477Y-56672213D01*
X91110719Y-56666391D01*
X91134419Y-56662876D01*
X91158350Y-56661700D01*
X91721650Y-56661700D01*
X91745581Y-56662876D01*
X91745581Y-56662876D01*
G37*
D15*
X91440000Y-57150000D03*
D14*
G36*
X91745581Y-58237876D02*
X91769281Y-58241391D01*
X91792523Y-58247213D01*
X91815082Y-58255285D01*
X91836742Y-58265529D01*
X91857292Y-58277847D01*
X91876537Y-58292119D01*
X91894290Y-58308210D01*
X91910381Y-58325963D01*
X91924653Y-58345208D01*
X91936971Y-58365758D01*
X91947215Y-58387418D01*
X91955287Y-58409977D01*
X91961109Y-58433219D01*
X91964624Y-58456919D01*
X91965800Y-58480850D01*
X91965800Y-58969150D01*
X91964624Y-58993081D01*
X91961109Y-59016781D01*
X91955287Y-59040023D01*
X91947215Y-59062582D01*
X91936971Y-59084242D01*
X91924653Y-59104792D01*
X91910381Y-59124037D01*
X91894290Y-59141790D01*
X91876537Y-59157881D01*
X91857292Y-59172153D01*
X91836742Y-59184471D01*
X91815082Y-59194715D01*
X91792523Y-59202787D01*
X91769281Y-59208609D01*
X91745581Y-59212124D01*
X91721650Y-59213300D01*
X91158350Y-59213300D01*
X91134419Y-59212124D01*
X91110719Y-59208609D01*
X91087477Y-59202787D01*
X91064918Y-59194715D01*
X91043258Y-59184471D01*
X91022708Y-59172153D01*
X91003463Y-59157881D01*
X90985710Y-59141790D01*
X90969619Y-59124037D01*
X90955347Y-59104792D01*
X90943029Y-59084242D01*
X90932785Y-59062582D01*
X90924713Y-59040023D01*
X90918891Y-59016781D01*
X90915376Y-58993081D01*
X90914200Y-58969150D01*
X90914200Y-58480850D01*
X90915376Y-58456919D01*
X90918891Y-58433219D01*
X90924713Y-58409977D01*
X90932785Y-58387418D01*
X90943029Y-58365758D01*
X90955347Y-58345208D01*
X90969619Y-58325963D01*
X90985710Y-58308210D01*
X91003463Y-58292119D01*
X91022708Y-58277847D01*
X91043258Y-58265529D01*
X91064918Y-58255285D01*
X91087477Y-58247213D01*
X91110719Y-58241391D01*
X91134419Y-58237876D01*
X91158350Y-58236700D01*
X91721650Y-58236700D01*
X91745581Y-58237876D01*
X91745581Y-58237876D01*
G37*
D15*
X91440000Y-58725000D03*
G04 #@! TD*
D14*
G04 #@! TO.C,R9*
G36*
X94285581Y-56662876D02*
X94309281Y-56666391D01*
X94332523Y-56672213D01*
X94355082Y-56680285D01*
X94376742Y-56690529D01*
X94397292Y-56702847D01*
X94416537Y-56717119D01*
X94434290Y-56733210D01*
X94450381Y-56750963D01*
X94464653Y-56770208D01*
X94476971Y-56790758D01*
X94487215Y-56812418D01*
X94495287Y-56834977D01*
X94501109Y-56858219D01*
X94504624Y-56881919D01*
X94505800Y-56905850D01*
X94505800Y-57394150D01*
X94504624Y-57418081D01*
X94501109Y-57441781D01*
X94495287Y-57465023D01*
X94487215Y-57487582D01*
X94476971Y-57509242D01*
X94464653Y-57529792D01*
X94450381Y-57549037D01*
X94434290Y-57566790D01*
X94416537Y-57582881D01*
X94397292Y-57597153D01*
X94376742Y-57609471D01*
X94355082Y-57619715D01*
X94332523Y-57627787D01*
X94309281Y-57633609D01*
X94285581Y-57637124D01*
X94261650Y-57638300D01*
X93698350Y-57638300D01*
X93674419Y-57637124D01*
X93650719Y-57633609D01*
X93627477Y-57627787D01*
X93604918Y-57619715D01*
X93583258Y-57609471D01*
X93562708Y-57597153D01*
X93543463Y-57582881D01*
X93525710Y-57566790D01*
X93509619Y-57549037D01*
X93495347Y-57529792D01*
X93483029Y-57509242D01*
X93472785Y-57487582D01*
X93464713Y-57465023D01*
X93458891Y-57441781D01*
X93455376Y-57418081D01*
X93454200Y-57394150D01*
X93454200Y-56905850D01*
X93455376Y-56881919D01*
X93458891Y-56858219D01*
X93464713Y-56834977D01*
X93472785Y-56812418D01*
X93483029Y-56790758D01*
X93495347Y-56770208D01*
X93509619Y-56750963D01*
X93525710Y-56733210D01*
X93543463Y-56717119D01*
X93562708Y-56702847D01*
X93583258Y-56690529D01*
X93604918Y-56680285D01*
X93627477Y-56672213D01*
X93650719Y-56666391D01*
X93674419Y-56662876D01*
X93698350Y-56661700D01*
X94261650Y-56661700D01*
X94285581Y-56662876D01*
X94285581Y-56662876D01*
G37*
D15*
X93980000Y-57150000D03*
D14*
G36*
X94285581Y-58237876D02*
X94309281Y-58241391D01*
X94332523Y-58247213D01*
X94355082Y-58255285D01*
X94376742Y-58265529D01*
X94397292Y-58277847D01*
X94416537Y-58292119D01*
X94434290Y-58308210D01*
X94450381Y-58325963D01*
X94464653Y-58345208D01*
X94476971Y-58365758D01*
X94487215Y-58387418D01*
X94495287Y-58409977D01*
X94501109Y-58433219D01*
X94504624Y-58456919D01*
X94505800Y-58480850D01*
X94505800Y-58969150D01*
X94504624Y-58993081D01*
X94501109Y-59016781D01*
X94495287Y-59040023D01*
X94487215Y-59062582D01*
X94476971Y-59084242D01*
X94464653Y-59104792D01*
X94450381Y-59124037D01*
X94434290Y-59141790D01*
X94416537Y-59157881D01*
X94397292Y-59172153D01*
X94376742Y-59184471D01*
X94355082Y-59194715D01*
X94332523Y-59202787D01*
X94309281Y-59208609D01*
X94285581Y-59212124D01*
X94261650Y-59213300D01*
X93698350Y-59213300D01*
X93674419Y-59212124D01*
X93650719Y-59208609D01*
X93627477Y-59202787D01*
X93604918Y-59194715D01*
X93583258Y-59184471D01*
X93562708Y-59172153D01*
X93543463Y-59157881D01*
X93525710Y-59141790D01*
X93509619Y-59124037D01*
X93495347Y-59104792D01*
X93483029Y-59084242D01*
X93472785Y-59062582D01*
X93464713Y-59040023D01*
X93458891Y-59016781D01*
X93455376Y-58993081D01*
X93454200Y-58969150D01*
X93454200Y-58480850D01*
X93455376Y-58456919D01*
X93458891Y-58433219D01*
X93464713Y-58409977D01*
X93472785Y-58387418D01*
X93483029Y-58365758D01*
X93495347Y-58345208D01*
X93509619Y-58325963D01*
X93525710Y-58308210D01*
X93543463Y-58292119D01*
X93562708Y-58277847D01*
X93583258Y-58265529D01*
X93604918Y-58255285D01*
X93627477Y-58247213D01*
X93650719Y-58241391D01*
X93674419Y-58237876D01*
X93698350Y-58236700D01*
X94261650Y-58236700D01*
X94285581Y-58237876D01*
X94285581Y-58237876D01*
G37*
D15*
X93980000Y-58725000D03*
G04 #@! TD*
D14*
G04 #@! TO.C,R10*
G36*
X96825581Y-58237876D02*
X96849281Y-58241391D01*
X96872523Y-58247213D01*
X96895082Y-58255285D01*
X96916742Y-58265529D01*
X96937292Y-58277847D01*
X96956537Y-58292119D01*
X96974290Y-58308210D01*
X96990381Y-58325963D01*
X97004653Y-58345208D01*
X97016971Y-58365758D01*
X97027215Y-58387418D01*
X97035287Y-58409977D01*
X97041109Y-58433219D01*
X97044624Y-58456919D01*
X97045800Y-58480850D01*
X97045800Y-58969150D01*
X97044624Y-58993081D01*
X97041109Y-59016781D01*
X97035287Y-59040023D01*
X97027215Y-59062582D01*
X97016971Y-59084242D01*
X97004653Y-59104792D01*
X96990381Y-59124037D01*
X96974290Y-59141790D01*
X96956537Y-59157881D01*
X96937292Y-59172153D01*
X96916742Y-59184471D01*
X96895082Y-59194715D01*
X96872523Y-59202787D01*
X96849281Y-59208609D01*
X96825581Y-59212124D01*
X96801650Y-59213300D01*
X96238350Y-59213300D01*
X96214419Y-59212124D01*
X96190719Y-59208609D01*
X96167477Y-59202787D01*
X96144918Y-59194715D01*
X96123258Y-59184471D01*
X96102708Y-59172153D01*
X96083463Y-59157881D01*
X96065710Y-59141790D01*
X96049619Y-59124037D01*
X96035347Y-59104792D01*
X96023029Y-59084242D01*
X96012785Y-59062582D01*
X96004713Y-59040023D01*
X95998891Y-59016781D01*
X95995376Y-58993081D01*
X95994200Y-58969150D01*
X95994200Y-58480850D01*
X95995376Y-58456919D01*
X95998891Y-58433219D01*
X96004713Y-58409977D01*
X96012785Y-58387418D01*
X96023029Y-58365758D01*
X96035347Y-58345208D01*
X96049619Y-58325963D01*
X96065710Y-58308210D01*
X96083463Y-58292119D01*
X96102708Y-58277847D01*
X96123258Y-58265529D01*
X96144918Y-58255285D01*
X96167477Y-58247213D01*
X96190719Y-58241391D01*
X96214419Y-58237876D01*
X96238350Y-58236700D01*
X96801650Y-58236700D01*
X96825581Y-58237876D01*
X96825581Y-58237876D01*
G37*
D15*
X96520000Y-58725000D03*
D14*
G36*
X96825581Y-56662876D02*
X96849281Y-56666391D01*
X96872523Y-56672213D01*
X96895082Y-56680285D01*
X96916742Y-56690529D01*
X96937292Y-56702847D01*
X96956537Y-56717119D01*
X96974290Y-56733210D01*
X96990381Y-56750963D01*
X97004653Y-56770208D01*
X97016971Y-56790758D01*
X97027215Y-56812418D01*
X97035287Y-56834977D01*
X97041109Y-56858219D01*
X97044624Y-56881919D01*
X97045800Y-56905850D01*
X97045800Y-57394150D01*
X97044624Y-57418081D01*
X97041109Y-57441781D01*
X97035287Y-57465023D01*
X97027215Y-57487582D01*
X97016971Y-57509242D01*
X97004653Y-57529792D01*
X96990381Y-57549037D01*
X96974290Y-57566790D01*
X96956537Y-57582881D01*
X96937292Y-57597153D01*
X96916742Y-57609471D01*
X96895082Y-57619715D01*
X96872523Y-57627787D01*
X96849281Y-57633609D01*
X96825581Y-57637124D01*
X96801650Y-57638300D01*
X96238350Y-57638300D01*
X96214419Y-57637124D01*
X96190719Y-57633609D01*
X96167477Y-57627787D01*
X96144918Y-57619715D01*
X96123258Y-57609471D01*
X96102708Y-57597153D01*
X96083463Y-57582881D01*
X96065710Y-57566790D01*
X96049619Y-57549037D01*
X96035347Y-57529792D01*
X96023029Y-57509242D01*
X96012785Y-57487582D01*
X96004713Y-57465023D01*
X95998891Y-57441781D01*
X95995376Y-57418081D01*
X95994200Y-57394150D01*
X95994200Y-56905850D01*
X95995376Y-56881919D01*
X95998891Y-56858219D01*
X96004713Y-56834977D01*
X96012785Y-56812418D01*
X96023029Y-56790758D01*
X96035347Y-56770208D01*
X96049619Y-56750963D01*
X96065710Y-56733210D01*
X96083463Y-56717119D01*
X96102708Y-56702847D01*
X96123258Y-56690529D01*
X96144918Y-56680285D01*
X96167477Y-56672213D01*
X96190719Y-56666391D01*
X96214419Y-56662876D01*
X96238350Y-56661700D01*
X96801650Y-56661700D01*
X96825581Y-56662876D01*
X96825581Y-56662876D01*
G37*
D15*
X96520000Y-57150000D03*
G04 #@! TD*
D14*
G04 #@! TO.C,R11*
G36*
X99365581Y-56662876D02*
X99389281Y-56666391D01*
X99412523Y-56672213D01*
X99435082Y-56680285D01*
X99456742Y-56690529D01*
X99477292Y-56702847D01*
X99496537Y-56717119D01*
X99514290Y-56733210D01*
X99530381Y-56750963D01*
X99544653Y-56770208D01*
X99556971Y-56790758D01*
X99567215Y-56812418D01*
X99575287Y-56834977D01*
X99581109Y-56858219D01*
X99584624Y-56881919D01*
X99585800Y-56905850D01*
X99585800Y-57394150D01*
X99584624Y-57418081D01*
X99581109Y-57441781D01*
X99575287Y-57465023D01*
X99567215Y-57487582D01*
X99556971Y-57509242D01*
X99544653Y-57529792D01*
X99530381Y-57549037D01*
X99514290Y-57566790D01*
X99496537Y-57582881D01*
X99477292Y-57597153D01*
X99456742Y-57609471D01*
X99435082Y-57619715D01*
X99412523Y-57627787D01*
X99389281Y-57633609D01*
X99365581Y-57637124D01*
X99341650Y-57638300D01*
X98778350Y-57638300D01*
X98754419Y-57637124D01*
X98730719Y-57633609D01*
X98707477Y-57627787D01*
X98684918Y-57619715D01*
X98663258Y-57609471D01*
X98642708Y-57597153D01*
X98623463Y-57582881D01*
X98605710Y-57566790D01*
X98589619Y-57549037D01*
X98575347Y-57529792D01*
X98563029Y-57509242D01*
X98552785Y-57487582D01*
X98544713Y-57465023D01*
X98538891Y-57441781D01*
X98535376Y-57418081D01*
X98534200Y-57394150D01*
X98534200Y-56905850D01*
X98535376Y-56881919D01*
X98538891Y-56858219D01*
X98544713Y-56834977D01*
X98552785Y-56812418D01*
X98563029Y-56790758D01*
X98575347Y-56770208D01*
X98589619Y-56750963D01*
X98605710Y-56733210D01*
X98623463Y-56717119D01*
X98642708Y-56702847D01*
X98663258Y-56690529D01*
X98684918Y-56680285D01*
X98707477Y-56672213D01*
X98730719Y-56666391D01*
X98754419Y-56662876D01*
X98778350Y-56661700D01*
X99341650Y-56661700D01*
X99365581Y-56662876D01*
X99365581Y-56662876D01*
G37*
D15*
X99060000Y-57150000D03*
D14*
G36*
X99365581Y-58237876D02*
X99389281Y-58241391D01*
X99412523Y-58247213D01*
X99435082Y-58255285D01*
X99456742Y-58265529D01*
X99477292Y-58277847D01*
X99496537Y-58292119D01*
X99514290Y-58308210D01*
X99530381Y-58325963D01*
X99544653Y-58345208D01*
X99556971Y-58365758D01*
X99567215Y-58387418D01*
X99575287Y-58409977D01*
X99581109Y-58433219D01*
X99584624Y-58456919D01*
X99585800Y-58480850D01*
X99585800Y-58969150D01*
X99584624Y-58993081D01*
X99581109Y-59016781D01*
X99575287Y-59040023D01*
X99567215Y-59062582D01*
X99556971Y-59084242D01*
X99544653Y-59104792D01*
X99530381Y-59124037D01*
X99514290Y-59141790D01*
X99496537Y-59157881D01*
X99477292Y-59172153D01*
X99456742Y-59184471D01*
X99435082Y-59194715D01*
X99412523Y-59202787D01*
X99389281Y-59208609D01*
X99365581Y-59212124D01*
X99341650Y-59213300D01*
X98778350Y-59213300D01*
X98754419Y-59212124D01*
X98730719Y-59208609D01*
X98707477Y-59202787D01*
X98684918Y-59194715D01*
X98663258Y-59184471D01*
X98642708Y-59172153D01*
X98623463Y-59157881D01*
X98605710Y-59141790D01*
X98589619Y-59124037D01*
X98575347Y-59104792D01*
X98563029Y-59084242D01*
X98552785Y-59062582D01*
X98544713Y-59040023D01*
X98538891Y-59016781D01*
X98535376Y-58993081D01*
X98534200Y-58969150D01*
X98534200Y-58480850D01*
X98535376Y-58456919D01*
X98538891Y-58433219D01*
X98544713Y-58409977D01*
X98552785Y-58387418D01*
X98563029Y-58365758D01*
X98575347Y-58345208D01*
X98589619Y-58325963D01*
X98605710Y-58308210D01*
X98623463Y-58292119D01*
X98642708Y-58277847D01*
X98663258Y-58265529D01*
X98684918Y-58255285D01*
X98707477Y-58247213D01*
X98730719Y-58241391D01*
X98754419Y-58237876D01*
X98778350Y-58236700D01*
X99341650Y-58236700D01*
X99365581Y-58237876D01*
X99365581Y-58237876D01*
G37*
D15*
X99060000Y-58725000D03*
G04 #@! TD*
D14*
G04 #@! TO.C,R12*
G36*
X101905581Y-58237876D02*
X101929281Y-58241391D01*
X101952523Y-58247213D01*
X101975082Y-58255285D01*
X101996742Y-58265529D01*
X102017292Y-58277847D01*
X102036537Y-58292119D01*
X102054290Y-58308210D01*
X102070381Y-58325963D01*
X102084653Y-58345208D01*
X102096971Y-58365758D01*
X102107215Y-58387418D01*
X102115287Y-58409977D01*
X102121109Y-58433219D01*
X102124624Y-58456919D01*
X102125800Y-58480850D01*
X102125800Y-58969150D01*
X102124624Y-58993081D01*
X102121109Y-59016781D01*
X102115287Y-59040023D01*
X102107215Y-59062582D01*
X102096971Y-59084242D01*
X102084653Y-59104792D01*
X102070381Y-59124037D01*
X102054290Y-59141790D01*
X102036537Y-59157881D01*
X102017292Y-59172153D01*
X101996742Y-59184471D01*
X101975082Y-59194715D01*
X101952523Y-59202787D01*
X101929281Y-59208609D01*
X101905581Y-59212124D01*
X101881650Y-59213300D01*
X101318350Y-59213300D01*
X101294419Y-59212124D01*
X101270719Y-59208609D01*
X101247477Y-59202787D01*
X101224918Y-59194715D01*
X101203258Y-59184471D01*
X101182708Y-59172153D01*
X101163463Y-59157881D01*
X101145710Y-59141790D01*
X101129619Y-59124037D01*
X101115347Y-59104792D01*
X101103029Y-59084242D01*
X101092785Y-59062582D01*
X101084713Y-59040023D01*
X101078891Y-59016781D01*
X101075376Y-58993081D01*
X101074200Y-58969150D01*
X101074200Y-58480850D01*
X101075376Y-58456919D01*
X101078891Y-58433219D01*
X101084713Y-58409977D01*
X101092785Y-58387418D01*
X101103029Y-58365758D01*
X101115347Y-58345208D01*
X101129619Y-58325963D01*
X101145710Y-58308210D01*
X101163463Y-58292119D01*
X101182708Y-58277847D01*
X101203258Y-58265529D01*
X101224918Y-58255285D01*
X101247477Y-58247213D01*
X101270719Y-58241391D01*
X101294419Y-58237876D01*
X101318350Y-58236700D01*
X101881650Y-58236700D01*
X101905581Y-58237876D01*
X101905581Y-58237876D01*
G37*
D15*
X101600000Y-58725000D03*
D14*
G36*
X101905581Y-56662876D02*
X101929281Y-56666391D01*
X101952523Y-56672213D01*
X101975082Y-56680285D01*
X101996742Y-56690529D01*
X102017292Y-56702847D01*
X102036537Y-56717119D01*
X102054290Y-56733210D01*
X102070381Y-56750963D01*
X102084653Y-56770208D01*
X102096971Y-56790758D01*
X102107215Y-56812418D01*
X102115287Y-56834977D01*
X102121109Y-56858219D01*
X102124624Y-56881919D01*
X102125800Y-56905850D01*
X102125800Y-57394150D01*
X102124624Y-57418081D01*
X102121109Y-57441781D01*
X102115287Y-57465023D01*
X102107215Y-57487582D01*
X102096971Y-57509242D01*
X102084653Y-57529792D01*
X102070381Y-57549037D01*
X102054290Y-57566790D01*
X102036537Y-57582881D01*
X102017292Y-57597153D01*
X101996742Y-57609471D01*
X101975082Y-57619715D01*
X101952523Y-57627787D01*
X101929281Y-57633609D01*
X101905581Y-57637124D01*
X101881650Y-57638300D01*
X101318350Y-57638300D01*
X101294419Y-57637124D01*
X101270719Y-57633609D01*
X101247477Y-57627787D01*
X101224918Y-57619715D01*
X101203258Y-57609471D01*
X101182708Y-57597153D01*
X101163463Y-57582881D01*
X101145710Y-57566790D01*
X101129619Y-57549037D01*
X101115347Y-57529792D01*
X101103029Y-57509242D01*
X101092785Y-57487582D01*
X101084713Y-57465023D01*
X101078891Y-57441781D01*
X101075376Y-57418081D01*
X101074200Y-57394150D01*
X101074200Y-56905850D01*
X101075376Y-56881919D01*
X101078891Y-56858219D01*
X101084713Y-56834977D01*
X101092785Y-56812418D01*
X101103029Y-56790758D01*
X101115347Y-56770208D01*
X101129619Y-56750963D01*
X101145710Y-56733210D01*
X101163463Y-56717119D01*
X101182708Y-56702847D01*
X101203258Y-56690529D01*
X101224918Y-56680285D01*
X101247477Y-56672213D01*
X101270719Y-56666391D01*
X101294419Y-56662876D01*
X101318350Y-56661700D01*
X101881650Y-56661700D01*
X101905581Y-56662876D01*
X101905581Y-56662876D01*
G37*
D15*
X101600000Y-57150000D03*
G04 #@! TD*
D14*
G04 #@! TO.C,R13*
G36*
X104445581Y-56662876D02*
X104469281Y-56666391D01*
X104492523Y-56672213D01*
X104515082Y-56680285D01*
X104536742Y-56690529D01*
X104557292Y-56702847D01*
X104576537Y-56717119D01*
X104594290Y-56733210D01*
X104610381Y-56750963D01*
X104624653Y-56770208D01*
X104636971Y-56790758D01*
X104647215Y-56812418D01*
X104655287Y-56834977D01*
X104661109Y-56858219D01*
X104664624Y-56881919D01*
X104665800Y-56905850D01*
X104665800Y-57394150D01*
X104664624Y-57418081D01*
X104661109Y-57441781D01*
X104655287Y-57465023D01*
X104647215Y-57487582D01*
X104636971Y-57509242D01*
X104624653Y-57529792D01*
X104610381Y-57549037D01*
X104594290Y-57566790D01*
X104576537Y-57582881D01*
X104557292Y-57597153D01*
X104536742Y-57609471D01*
X104515082Y-57619715D01*
X104492523Y-57627787D01*
X104469281Y-57633609D01*
X104445581Y-57637124D01*
X104421650Y-57638300D01*
X103858350Y-57638300D01*
X103834419Y-57637124D01*
X103810719Y-57633609D01*
X103787477Y-57627787D01*
X103764918Y-57619715D01*
X103743258Y-57609471D01*
X103722708Y-57597153D01*
X103703463Y-57582881D01*
X103685710Y-57566790D01*
X103669619Y-57549037D01*
X103655347Y-57529792D01*
X103643029Y-57509242D01*
X103632785Y-57487582D01*
X103624713Y-57465023D01*
X103618891Y-57441781D01*
X103615376Y-57418081D01*
X103614200Y-57394150D01*
X103614200Y-56905850D01*
X103615376Y-56881919D01*
X103618891Y-56858219D01*
X103624713Y-56834977D01*
X103632785Y-56812418D01*
X103643029Y-56790758D01*
X103655347Y-56770208D01*
X103669619Y-56750963D01*
X103685710Y-56733210D01*
X103703463Y-56717119D01*
X103722708Y-56702847D01*
X103743258Y-56690529D01*
X103764918Y-56680285D01*
X103787477Y-56672213D01*
X103810719Y-56666391D01*
X103834419Y-56662876D01*
X103858350Y-56661700D01*
X104421650Y-56661700D01*
X104445581Y-56662876D01*
X104445581Y-56662876D01*
G37*
D15*
X104140000Y-57150000D03*
D14*
G36*
X104445581Y-58237876D02*
X104469281Y-58241391D01*
X104492523Y-58247213D01*
X104515082Y-58255285D01*
X104536742Y-58265529D01*
X104557292Y-58277847D01*
X104576537Y-58292119D01*
X104594290Y-58308210D01*
X104610381Y-58325963D01*
X104624653Y-58345208D01*
X104636971Y-58365758D01*
X104647215Y-58387418D01*
X104655287Y-58409977D01*
X104661109Y-58433219D01*
X104664624Y-58456919D01*
X104665800Y-58480850D01*
X104665800Y-58969150D01*
X104664624Y-58993081D01*
X104661109Y-59016781D01*
X104655287Y-59040023D01*
X104647215Y-59062582D01*
X104636971Y-59084242D01*
X104624653Y-59104792D01*
X104610381Y-59124037D01*
X104594290Y-59141790D01*
X104576537Y-59157881D01*
X104557292Y-59172153D01*
X104536742Y-59184471D01*
X104515082Y-59194715D01*
X104492523Y-59202787D01*
X104469281Y-59208609D01*
X104445581Y-59212124D01*
X104421650Y-59213300D01*
X103858350Y-59213300D01*
X103834419Y-59212124D01*
X103810719Y-59208609D01*
X103787477Y-59202787D01*
X103764918Y-59194715D01*
X103743258Y-59184471D01*
X103722708Y-59172153D01*
X103703463Y-59157881D01*
X103685710Y-59141790D01*
X103669619Y-59124037D01*
X103655347Y-59104792D01*
X103643029Y-59084242D01*
X103632785Y-59062582D01*
X103624713Y-59040023D01*
X103618891Y-59016781D01*
X103615376Y-58993081D01*
X103614200Y-58969150D01*
X103614200Y-58480850D01*
X103615376Y-58456919D01*
X103618891Y-58433219D01*
X103624713Y-58409977D01*
X103632785Y-58387418D01*
X103643029Y-58365758D01*
X103655347Y-58345208D01*
X103669619Y-58325963D01*
X103685710Y-58308210D01*
X103703463Y-58292119D01*
X103722708Y-58277847D01*
X103743258Y-58265529D01*
X103764918Y-58255285D01*
X103787477Y-58247213D01*
X103810719Y-58241391D01*
X103834419Y-58237876D01*
X103858350Y-58236700D01*
X104421650Y-58236700D01*
X104445581Y-58237876D01*
X104445581Y-58237876D01*
G37*
D15*
X104140000Y-58725000D03*
G04 #@! TD*
D16*
G04 #@! TO.C,Y1*
X99800000Y-78000000D03*
X95700000Y-78000000D03*
G04 #@! TD*
M02*
