G04 #@! TF.GenerationSoftware,KiCad,Pcbnew,5.0.0-fee4fd1~65~ubuntu18.04.1*
G04 #@! TF.CreationDate,2018-07-31T22:57:32+02:00*
G04 #@! TF.ProjectId,raspi3-4xWS2812,7261737069332D34785753323831322E,rev?*
G04 #@! TF.SameCoordinates,Original*
G04 #@! TF.FileFunction,Legend,Top*
G04 #@! TF.FilePolarity,Positive*
%FSLAX46Y46*%
G04 Gerber Fmt 4.6, Leading zero omitted, Abs format (unit mm)*
G04 Created by KiCad (PCBNEW 5.0.0-fee4fd1~65~ubuntu18.04.1) date Tue Jul 31 22:57:32 2018*
%MOMM*%
%LPD*%
G01*
G04 APERTURE LIST*
%ADD10C,0.300000*%
%ADD11C,0.200000*%
%ADD12C,0.150000*%
%ADD13C,0.120000*%
G04 APERTURE END LIST*
D10*
X106691857Y-51320000D02*
X106549000Y-51248571D01*
X106334714Y-51248571D01*
X106120428Y-51320000D01*
X105977571Y-51462857D01*
X105906142Y-51605714D01*
X105834714Y-51891428D01*
X105834714Y-52105714D01*
X105906142Y-52391428D01*
X105977571Y-52534285D01*
X106120428Y-52677142D01*
X106334714Y-52748571D01*
X106477571Y-52748571D01*
X106691857Y-52677142D01*
X106763285Y-52605714D01*
X106763285Y-52105714D01*
X106477571Y-52105714D01*
X104425714Y-56828571D02*
X104425714Y-57828571D01*
X104068571Y-56257142D02*
X103711428Y-57328571D01*
X104640000Y-57328571D01*
X101100000Y-56328571D02*
X102028571Y-56328571D01*
X101528571Y-56900000D01*
X101742857Y-56900000D01*
X101885714Y-56971428D01*
X101957142Y-57042857D01*
X102028571Y-57185714D01*
X102028571Y-57542857D01*
X101957142Y-57685714D01*
X101885714Y-57757142D01*
X101742857Y-57828571D01*
X101314285Y-57828571D01*
X101171428Y-57757142D01*
X101100000Y-57685714D01*
X98631428Y-56471428D02*
X98702857Y-56400000D01*
X98845714Y-56328571D01*
X99202857Y-56328571D01*
X99345714Y-56400000D01*
X99417142Y-56471428D01*
X99488571Y-56614285D01*
X99488571Y-56757142D01*
X99417142Y-56971428D01*
X98560000Y-57828571D01*
X99488571Y-57828571D01*
X96948571Y-57828571D02*
X96091428Y-57828571D01*
X96520000Y-57828571D02*
X96520000Y-56328571D01*
X96377142Y-56542857D01*
X96234285Y-56685714D01*
X96091428Y-56757142D01*
D11*
X95099214Y-87859023D02*
X95765880Y-87859023D01*
X94718261Y-88097119D02*
X95432547Y-88335214D01*
X95432547Y-87716166D01*
X95765880Y-87430452D02*
X95099214Y-86906642D01*
X95099214Y-87430452D02*
X95765880Y-86906642D01*
X94765880Y-85859023D02*
X95765880Y-85620928D01*
X95051595Y-85430452D01*
X95765880Y-85239976D01*
X94765880Y-85001880D01*
X95718261Y-84668547D02*
X95765880Y-84525690D01*
X95765880Y-84287595D01*
X95718261Y-84192357D01*
X95670642Y-84144738D01*
X95575404Y-84097119D01*
X95480166Y-84097119D01*
X95384928Y-84144738D01*
X95337309Y-84192357D01*
X95289690Y-84287595D01*
X95242071Y-84478071D01*
X95194452Y-84573309D01*
X95146833Y-84620928D01*
X95051595Y-84668547D01*
X94956357Y-84668547D01*
X94861119Y-84620928D01*
X94813500Y-84573309D01*
X94765880Y-84478071D01*
X94765880Y-84239976D01*
X94813500Y-84097119D01*
X94861119Y-83716166D02*
X94813500Y-83668547D01*
X94765880Y-83573309D01*
X94765880Y-83335214D01*
X94813500Y-83239976D01*
X94861119Y-83192357D01*
X94956357Y-83144738D01*
X95051595Y-83144738D01*
X95194452Y-83192357D01*
X95765880Y-83763785D01*
X95765880Y-83144738D01*
X95194452Y-82573309D02*
X95146833Y-82668547D01*
X95099214Y-82716166D01*
X95003976Y-82763785D01*
X94956357Y-82763785D01*
X94861119Y-82716166D01*
X94813500Y-82668547D01*
X94765880Y-82573309D01*
X94765880Y-82382833D01*
X94813500Y-82287595D01*
X94861119Y-82239976D01*
X94956357Y-82192357D01*
X95003976Y-82192357D01*
X95099214Y-82239976D01*
X95146833Y-82287595D01*
X95194452Y-82382833D01*
X95194452Y-82573309D01*
X95242071Y-82668547D01*
X95289690Y-82716166D01*
X95384928Y-82763785D01*
X95575404Y-82763785D01*
X95670642Y-82716166D01*
X95718261Y-82668547D01*
X95765880Y-82573309D01*
X95765880Y-82382833D01*
X95718261Y-82287595D01*
X95670642Y-82239976D01*
X95575404Y-82192357D01*
X95384928Y-82192357D01*
X95289690Y-82239976D01*
X95242071Y-82287595D01*
X95194452Y-82382833D01*
X95765880Y-81239976D02*
X95765880Y-81811404D01*
X95765880Y-81525690D02*
X94765880Y-81525690D01*
X94908738Y-81620928D01*
X95003976Y-81716166D01*
X95051595Y-81811404D01*
X94861119Y-80859023D02*
X94813500Y-80811404D01*
X94765880Y-80716166D01*
X94765880Y-80478071D01*
X94813500Y-80382833D01*
X94861119Y-80335214D01*
X94956357Y-80287595D01*
X95051595Y-80287595D01*
X95194452Y-80335214D01*
X95765880Y-80906642D01*
X95765880Y-80287595D01*
X95765880Y-79097119D02*
X95099214Y-79097119D01*
X95289690Y-79097119D02*
X95194452Y-79049500D01*
X95146833Y-79001880D01*
X95099214Y-78906642D01*
X95099214Y-78811404D01*
X95765880Y-78049500D02*
X95242071Y-78049500D01*
X95146833Y-78097119D01*
X95099214Y-78192357D01*
X95099214Y-78382833D01*
X95146833Y-78478071D01*
X95718261Y-78049500D02*
X95765880Y-78144738D01*
X95765880Y-78382833D01*
X95718261Y-78478071D01*
X95623023Y-78525690D01*
X95527785Y-78525690D01*
X95432547Y-78478071D01*
X95384928Y-78382833D01*
X95384928Y-78144738D01*
X95337309Y-78049500D01*
X95718261Y-77620928D02*
X95765880Y-77525690D01*
X95765880Y-77335214D01*
X95718261Y-77239976D01*
X95623023Y-77192357D01*
X95575404Y-77192357D01*
X95480166Y-77239976D01*
X95432547Y-77335214D01*
X95432547Y-77478071D01*
X95384928Y-77573309D01*
X95289690Y-77620928D01*
X95242071Y-77620928D01*
X95146833Y-77573309D01*
X95099214Y-77478071D01*
X95099214Y-77335214D01*
X95146833Y-77239976D01*
X95099214Y-76763785D02*
X96099214Y-76763785D01*
X95146833Y-76763785D02*
X95099214Y-76668547D01*
X95099214Y-76478071D01*
X95146833Y-76382833D01*
X95194452Y-76335214D01*
X95289690Y-76287595D01*
X95575404Y-76287595D01*
X95670642Y-76335214D01*
X95718261Y-76382833D01*
X95765880Y-76478071D01*
X95765880Y-76668547D01*
X95718261Y-76763785D01*
X95765880Y-75859023D02*
X95099214Y-75859023D01*
X94765880Y-75859023D02*
X94813500Y-75906642D01*
X94861119Y-75859023D01*
X94813500Y-75811404D01*
X94765880Y-75859023D01*
X94861119Y-75859023D01*
X95765880Y-74620928D02*
X94765880Y-74620928D01*
X95765880Y-74192357D02*
X95242071Y-74192357D01*
X95146833Y-74239976D01*
X95099214Y-74335214D01*
X95099214Y-74478071D01*
X95146833Y-74573309D01*
X95194452Y-74620928D01*
X95765880Y-73287595D02*
X95242071Y-73287595D01*
X95146833Y-73335214D01*
X95099214Y-73430452D01*
X95099214Y-73620928D01*
X95146833Y-73716166D01*
X95718261Y-73287595D02*
X95765880Y-73382833D01*
X95765880Y-73620928D01*
X95718261Y-73716166D01*
X95623023Y-73763785D01*
X95527785Y-73763785D01*
X95432547Y-73716166D01*
X95384928Y-73620928D01*
X95384928Y-73382833D01*
X95337309Y-73287595D01*
X95099214Y-72954261D02*
X95099214Y-72573309D01*
X94765880Y-72811404D02*
X95623023Y-72811404D01*
X95718261Y-72763785D01*
X95765880Y-72668547D01*
X95765880Y-72573309D01*
X95099214Y-71573309D02*
X95765880Y-71335214D01*
X95099214Y-71097119D01*
X94765880Y-70525690D02*
X94765880Y-70430452D01*
X94813500Y-70335214D01*
X94861119Y-70287595D01*
X94956357Y-70239976D01*
X95146833Y-70192357D01*
X95384928Y-70192357D01*
X95575404Y-70239976D01*
X95670642Y-70287595D01*
X95718261Y-70335214D01*
X95765880Y-70430452D01*
X95765880Y-70525690D01*
X95718261Y-70620928D01*
X95670642Y-70668547D01*
X95575404Y-70716166D01*
X95384928Y-70763785D01*
X95146833Y-70763785D01*
X94956357Y-70716166D01*
X94861119Y-70668547D01*
X94813500Y-70620928D01*
X94765880Y-70525690D01*
X95670642Y-69763785D02*
X95718261Y-69716166D01*
X95765880Y-69763785D01*
X95718261Y-69811404D01*
X95670642Y-69763785D01*
X95765880Y-69763785D01*
X94765880Y-69382833D02*
X94765880Y-68763785D01*
X95146833Y-69097119D01*
X95146833Y-68954261D01*
X95194452Y-68859023D01*
X95242071Y-68811404D01*
X95337309Y-68763785D01*
X95575404Y-68763785D01*
X95670642Y-68811404D01*
X95718261Y-68859023D01*
X95765880Y-68954261D01*
X95765880Y-69239976D01*
X95718261Y-69335214D01*
X95670642Y-69382833D01*
X107132380Y-78350047D02*
X106132380Y-78350047D01*
X107132380Y-77921476D02*
X106608571Y-77921476D01*
X106513333Y-77969095D01*
X106465714Y-78064333D01*
X106465714Y-78207190D01*
X106513333Y-78302428D01*
X106560952Y-78350047D01*
X106465714Y-77588142D02*
X106465714Y-77207190D01*
X106132380Y-77445285D02*
X106989523Y-77445285D01*
X107084761Y-77397666D01*
X107132380Y-77302428D01*
X107132380Y-77207190D01*
X106465714Y-77016714D02*
X106465714Y-76635761D01*
X106132380Y-76873857D02*
X106989523Y-76873857D01*
X107084761Y-76826238D01*
X107132380Y-76731000D01*
X107132380Y-76635761D01*
X106465714Y-76302428D02*
X107465714Y-76302428D01*
X106513333Y-76302428D02*
X106465714Y-76207190D01*
X106465714Y-76016714D01*
X106513333Y-75921476D01*
X106560952Y-75873857D01*
X106656190Y-75826238D01*
X106941904Y-75826238D01*
X107037142Y-75873857D01*
X107084761Y-75921476D01*
X107132380Y-76016714D01*
X107132380Y-76207190D01*
X107084761Y-76302428D01*
X107084761Y-75445285D02*
X107132380Y-75350047D01*
X107132380Y-75159571D01*
X107084761Y-75064333D01*
X106989523Y-75016714D01*
X106941904Y-75016714D01*
X106846666Y-75064333D01*
X106799047Y-75159571D01*
X106799047Y-75302428D01*
X106751428Y-75397666D01*
X106656190Y-75445285D01*
X106608571Y-75445285D01*
X106513333Y-75397666D01*
X106465714Y-75302428D01*
X106465714Y-75159571D01*
X106513333Y-75064333D01*
X107037142Y-74588142D02*
X107084761Y-74540523D01*
X107132380Y-74588142D01*
X107084761Y-74635761D01*
X107037142Y-74588142D01*
X107132380Y-74588142D01*
X106513333Y-74588142D02*
X106560952Y-74540523D01*
X106608571Y-74588142D01*
X106560952Y-74635761D01*
X106513333Y-74588142D01*
X106608571Y-74588142D01*
X106084761Y-73397666D02*
X107370476Y-74254809D01*
X106084761Y-72350047D02*
X107370476Y-73207190D01*
X107132380Y-72016714D02*
X106132380Y-72016714D01*
X106513333Y-72016714D02*
X106465714Y-71921476D01*
X106465714Y-71731000D01*
X106513333Y-71635761D01*
X106560952Y-71588142D01*
X106656190Y-71540523D01*
X106941904Y-71540523D01*
X107037142Y-71588142D01*
X107084761Y-71635761D01*
X107132380Y-71731000D01*
X107132380Y-71921476D01*
X107084761Y-72016714D01*
X106465714Y-71207190D02*
X107132380Y-70969095D01*
X106465714Y-70731000D02*
X107132380Y-70969095D01*
X107370476Y-71064333D01*
X107418095Y-71111952D01*
X107465714Y-71207190D01*
X106465714Y-70492904D02*
X106465714Y-70111952D01*
X106132380Y-70350047D02*
X106989523Y-70350047D01*
X107084761Y-70302428D01*
X107132380Y-70207190D01*
X107132380Y-70111952D01*
X107084761Y-69397666D02*
X107132380Y-69492904D01*
X107132380Y-69683380D01*
X107084761Y-69778619D01*
X106989523Y-69826238D01*
X106608571Y-69826238D01*
X106513333Y-69778619D01*
X106465714Y-69683380D01*
X106465714Y-69492904D01*
X106513333Y-69397666D01*
X106608571Y-69350047D01*
X106703809Y-69350047D01*
X106799047Y-69826238D01*
X106465714Y-69016714D02*
X107132380Y-68826238D01*
X106656190Y-68635761D01*
X107132380Y-68445285D01*
X106465714Y-68254809D01*
X107084761Y-67492904D02*
X107132380Y-67588142D01*
X107132380Y-67778619D01*
X107084761Y-67873857D01*
X106989523Y-67921476D01*
X106608571Y-67921476D01*
X106513333Y-67873857D01*
X106465714Y-67778619D01*
X106465714Y-67588142D01*
X106513333Y-67492904D01*
X106608571Y-67445285D01*
X106703809Y-67445285D01*
X106799047Y-67921476D01*
X107132380Y-67016714D02*
X106465714Y-67016714D01*
X106656190Y-67016714D02*
X106560952Y-66969095D01*
X106513333Y-66921476D01*
X106465714Y-66826238D01*
X106465714Y-66731000D01*
X107132380Y-66397666D02*
X106132380Y-66397666D01*
X106751428Y-66302428D02*
X107132380Y-66016714D01*
X106465714Y-66016714D02*
X106846666Y-66397666D01*
X107037142Y-65588142D02*
X107084761Y-65540523D01*
X107132380Y-65588142D01*
X107084761Y-65635761D01*
X107037142Y-65588142D01*
X107132380Y-65588142D01*
X107132380Y-64969095D02*
X107084761Y-65064333D01*
X107037142Y-65111952D01*
X106941904Y-65159571D01*
X106656190Y-65159571D01*
X106560952Y-65111952D01*
X106513333Y-65064333D01*
X106465714Y-64969095D01*
X106465714Y-64826238D01*
X106513333Y-64731000D01*
X106560952Y-64683380D01*
X106656190Y-64635761D01*
X106941904Y-64635761D01*
X107037142Y-64683380D01*
X107084761Y-64731000D01*
X107132380Y-64826238D01*
X107132380Y-64969095D01*
X107132380Y-64207190D02*
X106465714Y-64207190D01*
X106656190Y-64207190D02*
X106560952Y-64159571D01*
X106513333Y-64111952D01*
X106465714Y-64016714D01*
X106465714Y-63921476D01*
X106465714Y-63159571D02*
X107275238Y-63159571D01*
X107370476Y-63207190D01*
X107418095Y-63254809D01*
X107465714Y-63350047D01*
X107465714Y-63492904D01*
X107418095Y-63588142D01*
X107084761Y-63159571D02*
X107132380Y-63254809D01*
X107132380Y-63445285D01*
X107084761Y-63540523D01*
X107037142Y-63588142D01*
X106941904Y-63635761D01*
X106656190Y-63635761D01*
X106560952Y-63588142D01*
X106513333Y-63540523D01*
X106465714Y-63445285D01*
X106465714Y-63254809D01*
X106513333Y-63159571D01*
X106084761Y-61969095D02*
X107370476Y-62826238D01*
D12*
G04 #@! TO.C,U2*
X104780000Y-62060000D02*
X104755000Y-62060000D01*
X104780000Y-66210000D02*
X104665000Y-66210000D01*
X95880000Y-66210000D02*
X95995000Y-66210000D01*
X95880000Y-62060000D02*
X95995000Y-62060000D01*
X104780000Y-62060000D02*
X104780000Y-66210000D01*
X95880000Y-62060000D02*
X95880000Y-66210000D01*
X104755000Y-62060000D02*
X104755000Y-60685000D01*
D13*
G04 #@! TO.C,J1*
X106740000Y-95110000D02*
X106740000Y-94287530D01*
X106740000Y-92402470D02*
X106740000Y-91580000D01*
X106740000Y-93672470D02*
X106740000Y-93017530D01*
X101725000Y-95110000D02*
X106740000Y-95110000D01*
X100270000Y-91580000D02*
X106740000Y-91580000D01*
X101725000Y-95110000D02*
X101725000Y-94543471D01*
X101725000Y-93416529D02*
X101725000Y-93273471D01*
X101671529Y-93220000D02*
X101528471Y-93220000D01*
X100401529Y-93220000D02*
X100270000Y-93220000D01*
X100270000Y-93220000D02*
X100270000Y-93017530D01*
X100270000Y-92402470D02*
X100270000Y-91580000D01*
X100965000Y-95110000D02*
X100205000Y-95110000D01*
X100205000Y-95110000D02*
X100205000Y-93980000D01*
G04 #@! TO.C,J4*
X105470000Y-55940000D02*
X105470000Y-50740000D01*
X97790000Y-55940000D02*
X105470000Y-55940000D01*
X95190000Y-50740000D02*
X105470000Y-50740000D01*
X97790000Y-55940000D02*
X97790000Y-53340000D01*
X97790000Y-53340000D02*
X95190000Y-53340000D01*
X95190000Y-53340000D02*
X95190000Y-50740000D01*
X96520000Y-55940000D02*
X95190000Y-55940000D01*
X95190000Y-55940000D02*
X95190000Y-54610000D01*
G04 #@! TO.C,J2*
X107890000Y-101660000D02*
X113090000Y-101660000D01*
X107890000Y-53340000D02*
X107890000Y-101660000D01*
X113090000Y-50740000D02*
X113090000Y-101660000D01*
X107890000Y-53340000D02*
X110490000Y-53340000D01*
X110490000Y-53340000D02*
X110490000Y-50740000D01*
X110490000Y-50740000D02*
X113090000Y-50740000D01*
X107890000Y-52070000D02*
X107890000Y-50740000D01*
X107890000Y-50740000D02*
X109220000Y-50740000D01*
G04 #@! TO.C,Y1*
X98900000Y-76222000D02*
X104800000Y-76222000D01*
X104800000Y-76222000D02*
X104800000Y-72622000D01*
X104800000Y-72622000D02*
X98900000Y-72622000D01*
G04 #@! TO.C,D1*
X95785000Y-91225000D02*
X95785000Y-93510000D01*
X97255000Y-91225000D02*
X95785000Y-91225000D01*
X97255000Y-93510000D02*
X97255000Y-91225000D01*
G04 #@! TO.C,D2*
X99033000Y-93510000D02*
X99033000Y-91225000D01*
X99033000Y-91225000D02*
X97563000Y-91225000D01*
X97563000Y-91225000D02*
X97563000Y-93510000D01*
D12*
G04 #@! TO.C,U1*
X105225000Y-87445000D02*
X105225000Y-87020000D01*
X97975000Y-87445000D02*
X97975000Y-86920000D01*
X97975000Y-80195000D02*
X97975000Y-80720000D01*
X105225000Y-80195000D02*
X105225000Y-80720000D01*
X105225000Y-87445000D02*
X104700000Y-87445000D01*
X105225000Y-80195000D02*
X104700000Y-80195000D01*
X97975000Y-80195000D02*
X98500000Y-80195000D01*
X97975000Y-87445000D02*
X98500000Y-87445000D01*
X105225000Y-87020000D02*
X106600000Y-87020000D01*
G04 #@! TO.C,U2*
X99568095Y-68095880D02*
X99568095Y-68905404D01*
X99615714Y-69000642D01*
X99663333Y-69048261D01*
X99758571Y-69095880D01*
X99949047Y-69095880D01*
X100044285Y-69048261D01*
X100091904Y-69000642D01*
X100139523Y-68905404D01*
X100139523Y-68095880D01*
X100568095Y-68191119D02*
X100615714Y-68143500D01*
X100710952Y-68095880D01*
X100949047Y-68095880D01*
X101044285Y-68143500D01*
X101091904Y-68191119D01*
X101139523Y-68286357D01*
X101139523Y-68381595D01*
X101091904Y-68524452D01*
X100520476Y-69095880D01*
X101139523Y-69095880D01*
G04 #@! TO.C,J1*
X103171666Y-95337380D02*
X103171666Y-96051666D01*
X103124047Y-96194523D01*
X103028809Y-96289761D01*
X102885952Y-96337380D01*
X102790714Y-96337380D01*
X104171666Y-96337380D02*
X103600238Y-96337380D01*
X103885952Y-96337380D02*
X103885952Y-95337380D01*
X103790714Y-95480238D01*
X103695476Y-95575476D01*
X103600238Y-95623095D01*
G04 #@! TO.C,J4*
X105878380Y-55705333D02*
X106592666Y-55705333D01*
X106735523Y-55752952D01*
X106830761Y-55848190D01*
X106878380Y-55991047D01*
X106878380Y-56086285D01*
X106211714Y-54800571D02*
X106878380Y-54800571D01*
X105830761Y-55038666D02*
X106545047Y-55276761D01*
X106545047Y-54657714D01*
G04 #@! TO.C,J2*
X106473666Y-100290380D02*
X106473666Y-101004666D01*
X106426047Y-101147523D01*
X106330809Y-101242761D01*
X106187952Y-101290380D01*
X106092714Y-101290380D01*
X106902238Y-100385619D02*
X106949857Y-100338000D01*
X107045095Y-100290380D01*
X107283190Y-100290380D01*
X107378428Y-100338000D01*
X107426047Y-100385619D01*
X107473666Y-100480857D01*
X107473666Y-100576095D01*
X107426047Y-100718952D01*
X106854619Y-101290380D01*
X107473666Y-101290380D01*
G04 #@! TO.C,Y1*
X101123809Y-77198190D02*
X101123809Y-77674380D01*
X100790476Y-76674380D02*
X101123809Y-77198190D01*
X101457142Y-76674380D01*
X102314285Y-77674380D02*
X101742857Y-77674380D01*
X102028571Y-77674380D02*
X102028571Y-76674380D01*
X101933333Y-76817238D01*
X101838095Y-76912476D01*
X101742857Y-76960095D01*
G04 #@! TO.C,D1*
X96972380Y-95988095D02*
X95972380Y-95988095D01*
X95972380Y-95750000D01*
X96020000Y-95607142D01*
X96115238Y-95511904D01*
X96210476Y-95464285D01*
X96400952Y-95416666D01*
X96543809Y-95416666D01*
X96734285Y-95464285D01*
X96829523Y-95511904D01*
X96924761Y-95607142D01*
X96972380Y-95750000D01*
X96972380Y-95988095D01*
X96972380Y-94464285D02*
X96972380Y-95035714D01*
X96972380Y-94750000D02*
X95972380Y-94750000D01*
X96115238Y-94845238D01*
X96210476Y-94940476D01*
X96258095Y-95035714D01*
G04 #@! TO.C,D2*
X98877380Y-95988095D02*
X97877380Y-95988095D01*
X97877380Y-95750000D01*
X97925000Y-95607142D01*
X98020238Y-95511904D01*
X98115476Y-95464285D01*
X98305952Y-95416666D01*
X98448809Y-95416666D01*
X98639285Y-95464285D01*
X98734523Y-95511904D01*
X98829761Y-95607142D01*
X98877380Y-95750000D01*
X98877380Y-95988095D01*
X97972619Y-95035714D02*
X97925000Y-94988095D01*
X97877380Y-94892857D01*
X97877380Y-94654761D01*
X97925000Y-94559523D01*
X97972619Y-94511904D01*
X98067857Y-94464285D01*
X98163095Y-94464285D01*
X98305952Y-94511904D01*
X98877380Y-95083333D01*
X98877380Y-94464285D01*
G04 #@! TO.C,U1*
X100838095Y-89272380D02*
X100838095Y-90081904D01*
X100885714Y-90177142D01*
X100933333Y-90224761D01*
X101028571Y-90272380D01*
X101219047Y-90272380D01*
X101314285Y-90224761D01*
X101361904Y-90177142D01*
X101409523Y-90081904D01*
X101409523Y-89272380D01*
X102409523Y-90272380D02*
X101838095Y-90272380D01*
X102123809Y-90272380D02*
X102123809Y-89272380D01*
X102028571Y-89415238D01*
X101933333Y-89510476D01*
X101838095Y-89558095D01*
G04 #@! TD*
M02*
