M48
;DRILL file {KiCad 5.0.0-rc2-unknown-dd436b6~65~ubuntu18.04.1} date Wed Jun 27 22:19:35 2018
;FORMAT={-:-/ absolute / inch / decimal}
FMAT,2
INCH,TZ
T1C0.0130
T2C0.0138
T3C0.0157
T4C0.0256
T5C0.0394
%
G90
G05
M72
T1
X3.4744Y-3.2972
X3.5197Y-3.0906
X3.5728Y-3.0906
X3.6024Y-3.0217
X3.622Y-3.2972
X3.6417Y-3.0807
X3.6417Y-3.0807
X3.6713Y-3.6319
X3.7106Y-3.3563
X3.7108Y-3.0807
X3.7108Y-3.0413
X3.7303Y-3.6319
X3.7697Y-2.7264
X3.7697Y-2.7854
X3.7697Y-3.002
X3.7894Y-2.7559
X3.7894Y-3.4252
X3.8484Y-3.3563
X3.878Y-3.2972
X3.8878Y-3.4744
X3.8976Y-2.5984
X3.8976Y-2.7854
X3.8976Y-2.9134
X3.9075Y-3.002
X3.9272Y-3.4744
X3.9469Y-2.7264
X3.9469Y-3.2382
X3.9567Y-3.1398
X3.9567Y-3.3563
X3.9654Y-3.0008
X3.9665Y-2.7559
X3.9858Y-3.4746
X3.9961Y-2.5492
X4.0354Y-3.4744
X4.0453Y-2.5984
X4.0453Y-2.9134
X4.0748Y-2.9528
X4.1142Y-2.7067
X4.1437Y-2.9134
X4.1535Y-3.2776
X4.1634Y-2.7461
X4.1634Y-2.7953
X4.1634Y-2.9724
X4.1732Y-3.0512
X4.1732Y-3.2382
X4.1929Y-2.5591
X4.2323Y-3.2185
X4.2421Y-2.4016
X4.252Y-2.6969
X4.2618Y-2.9035
T2
X3.6319Y-2.372
X3.7874Y-2.6024
X3.8463Y-2.6024
X4.2323Y-2.1063
T3
X3.4941Y-2.372
X3.5433Y-2.3524
X3.7008Y-2.372
X3.7008Y-2.4902
X3.7598Y-2.372
X3.8976Y-2.3819
X3.9961Y-2.4213
X4.0256Y-2.3622
X4.1142Y-2.372
X4.1634Y-2.3524
T4
X3.8276Y-3.5709
X3.8276Y-3.6209
X3.8776Y-3.5709
X3.8776Y-3.6209
X3.9276Y-3.5709
X3.9276Y-3.6209
X3.9776Y-3.5709
X3.9776Y-3.6209
X4.0276Y-3.5709
X4.0276Y-3.6209
T5
X3.4Y-2.05
X3.4Y-2.15
X3.5Y-2.05
X3.5Y-2.15
X3.6Y-2.05
X3.6Y-2.15
X3.7Y-2.05
X3.7Y-2.15
X3.8Y-2.05
X3.8Y-2.15
X3.9Y-2.05
X3.9Y-2.15
X4.Y-2.05
X4.Y-2.15
X4.1Y-2.05
X4.1Y-2.15
X3.4Y-3.95
X3.5Y-3.95
X3.4Y-2.45
X3.4Y-2.55
X3.4Y-2.65
X3.4Y-2.75
X3.5Y-2.45
X3.5Y-2.55
X3.5Y-2.65
X3.5Y-2.75
X4.3Y-2.05
X4.3Y-2.15
X4.3Y-2.25
X4.3Y-2.35
X4.3Y-2.45
X4.3Y-2.55
X4.3Y-2.65
X4.3Y-2.75
X4.3Y-2.85
X4.3Y-2.95
X4.3Y-3.05
X4.3Y-3.15
X4.3Y-3.25
X4.3Y-3.35
X4.3Y-3.45
X4.3Y-3.55
X4.3Y-3.65
X4.3Y-3.75
X4.3Y-3.85
X4.3Y-3.95
X4.4Y-2.05
X4.4Y-2.15
X4.4Y-2.25
X4.4Y-2.35
X4.4Y-2.45
X4.4Y-2.55
X4.4Y-2.65
X4.4Y-2.75
X4.4Y-2.85
X4.4Y-2.95
X4.4Y-3.05
X4.4Y-3.15
X4.4Y-3.25
X4.4Y-3.35
X4.4Y-3.45
X4.4Y-3.55
X4.4Y-3.65
X4.4Y-3.75
X4.4Y-3.85
X4.4Y-3.95
T0
M30
