M48
;DRILL file {KiCad 5.0.0-fee4fd1~65~ubuntu18.04.1} date Tue Jul 31 22:57:36 2018
;FORMAT={-:-/ absolute / inch / decimal}
FMAT,2
INCH,TZ
T1C0.0130
T2C0.0138
T3C0.0256
T4C0.0394
%
G90
G05
M72
T1
X3.78Y-3.39
X3.8Y-2.35
X3.8Y-2.735
X3.8Y-2.775
X3.81Y-3.715
X3.855Y-2.525
X3.88Y-3.715
X3.9Y-2.35
X3.9Y-2.5
X3.94Y-3.02
X3.95Y-2.58
X3.95Y-2.8
X3.95Y-3.5425
X3.98Y-2.77
X3.98Y-3.02
X3.9909Y-3.0809
X4.Y-2.35
X4.0102Y-3.42
X4.0225Y-2.4975
X4.0301Y-3.08
X4.0432Y-3.42
X4.045Y-2.525
X4.05Y-3.6
X4.0762Y-3.42
X4.1Y-3.5425
X4.22Y-3.29
X4.22Y-3.33
T2
X3.8Y-2.475
X3.825Y-3.435
X3.9225Y-3.6175
X3.975Y-3.42
X4.1Y-2.575
X4.145Y-2.815
X4.165Y-2.385
X4.165Y-2.8975
X4.17Y-3.14
X4.2Y-2.54
T3
X3.975Y-3.65
X3.975Y-3.7
X4.025Y-3.65
X4.025Y-3.7
X4.075Y-3.65
X4.075Y-3.7
X4.125Y-3.65
X4.125Y-3.7
X4.175Y-3.65
X4.175Y-3.7
T4
X3.8Y-2.05
X3.8Y-2.15
X3.9Y-2.05
X3.9Y-2.15
X4.Y-2.05
X4.Y-2.15
X4.1Y-2.05
X4.1Y-2.15
X4.3Y-2.05
X4.3Y-2.15
X4.3Y-2.25
X4.3Y-2.35
X4.3Y-2.45
X4.3Y-2.55
X4.3Y-2.65
X4.3Y-2.75
X4.3Y-2.85
X4.3Y-2.95
X4.3Y-3.05
X4.3Y-3.15
X4.3Y-3.25
X4.3Y-3.35
X4.3Y-3.45
X4.3Y-3.55
X4.3Y-3.65
X4.3Y-3.75
X4.3Y-3.85
X4.3Y-3.95
X4.4Y-2.05
X4.4Y-2.15
X4.4Y-2.25
X4.4Y-2.35
X4.4Y-2.45
X4.4Y-2.55
X4.4Y-2.65
X4.4Y-2.75
X4.4Y-2.85
X4.4Y-2.95
X4.4Y-3.05
X4.4Y-3.15
X4.4Y-3.25
X4.4Y-3.35
X4.4Y-3.45
X4.4Y-3.55
X4.4Y-3.65
X4.4Y-3.75
X4.4Y-3.85
X4.4Y-3.95
T0
M30
