G04 #@! TF.GenerationSoftware,KiCad,Pcbnew,5.0.0-fee4fd1~65~ubuntu18.04.1*
G04 #@! TF.CreationDate,2018-07-31T22:57:32+02:00*
G04 #@! TF.ProjectId,raspi3-4xWS2812,7261737069332D34785753323831322E,rev?*
G04 #@! TF.SameCoordinates,Original*
G04 #@! TF.FileFunction,Soldermask,Bot*
G04 #@! TF.FilePolarity,Negative*
%FSLAX46Y46*%
G04 Gerber Fmt 4.6, Leading zero omitted, Abs format (unit mm)*
G04 Created by KiCad (PCBNEW 5.0.0-fee4fd1~65~ubuntu18.04.1) date Tue Jul 31 22:57:32 2018*
%MOMM*%
%LPD*%
G01*
G04 APERTURE LIST*
%ADD10C,0.100000*%
%ADD11C,0.976600*%
%ADD12R,1.101600X1.101600*%
%ADD13O,1.101600X1.101600*%
%ADD14R,1.801600X1.801600*%
%ADD15O,1.801600X1.801600*%
G04 APERTURE END LIST*
D10*
G04 #@! TO.C,R8*
G36*
X104445581Y-58085376D02*
X104469281Y-58088891D01*
X104492523Y-58094713D01*
X104515082Y-58102785D01*
X104536742Y-58113029D01*
X104557292Y-58125347D01*
X104576537Y-58139619D01*
X104594290Y-58155710D01*
X104610381Y-58173463D01*
X104624653Y-58192708D01*
X104636971Y-58213258D01*
X104647215Y-58234918D01*
X104655287Y-58257477D01*
X104661109Y-58280719D01*
X104664624Y-58304419D01*
X104665800Y-58328350D01*
X104665800Y-58816650D01*
X104664624Y-58840581D01*
X104661109Y-58864281D01*
X104655287Y-58887523D01*
X104647215Y-58910082D01*
X104636971Y-58931742D01*
X104624653Y-58952292D01*
X104610381Y-58971537D01*
X104594290Y-58989290D01*
X104576537Y-59005381D01*
X104557292Y-59019653D01*
X104536742Y-59031971D01*
X104515082Y-59042215D01*
X104492523Y-59050287D01*
X104469281Y-59056109D01*
X104445581Y-59059624D01*
X104421650Y-59060800D01*
X103858350Y-59060800D01*
X103834419Y-59059624D01*
X103810719Y-59056109D01*
X103787477Y-59050287D01*
X103764918Y-59042215D01*
X103743258Y-59031971D01*
X103722708Y-59019653D01*
X103703463Y-59005381D01*
X103685710Y-58989290D01*
X103669619Y-58971537D01*
X103655347Y-58952292D01*
X103643029Y-58931742D01*
X103632785Y-58910082D01*
X103624713Y-58887523D01*
X103618891Y-58864281D01*
X103615376Y-58840581D01*
X103614200Y-58816650D01*
X103614200Y-58328350D01*
X103615376Y-58304419D01*
X103618891Y-58280719D01*
X103624713Y-58257477D01*
X103632785Y-58234918D01*
X103643029Y-58213258D01*
X103655347Y-58192708D01*
X103669619Y-58173463D01*
X103685710Y-58155710D01*
X103703463Y-58139619D01*
X103722708Y-58125347D01*
X103743258Y-58113029D01*
X103764918Y-58102785D01*
X103787477Y-58094713D01*
X103810719Y-58088891D01*
X103834419Y-58085376D01*
X103858350Y-58084200D01*
X104421650Y-58084200D01*
X104445581Y-58085376D01*
X104445581Y-58085376D01*
G37*
D11*
X104140000Y-58572500D03*
D10*
G36*
X104445581Y-56510376D02*
X104469281Y-56513891D01*
X104492523Y-56519713D01*
X104515082Y-56527785D01*
X104536742Y-56538029D01*
X104557292Y-56550347D01*
X104576537Y-56564619D01*
X104594290Y-56580710D01*
X104610381Y-56598463D01*
X104624653Y-56617708D01*
X104636971Y-56638258D01*
X104647215Y-56659918D01*
X104655287Y-56682477D01*
X104661109Y-56705719D01*
X104664624Y-56729419D01*
X104665800Y-56753350D01*
X104665800Y-57241650D01*
X104664624Y-57265581D01*
X104661109Y-57289281D01*
X104655287Y-57312523D01*
X104647215Y-57335082D01*
X104636971Y-57356742D01*
X104624653Y-57377292D01*
X104610381Y-57396537D01*
X104594290Y-57414290D01*
X104576537Y-57430381D01*
X104557292Y-57444653D01*
X104536742Y-57456971D01*
X104515082Y-57467215D01*
X104492523Y-57475287D01*
X104469281Y-57481109D01*
X104445581Y-57484624D01*
X104421650Y-57485800D01*
X103858350Y-57485800D01*
X103834419Y-57484624D01*
X103810719Y-57481109D01*
X103787477Y-57475287D01*
X103764918Y-57467215D01*
X103743258Y-57456971D01*
X103722708Y-57444653D01*
X103703463Y-57430381D01*
X103685710Y-57414290D01*
X103669619Y-57396537D01*
X103655347Y-57377292D01*
X103643029Y-57356742D01*
X103632785Y-57335082D01*
X103624713Y-57312523D01*
X103618891Y-57289281D01*
X103615376Y-57265581D01*
X103614200Y-57241650D01*
X103614200Y-56753350D01*
X103615376Y-56729419D01*
X103618891Y-56705719D01*
X103624713Y-56682477D01*
X103632785Y-56659918D01*
X103643029Y-56638258D01*
X103655347Y-56617708D01*
X103669619Y-56598463D01*
X103685710Y-56580710D01*
X103703463Y-56564619D01*
X103722708Y-56550347D01*
X103743258Y-56538029D01*
X103764918Y-56527785D01*
X103787477Y-56519713D01*
X103810719Y-56513891D01*
X103834419Y-56510376D01*
X103858350Y-56509200D01*
X104421650Y-56509200D01*
X104445581Y-56510376D01*
X104445581Y-56510376D01*
G37*
D11*
X104140000Y-56997500D03*
G04 #@! TD*
D10*
G04 #@! TO.C,R5*
G36*
X96825581Y-56510376D02*
X96849281Y-56513891D01*
X96872523Y-56519713D01*
X96895082Y-56527785D01*
X96916742Y-56538029D01*
X96937292Y-56550347D01*
X96956537Y-56564619D01*
X96974290Y-56580710D01*
X96990381Y-56598463D01*
X97004653Y-56617708D01*
X97016971Y-56638258D01*
X97027215Y-56659918D01*
X97035287Y-56682477D01*
X97041109Y-56705719D01*
X97044624Y-56729419D01*
X97045800Y-56753350D01*
X97045800Y-57241650D01*
X97044624Y-57265581D01*
X97041109Y-57289281D01*
X97035287Y-57312523D01*
X97027215Y-57335082D01*
X97016971Y-57356742D01*
X97004653Y-57377292D01*
X96990381Y-57396537D01*
X96974290Y-57414290D01*
X96956537Y-57430381D01*
X96937292Y-57444653D01*
X96916742Y-57456971D01*
X96895082Y-57467215D01*
X96872523Y-57475287D01*
X96849281Y-57481109D01*
X96825581Y-57484624D01*
X96801650Y-57485800D01*
X96238350Y-57485800D01*
X96214419Y-57484624D01*
X96190719Y-57481109D01*
X96167477Y-57475287D01*
X96144918Y-57467215D01*
X96123258Y-57456971D01*
X96102708Y-57444653D01*
X96083463Y-57430381D01*
X96065710Y-57414290D01*
X96049619Y-57396537D01*
X96035347Y-57377292D01*
X96023029Y-57356742D01*
X96012785Y-57335082D01*
X96004713Y-57312523D01*
X95998891Y-57289281D01*
X95995376Y-57265581D01*
X95994200Y-57241650D01*
X95994200Y-56753350D01*
X95995376Y-56729419D01*
X95998891Y-56705719D01*
X96004713Y-56682477D01*
X96012785Y-56659918D01*
X96023029Y-56638258D01*
X96035347Y-56617708D01*
X96049619Y-56598463D01*
X96065710Y-56580710D01*
X96083463Y-56564619D01*
X96102708Y-56550347D01*
X96123258Y-56538029D01*
X96144918Y-56527785D01*
X96167477Y-56519713D01*
X96190719Y-56513891D01*
X96214419Y-56510376D01*
X96238350Y-56509200D01*
X96801650Y-56509200D01*
X96825581Y-56510376D01*
X96825581Y-56510376D01*
G37*
D11*
X96520000Y-56997500D03*
D10*
G36*
X96825581Y-58085376D02*
X96849281Y-58088891D01*
X96872523Y-58094713D01*
X96895082Y-58102785D01*
X96916742Y-58113029D01*
X96937292Y-58125347D01*
X96956537Y-58139619D01*
X96974290Y-58155710D01*
X96990381Y-58173463D01*
X97004653Y-58192708D01*
X97016971Y-58213258D01*
X97027215Y-58234918D01*
X97035287Y-58257477D01*
X97041109Y-58280719D01*
X97044624Y-58304419D01*
X97045800Y-58328350D01*
X97045800Y-58816650D01*
X97044624Y-58840581D01*
X97041109Y-58864281D01*
X97035287Y-58887523D01*
X97027215Y-58910082D01*
X97016971Y-58931742D01*
X97004653Y-58952292D01*
X96990381Y-58971537D01*
X96974290Y-58989290D01*
X96956537Y-59005381D01*
X96937292Y-59019653D01*
X96916742Y-59031971D01*
X96895082Y-59042215D01*
X96872523Y-59050287D01*
X96849281Y-59056109D01*
X96825581Y-59059624D01*
X96801650Y-59060800D01*
X96238350Y-59060800D01*
X96214419Y-59059624D01*
X96190719Y-59056109D01*
X96167477Y-59050287D01*
X96144918Y-59042215D01*
X96123258Y-59031971D01*
X96102708Y-59019653D01*
X96083463Y-59005381D01*
X96065710Y-58989290D01*
X96049619Y-58971537D01*
X96035347Y-58952292D01*
X96023029Y-58931742D01*
X96012785Y-58910082D01*
X96004713Y-58887523D01*
X95998891Y-58864281D01*
X95995376Y-58840581D01*
X95994200Y-58816650D01*
X95994200Y-58328350D01*
X95995376Y-58304419D01*
X95998891Y-58280719D01*
X96004713Y-58257477D01*
X96012785Y-58234918D01*
X96023029Y-58213258D01*
X96035347Y-58192708D01*
X96049619Y-58173463D01*
X96065710Y-58155710D01*
X96083463Y-58139619D01*
X96102708Y-58125347D01*
X96123258Y-58113029D01*
X96144918Y-58102785D01*
X96167477Y-58094713D01*
X96190719Y-58088891D01*
X96214419Y-58085376D01*
X96238350Y-58084200D01*
X96801650Y-58084200D01*
X96825581Y-58085376D01*
X96825581Y-58085376D01*
G37*
D11*
X96520000Y-58572500D03*
G04 #@! TD*
D10*
G04 #@! TO.C,R6*
G36*
X99365581Y-58085376D02*
X99389281Y-58088891D01*
X99412523Y-58094713D01*
X99435082Y-58102785D01*
X99456742Y-58113029D01*
X99477292Y-58125347D01*
X99496537Y-58139619D01*
X99514290Y-58155710D01*
X99530381Y-58173463D01*
X99544653Y-58192708D01*
X99556971Y-58213258D01*
X99567215Y-58234918D01*
X99575287Y-58257477D01*
X99581109Y-58280719D01*
X99584624Y-58304419D01*
X99585800Y-58328350D01*
X99585800Y-58816650D01*
X99584624Y-58840581D01*
X99581109Y-58864281D01*
X99575287Y-58887523D01*
X99567215Y-58910082D01*
X99556971Y-58931742D01*
X99544653Y-58952292D01*
X99530381Y-58971537D01*
X99514290Y-58989290D01*
X99496537Y-59005381D01*
X99477292Y-59019653D01*
X99456742Y-59031971D01*
X99435082Y-59042215D01*
X99412523Y-59050287D01*
X99389281Y-59056109D01*
X99365581Y-59059624D01*
X99341650Y-59060800D01*
X98778350Y-59060800D01*
X98754419Y-59059624D01*
X98730719Y-59056109D01*
X98707477Y-59050287D01*
X98684918Y-59042215D01*
X98663258Y-59031971D01*
X98642708Y-59019653D01*
X98623463Y-59005381D01*
X98605710Y-58989290D01*
X98589619Y-58971537D01*
X98575347Y-58952292D01*
X98563029Y-58931742D01*
X98552785Y-58910082D01*
X98544713Y-58887523D01*
X98538891Y-58864281D01*
X98535376Y-58840581D01*
X98534200Y-58816650D01*
X98534200Y-58328350D01*
X98535376Y-58304419D01*
X98538891Y-58280719D01*
X98544713Y-58257477D01*
X98552785Y-58234918D01*
X98563029Y-58213258D01*
X98575347Y-58192708D01*
X98589619Y-58173463D01*
X98605710Y-58155710D01*
X98623463Y-58139619D01*
X98642708Y-58125347D01*
X98663258Y-58113029D01*
X98684918Y-58102785D01*
X98707477Y-58094713D01*
X98730719Y-58088891D01*
X98754419Y-58085376D01*
X98778350Y-58084200D01*
X99341650Y-58084200D01*
X99365581Y-58085376D01*
X99365581Y-58085376D01*
G37*
D11*
X99060000Y-58572500D03*
D10*
G36*
X99365581Y-56510376D02*
X99389281Y-56513891D01*
X99412523Y-56519713D01*
X99435082Y-56527785D01*
X99456742Y-56538029D01*
X99477292Y-56550347D01*
X99496537Y-56564619D01*
X99514290Y-56580710D01*
X99530381Y-56598463D01*
X99544653Y-56617708D01*
X99556971Y-56638258D01*
X99567215Y-56659918D01*
X99575287Y-56682477D01*
X99581109Y-56705719D01*
X99584624Y-56729419D01*
X99585800Y-56753350D01*
X99585800Y-57241650D01*
X99584624Y-57265581D01*
X99581109Y-57289281D01*
X99575287Y-57312523D01*
X99567215Y-57335082D01*
X99556971Y-57356742D01*
X99544653Y-57377292D01*
X99530381Y-57396537D01*
X99514290Y-57414290D01*
X99496537Y-57430381D01*
X99477292Y-57444653D01*
X99456742Y-57456971D01*
X99435082Y-57467215D01*
X99412523Y-57475287D01*
X99389281Y-57481109D01*
X99365581Y-57484624D01*
X99341650Y-57485800D01*
X98778350Y-57485800D01*
X98754419Y-57484624D01*
X98730719Y-57481109D01*
X98707477Y-57475287D01*
X98684918Y-57467215D01*
X98663258Y-57456971D01*
X98642708Y-57444653D01*
X98623463Y-57430381D01*
X98605710Y-57414290D01*
X98589619Y-57396537D01*
X98575347Y-57377292D01*
X98563029Y-57356742D01*
X98552785Y-57335082D01*
X98544713Y-57312523D01*
X98538891Y-57289281D01*
X98535376Y-57265581D01*
X98534200Y-57241650D01*
X98534200Y-56753350D01*
X98535376Y-56729419D01*
X98538891Y-56705719D01*
X98544713Y-56682477D01*
X98552785Y-56659918D01*
X98563029Y-56638258D01*
X98575347Y-56617708D01*
X98589619Y-56598463D01*
X98605710Y-56580710D01*
X98623463Y-56564619D01*
X98642708Y-56550347D01*
X98663258Y-56538029D01*
X98684918Y-56527785D01*
X98707477Y-56519713D01*
X98730719Y-56513891D01*
X98754419Y-56510376D01*
X98778350Y-56509200D01*
X99341650Y-56509200D01*
X99365581Y-56510376D01*
X99365581Y-56510376D01*
G37*
D11*
X99060000Y-56997500D03*
G04 #@! TD*
D10*
G04 #@! TO.C,R7*
G36*
X101905581Y-56510376D02*
X101929281Y-56513891D01*
X101952523Y-56519713D01*
X101975082Y-56527785D01*
X101996742Y-56538029D01*
X102017292Y-56550347D01*
X102036537Y-56564619D01*
X102054290Y-56580710D01*
X102070381Y-56598463D01*
X102084653Y-56617708D01*
X102096971Y-56638258D01*
X102107215Y-56659918D01*
X102115287Y-56682477D01*
X102121109Y-56705719D01*
X102124624Y-56729419D01*
X102125800Y-56753350D01*
X102125800Y-57241650D01*
X102124624Y-57265581D01*
X102121109Y-57289281D01*
X102115287Y-57312523D01*
X102107215Y-57335082D01*
X102096971Y-57356742D01*
X102084653Y-57377292D01*
X102070381Y-57396537D01*
X102054290Y-57414290D01*
X102036537Y-57430381D01*
X102017292Y-57444653D01*
X101996742Y-57456971D01*
X101975082Y-57467215D01*
X101952523Y-57475287D01*
X101929281Y-57481109D01*
X101905581Y-57484624D01*
X101881650Y-57485800D01*
X101318350Y-57485800D01*
X101294419Y-57484624D01*
X101270719Y-57481109D01*
X101247477Y-57475287D01*
X101224918Y-57467215D01*
X101203258Y-57456971D01*
X101182708Y-57444653D01*
X101163463Y-57430381D01*
X101145710Y-57414290D01*
X101129619Y-57396537D01*
X101115347Y-57377292D01*
X101103029Y-57356742D01*
X101092785Y-57335082D01*
X101084713Y-57312523D01*
X101078891Y-57289281D01*
X101075376Y-57265581D01*
X101074200Y-57241650D01*
X101074200Y-56753350D01*
X101075376Y-56729419D01*
X101078891Y-56705719D01*
X101084713Y-56682477D01*
X101092785Y-56659918D01*
X101103029Y-56638258D01*
X101115347Y-56617708D01*
X101129619Y-56598463D01*
X101145710Y-56580710D01*
X101163463Y-56564619D01*
X101182708Y-56550347D01*
X101203258Y-56538029D01*
X101224918Y-56527785D01*
X101247477Y-56519713D01*
X101270719Y-56513891D01*
X101294419Y-56510376D01*
X101318350Y-56509200D01*
X101881650Y-56509200D01*
X101905581Y-56510376D01*
X101905581Y-56510376D01*
G37*
D11*
X101600000Y-56997500D03*
D10*
G36*
X101905581Y-58085376D02*
X101929281Y-58088891D01*
X101952523Y-58094713D01*
X101975082Y-58102785D01*
X101996742Y-58113029D01*
X102017292Y-58125347D01*
X102036537Y-58139619D01*
X102054290Y-58155710D01*
X102070381Y-58173463D01*
X102084653Y-58192708D01*
X102096971Y-58213258D01*
X102107215Y-58234918D01*
X102115287Y-58257477D01*
X102121109Y-58280719D01*
X102124624Y-58304419D01*
X102125800Y-58328350D01*
X102125800Y-58816650D01*
X102124624Y-58840581D01*
X102121109Y-58864281D01*
X102115287Y-58887523D01*
X102107215Y-58910082D01*
X102096971Y-58931742D01*
X102084653Y-58952292D01*
X102070381Y-58971537D01*
X102054290Y-58989290D01*
X102036537Y-59005381D01*
X102017292Y-59019653D01*
X101996742Y-59031971D01*
X101975082Y-59042215D01*
X101952523Y-59050287D01*
X101929281Y-59056109D01*
X101905581Y-59059624D01*
X101881650Y-59060800D01*
X101318350Y-59060800D01*
X101294419Y-59059624D01*
X101270719Y-59056109D01*
X101247477Y-59050287D01*
X101224918Y-59042215D01*
X101203258Y-59031971D01*
X101182708Y-59019653D01*
X101163463Y-59005381D01*
X101145710Y-58989290D01*
X101129619Y-58971537D01*
X101115347Y-58952292D01*
X101103029Y-58931742D01*
X101092785Y-58910082D01*
X101084713Y-58887523D01*
X101078891Y-58864281D01*
X101075376Y-58840581D01*
X101074200Y-58816650D01*
X101074200Y-58328350D01*
X101075376Y-58304419D01*
X101078891Y-58280719D01*
X101084713Y-58257477D01*
X101092785Y-58234918D01*
X101103029Y-58213258D01*
X101115347Y-58192708D01*
X101129619Y-58173463D01*
X101145710Y-58155710D01*
X101163463Y-58139619D01*
X101182708Y-58125347D01*
X101203258Y-58113029D01*
X101224918Y-58102785D01*
X101247477Y-58094713D01*
X101270719Y-58088891D01*
X101294419Y-58085376D01*
X101318350Y-58084200D01*
X101881650Y-58084200D01*
X101905581Y-58085376D01*
X101905581Y-58085376D01*
G37*
D11*
X101600000Y-58572500D03*
G04 #@! TD*
D10*
G04 #@! TO.C,C10*
G36*
X103429581Y-85390376D02*
X103453281Y-85393891D01*
X103476523Y-85399713D01*
X103499082Y-85407785D01*
X103520742Y-85418029D01*
X103541292Y-85430347D01*
X103560537Y-85444619D01*
X103578290Y-85460710D01*
X103594381Y-85478463D01*
X103608653Y-85497708D01*
X103620971Y-85518258D01*
X103631215Y-85539918D01*
X103639287Y-85562477D01*
X103645109Y-85585719D01*
X103648624Y-85609419D01*
X103649800Y-85633350D01*
X103649800Y-86121650D01*
X103648624Y-86145581D01*
X103645109Y-86169281D01*
X103639287Y-86192523D01*
X103631215Y-86215082D01*
X103620971Y-86236742D01*
X103608653Y-86257292D01*
X103594381Y-86276537D01*
X103578290Y-86294290D01*
X103560537Y-86310381D01*
X103541292Y-86324653D01*
X103520742Y-86336971D01*
X103499082Y-86347215D01*
X103476523Y-86355287D01*
X103453281Y-86361109D01*
X103429581Y-86364624D01*
X103405650Y-86365800D01*
X102842350Y-86365800D01*
X102818419Y-86364624D01*
X102794719Y-86361109D01*
X102771477Y-86355287D01*
X102748918Y-86347215D01*
X102727258Y-86336971D01*
X102706708Y-86324653D01*
X102687463Y-86310381D01*
X102669710Y-86294290D01*
X102653619Y-86276537D01*
X102639347Y-86257292D01*
X102627029Y-86236742D01*
X102616785Y-86215082D01*
X102608713Y-86192523D01*
X102602891Y-86169281D01*
X102599376Y-86145581D01*
X102598200Y-86121650D01*
X102598200Y-85633350D01*
X102599376Y-85609419D01*
X102602891Y-85585719D01*
X102608713Y-85562477D01*
X102616785Y-85539918D01*
X102627029Y-85518258D01*
X102639347Y-85497708D01*
X102653619Y-85478463D01*
X102669710Y-85460710D01*
X102687463Y-85444619D01*
X102706708Y-85430347D01*
X102727258Y-85418029D01*
X102748918Y-85407785D01*
X102771477Y-85399713D01*
X102794719Y-85393891D01*
X102818419Y-85390376D01*
X102842350Y-85389200D01*
X103405650Y-85389200D01*
X103429581Y-85390376D01*
X103429581Y-85390376D01*
G37*
D11*
X103124000Y-85877500D03*
D10*
G36*
X103429581Y-83815376D02*
X103453281Y-83818891D01*
X103476523Y-83824713D01*
X103499082Y-83832785D01*
X103520742Y-83843029D01*
X103541292Y-83855347D01*
X103560537Y-83869619D01*
X103578290Y-83885710D01*
X103594381Y-83903463D01*
X103608653Y-83922708D01*
X103620971Y-83943258D01*
X103631215Y-83964918D01*
X103639287Y-83987477D01*
X103645109Y-84010719D01*
X103648624Y-84034419D01*
X103649800Y-84058350D01*
X103649800Y-84546650D01*
X103648624Y-84570581D01*
X103645109Y-84594281D01*
X103639287Y-84617523D01*
X103631215Y-84640082D01*
X103620971Y-84661742D01*
X103608653Y-84682292D01*
X103594381Y-84701537D01*
X103578290Y-84719290D01*
X103560537Y-84735381D01*
X103541292Y-84749653D01*
X103520742Y-84761971D01*
X103499082Y-84772215D01*
X103476523Y-84780287D01*
X103453281Y-84786109D01*
X103429581Y-84789624D01*
X103405650Y-84790800D01*
X102842350Y-84790800D01*
X102818419Y-84789624D01*
X102794719Y-84786109D01*
X102771477Y-84780287D01*
X102748918Y-84772215D01*
X102727258Y-84761971D01*
X102706708Y-84749653D01*
X102687463Y-84735381D01*
X102669710Y-84719290D01*
X102653619Y-84701537D01*
X102639347Y-84682292D01*
X102627029Y-84661742D01*
X102616785Y-84640082D01*
X102608713Y-84617523D01*
X102602891Y-84594281D01*
X102599376Y-84570581D01*
X102598200Y-84546650D01*
X102598200Y-84058350D01*
X102599376Y-84034419D01*
X102602891Y-84010719D01*
X102608713Y-83987477D01*
X102616785Y-83964918D01*
X102627029Y-83943258D01*
X102639347Y-83922708D01*
X102653619Y-83903463D01*
X102669710Y-83885710D01*
X102687463Y-83869619D01*
X102706708Y-83855347D01*
X102727258Y-83843029D01*
X102748918Y-83832785D01*
X102771477Y-83824713D01*
X102794719Y-83818891D01*
X102818419Y-83815376D01*
X102842350Y-83814200D01*
X103405650Y-83814200D01*
X103429581Y-83815376D01*
X103429581Y-83815376D01*
G37*
D11*
X103124000Y-84302500D03*
G04 #@! TD*
D10*
G04 #@! TO.C,C1*
G36*
X101905581Y-73172876D02*
X101929281Y-73176391D01*
X101952523Y-73182213D01*
X101975082Y-73190285D01*
X101996742Y-73200529D01*
X102017292Y-73212847D01*
X102036537Y-73227119D01*
X102054290Y-73243210D01*
X102070381Y-73260963D01*
X102084653Y-73280208D01*
X102096971Y-73300758D01*
X102107215Y-73322418D01*
X102115287Y-73344977D01*
X102121109Y-73368219D01*
X102124624Y-73391919D01*
X102125800Y-73415850D01*
X102125800Y-73904150D01*
X102124624Y-73928081D01*
X102121109Y-73951781D01*
X102115287Y-73975023D01*
X102107215Y-73997582D01*
X102096971Y-74019242D01*
X102084653Y-74039792D01*
X102070381Y-74059037D01*
X102054290Y-74076790D01*
X102036537Y-74092881D01*
X102017292Y-74107153D01*
X101996742Y-74119471D01*
X101975082Y-74129715D01*
X101952523Y-74137787D01*
X101929281Y-74143609D01*
X101905581Y-74147124D01*
X101881650Y-74148300D01*
X101318350Y-74148300D01*
X101294419Y-74147124D01*
X101270719Y-74143609D01*
X101247477Y-74137787D01*
X101224918Y-74129715D01*
X101203258Y-74119471D01*
X101182708Y-74107153D01*
X101163463Y-74092881D01*
X101145710Y-74076790D01*
X101129619Y-74059037D01*
X101115347Y-74039792D01*
X101103029Y-74019242D01*
X101092785Y-73997582D01*
X101084713Y-73975023D01*
X101078891Y-73951781D01*
X101075376Y-73928081D01*
X101074200Y-73904150D01*
X101074200Y-73415850D01*
X101075376Y-73391919D01*
X101078891Y-73368219D01*
X101084713Y-73344977D01*
X101092785Y-73322418D01*
X101103029Y-73300758D01*
X101115347Y-73280208D01*
X101129619Y-73260963D01*
X101145710Y-73243210D01*
X101163463Y-73227119D01*
X101182708Y-73212847D01*
X101203258Y-73200529D01*
X101224918Y-73190285D01*
X101247477Y-73182213D01*
X101270719Y-73176391D01*
X101294419Y-73172876D01*
X101318350Y-73171700D01*
X101881650Y-73171700D01*
X101905581Y-73172876D01*
X101905581Y-73172876D01*
G37*
D11*
X101600000Y-73660000D03*
D10*
G36*
X101905581Y-74747876D02*
X101929281Y-74751391D01*
X101952523Y-74757213D01*
X101975082Y-74765285D01*
X101996742Y-74775529D01*
X102017292Y-74787847D01*
X102036537Y-74802119D01*
X102054290Y-74818210D01*
X102070381Y-74835963D01*
X102084653Y-74855208D01*
X102096971Y-74875758D01*
X102107215Y-74897418D01*
X102115287Y-74919977D01*
X102121109Y-74943219D01*
X102124624Y-74966919D01*
X102125800Y-74990850D01*
X102125800Y-75479150D01*
X102124624Y-75503081D01*
X102121109Y-75526781D01*
X102115287Y-75550023D01*
X102107215Y-75572582D01*
X102096971Y-75594242D01*
X102084653Y-75614792D01*
X102070381Y-75634037D01*
X102054290Y-75651790D01*
X102036537Y-75667881D01*
X102017292Y-75682153D01*
X101996742Y-75694471D01*
X101975082Y-75704715D01*
X101952523Y-75712787D01*
X101929281Y-75718609D01*
X101905581Y-75722124D01*
X101881650Y-75723300D01*
X101318350Y-75723300D01*
X101294419Y-75722124D01*
X101270719Y-75718609D01*
X101247477Y-75712787D01*
X101224918Y-75704715D01*
X101203258Y-75694471D01*
X101182708Y-75682153D01*
X101163463Y-75667881D01*
X101145710Y-75651790D01*
X101129619Y-75634037D01*
X101115347Y-75614792D01*
X101103029Y-75594242D01*
X101092785Y-75572582D01*
X101084713Y-75550023D01*
X101078891Y-75526781D01*
X101075376Y-75503081D01*
X101074200Y-75479150D01*
X101074200Y-74990850D01*
X101075376Y-74966919D01*
X101078891Y-74943219D01*
X101084713Y-74919977D01*
X101092785Y-74897418D01*
X101103029Y-74875758D01*
X101115347Y-74855208D01*
X101129619Y-74835963D01*
X101145710Y-74818210D01*
X101163463Y-74802119D01*
X101182708Y-74787847D01*
X101203258Y-74775529D01*
X101224918Y-74765285D01*
X101247477Y-74757213D01*
X101270719Y-74751391D01*
X101294419Y-74747876D01*
X101318350Y-74746700D01*
X101881650Y-74746700D01*
X101905581Y-74747876D01*
X101905581Y-74747876D01*
G37*
D11*
X101600000Y-75235000D03*
G04 #@! TD*
D10*
G04 #@! TO.C,C2*
G36*
X100381581Y-74747876D02*
X100405281Y-74751391D01*
X100428523Y-74757213D01*
X100451082Y-74765285D01*
X100472742Y-74775529D01*
X100493292Y-74787847D01*
X100512537Y-74802119D01*
X100530290Y-74818210D01*
X100546381Y-74835963D01*
X100560653Y-74855208D01*
X100572971Y-74875758D01*
X100583215Y-74897418D01*
X100591287Y-74919977D01*
X100597109Y-74943219D01*
X100600624Y-74966919D01*
X100601800Y-74990850D01*
X100601800Y-75479150D01*
X100600624Y-75503081D01*
X100597109Y-75526781D01*
X100591287Y-75550023D01*
X100583215Y-75572582D01*
X100572971Y-75594242D01*
X100560653Y-75614792D01*
X100546381Y-75634037D01*
X100530290Y-75651790D01*
X100512537Y-75667881D01*
X100493292Y-75682153D01*
X100472742Y-75694471D01*
X100451082Y-75704715D01*
X100428523Y-75712787D01*
X100405281Y-75718609D01*
X100381581Y-75722124D01*
X100357650Y-75723300D01*
X99794350Y-75723300D01*
X99770419Y-75722124D01*
X99746719Y-75718609D01*
X99723477Y-75712787D01*
X99700918Y-75704715D01*
X99679258Y-75694471D01*
X99658708Y-75682153D01*
X99639463Y-75667881D01*
X99621710Y-75651790D01*
X99605619Y-75634037D01*
X99591347Y-75614792D01*
X99579029Y-75594242D01*
X99568785Y-75572582D01*
X99560713Y-75550023D01*
X99554891Y-75526781D01*
X99551376Y-75503081D01*
X99550200Y-75479150D01*
X99550200Y-74990850D01*
X99551376Y-74966919D01*
X99554891Y-74943219D01*
X99560713Y-74919977D01*
X99568785Y-74897418D01*
X99579029Y-74875758D01*
X99591347Y-74855208D01*
X99605619Y-74835963D01*
X99621710Y-74818210D01*
X99639463Y-74802119D01*
X99658708Y-74787847D01*
X99679258Y-74775529D01*
X99700918Y-74765285D01*
X99723477Y-74757213D01*
X99746719Y-74751391D01*
X99770419Y-74747876D01*
X99794350Y-74746700D01*
X100357650Y-74746700D01*
X100381581Y-74747876D01*
X100381581Y-74747876D01*
G37*
D11*
X100076000Y-75235000D03*
D10*
G36*
X100381581Y-73172876D02*
X100405281Y-73176391D01*
X100428523Y-73182213D01*
X100451082Y-73190285D01*
X100472742Y-73200529D01*
X100493292Y-73212847D01*
X100512537Y-73227119D01*
X100530290Y-73243210D01*
X100546381Y-73260963D01*
X100560653Y-73280208D01*
X100572971Y-73300758D01*
X100583215Y-73322418D01*
X100591287Y-73344977D01*
X100597109Y-73368219D01*
X100600624Y-73391919D01*
X100601800Y-73415850D01*
X100601800Y-73904150D01*
X100600624Y-73928081D01*
X100597109Y-73951781D01*
X100591287Y-73975023D01*
X100583215Y-73997582D01*
X100572971Y-74019242D01*
X100560653Y-74039792D01*
X100546381Y-74059037D01*
X100530290Y-74076790D01*
X100512537Y-74092881D01*
X100493292Y-74107153D01*
X100472742Y-74119471D01*
X100451082Y-74129715D01*
X100428523Y-74137787D01*
X100405281Y-74143609D01*
X100381581Y-74147124D01*
X100357650Y-74148300D01*
X99794350Y-74148300D01*
X99770419Y-74147124D01*
X99746719Y-74143609D01*
X99723477Y-74137787D01*
X99700918Y-74129715D01*
X99679258Y-74119471D01*
X99658708Y-74107153D01*
X99639463Y-74092881D01*
X99621710Y-74076790D01*
X99605619Y-74059037D01*
X99591347Y-74039792D01*
X99579029Y-74019242D01*
X99568785Y-73997582D01*
X99560713Y-73975023D01*
X99554891Y-73951781D01*
X99551376Y-73928081D01*
X99550200Y-73904150D01*
X99550200Y-73415850D01*
X99551376Y-73391919D01*
X99554891Y-73368219D01*
X99560713Y-73344977D01*
X99568785Y-73322418D01*
X99579029Y-73300758D01*
X99591347Y-73280208D01*
X99605619Y-73260963D01*
X99621710Y-73243210D01*
X99639463Y-73227119D01*
X99658708Y-73212847D01*
X99679258Y-73200529D01*
X99700918Y-73190285D01*
X99723477Y-73182213D01*
X99746719Y-73176391D01*
X99770419Y-73172876D01*
X99794350Y-73171700D01*
X100357650Y-73171700D01*
X100381581Y-73172876D01*
X100381581Y-73172876D01*
G37*
D11*
X100076000Y-73660000D03*
G04 #@! TD*
D10*
G04 #@! TO.C,C3*
G36*
X104953581Y-67737376D02*
X104977281Y-67740891D01*
X105000523Y-67746713D01*
X105023082Y-67754785D01*
X105044742Y-67765029D01*
X105065292Y-67777347D01*
X105084537Y-67791619D01*
X105102290Y-67807710D01*
X105118381Y-67825463D01*
X105132653Y-67844708D01*
X105144971Y-67865258D01*
X105155215Y-67886918D01*
X105163287Y-67909477D01*
X105169109Y-67932719D01*
X105172624Y-67956419D01*
X105173800Y-67980350D01*
X105173800Y-68468650D01*
X105172624Y-68492581D01*
X105169109Y-68516281D01*
X105163287Y-68539523D01*
X105155215Y-68562082D01*
X105144971Y-68583742D01*
X105132653Y-68604292D01*
X105118381Y-68623537D01*
X105102290Y-68641290D01*
X105084537Y-68657381D01*
X105065292Y-68671653D01*
X105044742Y-68683971D01*
X105023082Y-68694215D01*
X105000523Y-68702287D01*
X104977281Y-68708109D01*
X104953581Y-68711624D01*
X104929650Y-68712800D01*
X104366350Y-68712800D01*
X104342419Y-68711624D01*
X104318719Y-68708109D01*
X104295477Y-68702287D01*
X104272918Y-68694215D01*
X104251258Y-68683971D01*
X104230708Y-68671653D01*
X104211463Y-68657381D01*
X104193710Y-68641290D01*
X104177619Y-68623537D01*
X104163347Y-68604292D01*
X104151029Y-68583742D01*
X104140785Y-68562082D01*
X104132713Y-68539523D01*
X104126891Y-68516281D01*
X104123376Y-68492581D01*
X104122200Y-68468650D01*
X104122200Y-67980350D01*
X104123376Y-67956419D01*
X104126891Y-67932719D01*
X104132713Y-67909477D01*
X104140785Y-67886918D01*
X104151029Y-67865258D01*
X104163347Y-67844708D01*
X104177619Y-67825463D01*
X104193710Y-67807710D01*
X104211463Y-67791619D01*
X104230708Y-67777347D01*
X104251258Y-67765029D01*
X104272918Y-67754785D01*
X104295477Y-67746713D01*
X104318719Y-67740891D01*
X104342419Y-67737376D01*
X104366350Y-67736200D01*
X104929650Y-67736200D01*
X104953581Y-67737376D01*
X104953581Y-67737376D01*
G37*
D11*
X104648000Y-68224500D03*
D10*
G36*
X104953581Y-66162376D02*
X104977281Y-66165891D01*
X105000523Y-66171713D01*
X105023082Y-66179785D01*
X105044742Y-66190029D01*
X105065292Y-66202347D01*
X105084537Y-66216619D01*
X105102290Y-66232710D01*
X105118381Y-66250463D01*
X105132653Y-66269708D01*
X105144971Y-66290258D01*
X105155215Y-66311918D01*
X105163287Y-66334477D01*
X105169109Y-66357719D01*
X105172624Y-66381419D01*
X105173800Y-66405350D01*
X105173800Y-66893650D01*
X105172624Y-66917581D01*
X105169109Y-66941281D01*
X105163287Y-66964523D01*
X105155215Y-66987082D01*
X105144971Y-67008742D01*
X105132653Y-67029292D01*
X105118381Y-67048537D01*
X105102290Y-67066290D01*
X105084537Y-67082381D01*
X105065292Y-67096653D01*
X105044742Y-67108971D01*
X105023082Y-67119215D01*
X105000523Y-67127287D01*
X104977281Y-67133109D01*
X104953581Y-67136624D01*
X104929650Y-67137800D01*
X104366350Y-67137800D01*
X104342419Y-67136624D01*
X104318719Y-67133109D01*
X104295477Y-67127287D01*
X104272918Y-67119215D01*
X104251258Y-67108971D01*
X104230708Y-67096653D01*
X104211463Y-67082381D01*
X104193710Y-67066290D01*
X104177619Y-67048537D01*
X104163347Y-67029292D01*
X104151029Y-67008742D01*
X104140785Y-66987082D01*
X104132713Y-66964523D01*
X104126891Y-66941281D01*
X104123376Y-66917581D01*
X104122200Y-66893650D01*
X104122200Y-66405350D01*
X104123376Y-66381419D01*
X104126891Y-66357719D01*
X104132713Y-66334477D01*
X104140785Y-66311918D01*
X104151029Y-66290258D01*
X104163347Y-66269708D01*
X104177619Y-66250463D01*
X104193710Y-66232710D01*
X104211463Y-66216619D01*
X104230708Y-66202347D01*
X104251258Y-66190029D01*
X104272918Y-66179785D01*
X104295477Y-66171713D01*
X104318719Y-66165891D01*
X104342419Y-66162376D01*
X104366350Y-66161200D01*
X104929650Y-66161200D01*
X104953581Y-66162376D01*
X104953581Y-66162376D01*
G37*
D11*
X104648000Y-66649500D03*
G04 #@! TD*
D10*
G04 #@! TO.C,C4*
G36*
X101905581Y-85364876D02*
X101929281Y-85368391D01*
X101952523Y-85374213D01*
X101975082Y-85382285D01*
X101996742Y-85392529D01*
X102017292Y-85404847D01*
X102036537Y-85419119D01*
X102054290Y-85435210D01*
X102070381Y-85452963D01*
X102084653Y-85472208D01*
X102096971Y-85492758D01*
X102107215Y-85514418D01*
X102115287Y-85536977D01*
X102121109Y-85560219D01*
X102124624Y-85583919D01*
X102125800Y-85607850D01*
X102125800Y-86096150D01*
X102124624Y-86120081D01*
X102121109Y-86143781D01*
X102115287Y-86167023D01*
X102107215Y-86189582D01*
X102096971Y-86211242D01*
X102084653Y-86231792D01*
X102070381Y-86251037D01*
X102054290Y-86268790D01*
X102036537Y-86284881D01*
X102017292Y-86299153D01*
X101996742Y-86311471D01*
X101975082Y-86321715D01*
X101952523Y-86329787D01*
X101929281Y-86335609D01*
X101905581Y-86339124D01*
X101881650Y-86340300D01*
X101318350Y-86340300D01*
X101294419Y-86339124D01*
X101270719Y-86335609D01*
X101247477Y-86329787D01*
X101224918Y-86321715D01*
X101203258Y-86311471D01*
X101182708Y-86299153D01*
X101163463Y-86284881D01*
X101145710Y-86268790D01*
X101129619Y-86251037D01*
X101115347Y-86231792D01*
X101103029Y-86211242D01*
X101092785Y-86189582D01*
X101084713Y-86167023D01*
X101078891Y-86143781D01*
X101075376Y-86120081D01*
X101074200Y-86096150D01*
X101074200Y-85607850D01*
X101075376Y-85583919D01*
X101078891Y-85560219D01*
X101084713Y-85536977D01*
X101092785Y-85514418D01*
X101103029Y-85492758D01*
X101115347Y-85472208D01*
X101129619Y-85452963D01*
X101145710Y-85435210D01*
X101163463Y-85419119D01*
X101182708Y-85404847D01*
X101203258Y-85392529D01*
X101224918Y-85382285D01*
X101247477Y-85374213D01*
X101270719Y-85368391D01*
X101294419Y-85364876D01*
X101318350Y-85363700D01*
X101881650Y-85363700D01*
X101905581Y-85364876D01*
X101905581Y-85364876D01*
G37*
D11*
X101600000Y-85852000D03*
D10*
G36*
X101905581Y-83789876D02*
X101929281Y-83793391D01*
X101952523Y-83799213D01*
X101975082Y-83807285D01*
X101996742Y-83817529D01*
X102017292Y-83829847D01*
X102036537Y-83844119D01*
X102054290Y-83860210D01*
X102070381Y-83877963D01*
X102084653Y-83897208D01*
X102096971Y-83917758D01*
X102107215Y-83939418D01*
X102115287Y-83961977D01*
X102121109Y-83985219D01*
X102124624Y-84008919D01*
X102125800Y-84032850D01*
X102125800Y-84521150D01*
X102124624Y-84545081D01*
X102121109Y-84568781D01*
X102115287Y-84592023D01*
X102107215Y-84614582D01*
X102096971Y-84636242D01*
X102084653Y-84656792D01*
X102070381Y-84676037D01*
X102054290Y-84693790D01*
X102036537Y-84709881D01*
X102017292Y-84724153D01*
X101996742Y-84736471D01*
X101975082Y-84746715D01*
X101952523Y-84754787D01*
X101929281Y-84760609D01*
X101905581Y-84764124D01*
X101881650Y-84765300D01*
X101318350Y-84765300D01*
X101294419Y-84764124D01*
X101270719Y-84760609D01*
X101247477Y-84754787D01*
X101224918Y-84746715D01*
X101203258Y-84736471D01*
X101182708Y-84724153D01*
X101163463Y-84709881D01*
X101145710Y-84693790D01*
X101129619Y-84676037D01*
X101115347Y-84656792D01*
X101103029Y-84636242D01*
X101092785Y-84614582D01*
X101084713Y-84592023D01*
X101078891Y-84568781D01*
X101075376Y-84545081D01*
X101074200Y-84521150D01*
X101074200Y-84032850D01*
X101075376Y-84008919D01*
X101078891Y-83985219D01*
X101084713Y-83961977D01*
X101092785Y-83939418D01*
X101103029Y-83917758D01*
X101115347Y-83897208D01*
X101129619Y-83877963D01*
X101145710Y-83860210D01*
X101163463Y-83844119D01*
X101182708Y-83829847D01*
X101203258Y-83817529D01*
X101224918Y-83807285D01*
X101247477Y-83799213D01*
X101270719Y-83793391D01*
X101294419Y-83789876D01*
X101318350Y-83788700D01*
X101881650Y-83788700D01*
X101905581Y-83789876D01*
X101905581Y-83789876D01*
G37*
D11*
X101600000Y-84277000D03*
G04 #@! TD*
D10*
G04 #@! TO.C,C5*
G36*
X103429581Y-82316876D02*
X103453281Y-82320391D01*
X103476523Y-82326213D01*
X103499082Y-82334285D01*
X103520742Y-82344529D01*
X103541292Y-82356847D01*
X103560537Y-82371119D01*
X103578290Y-82387210D01*
X103594381Y-82404963D01*
X103608653Y-82424208D01*
X103620971Y-82444758D01*
X103631215Y-82466418D01*
X103639287Y-82488977D01*
X103645109Y-82512219D01*
X103648624Y-82535919D01*
X103649800Y-82559850D01*
X103649800Y-83048150D01*
X103648624Y-83072081D01*
X103645109Y-83095781D01*
X103639287Y-83119023D01*
X103631215Y-83141582D01*
X103620971Y-83163242D01*
X103608653Y-83183792D01*
X103594381Y-83203037D01*
X103578290Y-83220790D01*
X103560537Y-83236881D01*
X103541292Y-83251153D01*
X103520742Y-83263471D01*
X103499082Y-83273715D01*
X103476523Y-83281787D01*
X103453281Y-83287609D01*
X103429581Y-83291124D01*
X103405650Y-83292300D01*
X102842350Y-83292300D01*
X102818419Y-83291124D01*
X102794719Y-83287609D01*
X102771477Y-83281787D01*
X102748918Y-83273715D01*
X102727258Y-83263471D01*
X102706708Y-83251153D01*
X102687463Y-83236881D01*
X102669710Y-83220790D01*
X102653619Y-83203037D01*
X102639347Y-83183792D01*
X102627029Y-83163242D01*
X102616785Y-83141582D01*
X102608713Y-83119023D01*
X102602891Y-83095781D01*
X102599376Y-83072081D01*
X102598200Y-83048150D01*
X102598200Y-82559850D01*
X102599376Y-82535919D01*
X102602891Y-82512219D01*
X102608713Y-82488977D01*
X102616785Y-82466418D01*
X102627029Y-82444758D01*
X102639347Y-82424208D01*
X102653619Y-82404963D01*
X102669710Y-82387210D01*
X102687463Y-82371119D01*
X102706708Y-82356847D01*
X102727258Y-82344529D01*
X102748918Y-82334285D01*
X102771477Y-82326213D01*
X102794719Y-82320391D01*
X102818419Y-82316876D01*
X102842350Y-82315700D01*
X103405650Y-82315700D01*
X103429581Y-82316876D01*
X103429581Y-82316876D01*
G37*
D11*
X103124000Y-82804000D03*
D10*
G36*
X103429581Y-80741876D02*
X103453281Y-80745391D01*
X103476523Y-80751213D01*
X103499082Y-80759285D01*
X103520742Y-80769529D01*
X103541292Y-80781847D01*
X103560537Y-80796119D01*
X103578290Y-80812210D01*
X103594381Y-80829963D01*
X103608653Y-80849208D01*
X103620971Y-80869758D01*
X103631215Y-80891418D01*
X103639287Y-80913977D01*
X103645109Y-80937219D01*
X103648624Y-80960919D01*
X103649800Y-80984850D01*
X103649800Y-81473150D01*
X103648624Y-81497081D01*
X103645109Y-81520781D01*
X103639287Y-81544023D01*
X103631215Y-81566582D01*
X103620971Y-81588242D01*
X103608653Y-81608792D01*
X103594381Y-81628037D01*
X103578290Y-81645790D01*
X103560537Y-81661881D01*
X103541292Y-81676153D01*
X103520742Y-81688471D01*
X103499082Y-81698715D01*
X103476523Y-81706787D01*
X103453281Y-81712609D01*
X103429581Y-81716124D01*
X103405650Y-81717300D01*
X102842350Y-81717300D01*
X102818419Y-81716124D01*
X102794719Y-81712609D01*
X102771477Y-81706787D01*
X102748918Y-81698715D01*
X102727258Y-81688471D01*
X102706708Y-81676153D01*
X102687463Y-81661881D01*
X102669710Y-81645790D01*
X102653619Y-81628037D01*
X102639347Y-81608792D01*
X102627029Y-81588242D01*
X102616785Y-81566582D01*
X102608713Y-81544023D01*
X102602891Y-81520781D01*
X102599376Y-81497081D01*
X102598200Y-81473150D01*
X102598200Y-80984850D01*
X102599376Y-80960919D01*
X102602891Y-80937219D01*
X102608713Y-80913977D01*
X102616785Y-80891418D01*
X102627029Y-80869758D01*
X102639347Y-80849208D01*
X102653619Y-80829963D01*
X102669710Y-80812210D01*
X102687463Y-80796119D01*
X102706708Y-80781847D01*
X102727258Y-80769529D01*
X102748918Y-80759285D01*
X102771477Y-80751213D01*
X102794719Y-80745391D01*
X102818419Y-80741876D01*
X102842350Y-80740700D01*
X103405650Y-80740700D01*
X103429581Y-80741876D01*
X103429581Y-80741876D01*
G37*
D11*
X103124000Y-81229000D03*
G04 #@! TD*
D10*
G04 #@! TO.C,C6*
G36*
X100381581Y-85364876D02*
X100405281Y-85368391D01*
X100428523Y-85374213D01*
X100451082Y-85382285D01*
X100472742Y-85392529D01*
X100493292Y-85404847D01*
X100512537Y-85419119D01*
X100530290Y-85435210D01*
X100546381Y-85452963D01*
X100560653Y-85472208D01*
X100572971Y-85492758D01*
X100583215Y-85514418D01*
X100591287Y-85536977D01*
X100597109Y-85560219D01*
X100600624Y-85583919D01*
X100601800Y-85607850D01*
X100601800Y-86096150D01*
X100600624Y-86120081D01*
X100597109Y-86143781D01*
X100591287Y-86167023D01*
X100583215Y-86189582D01*
X100572971Y-86211242D01*
X100560653Y-86231792D01*
X100546381Y-86251037D01*
X100530290Y-86268790D01*
X100512537Y-86284881D01*
X100493292Y-86299153D01*
X100472742Y-86311471D01*
X100451082Y-86321715D01*
X100428523Y-86329787D01*
X100405281Y-86335609D01*
X100381581Y-86339124D01*
X100357650Y-86340300D01*
X99794350Y-86340300D01*
X99770419Y-86339124D01*
X99746719Y-86335609D01*
X99723477Y-86329787D01*
X99700918Y-86321715D01*
X99679258Y-86311471D01*
X99658708Y-86299153D01*
X99639463Y-86284881D01*
X99621710Y-86268790D01*
X99605619Y-86251037D01*
X99591347Y-86231792D01*
X99579029Y-86211242D01*
X99568785Y-86189582D01*
X99560713Y-86167023D01*
X99554891Y-86143781D01*
X99551376Y-86120081D01*
X99550200Y-86096150D01*
X99550200Y-85607850D01*
X99551376Y-85583919D01*
X99554891Y-85560219D01*
X99560713Y-85536977D01*
X99568785Y-85514418D01*
X99579029Y-85492758D01*
X99591347Y-85472208D01*
X99605619Y-85452963D01*
X99621710Y-85435210D01*
X99639463Y-85419119D01*
X99658708Y-85404847D01*
X99679258Y-85392529D01*
X99700918Y-85382285D01*
X99723477Y-85374213D01*
X99746719Y-85368391D01*
X99770419Y-85364876D01*
X99794350Y-85363700D01*
X100357650Y-85363700D01*
X100381581Y-85364876D01*
X100381581Y-85364876D01*
G37*
D11*
X100076000Y-85852000D03*
D10*
G36*
X100381581Y-83789876D02*
X100405281Y-83793391D01*
X100428523Y-83799213D01*
X100451082Y-83807285D01*
X100472742Y-83817529D01*
X100493292Y-83829847D01*
X100512537Y-83844119D01*
X100530290Y-83860210D01*
X100546381Y-83877963D01*
X100560653Y-83897208D01*
X100572971Y-83917758D01*
X100583215Y-83939418D01*
X100591287Y-83961977D01*
X100597109Y-83985219D01*
X100600624Y-84008919D01*
X100601800Y-84032850D01*
X100601800Y-84521150D01*
X100600624Y-84545081D01*
X100597109Y-84568781D01*
X100591287Y-84592023D01*
X100583215Y-84614582D01*
X100572971Y-84636242D01*
X100560653Y-84656792D01*
X100546381Y-84676037D01*
X100530290Y-84693790D01*
X100512537Y-84709881D01*
X100493292Y-84724153D01*
X100472742Y-84736471D01*
X100451082Y-84746715D01*
X100428523Y-84754787D01*
X100405281Y-84760609D01*
X100381581Y-84764124D01*
X100357650Y-84765300D01*
X99794350Y-84765300D01*
X99770419Y-84764124D01*
X99746719Y-84760609D01*
X99723477Y-84754787D01*
X99700918Y-84746715D01*
X99679258Y-84736471D01*
X99658708Y-84724153D01*
X99639463Y-84709881D01*
X99621710Y-84693790D01*
X99605619Y-84676037D01*
X99591347Y-84656792D01*
X99579029Y-84636242D01*
X99568785Y-84614582D01*
X99560713Y-84592023D01*
X99554891Y-84568781D01*
X99551376Y-84545081D01*
X99550200Y-84521150D01*
X99550200Y-84032850D01*
X99551376Y-84008919D01*
X99554891Y-83985219D01*
X99560713Y-83961977D01*
X99568785Y-83939418D01*
X99579029Y-83917758D01*
X99591347Y-83897208D01*
X99605619Y-83877963D01*
X99621710Y-83860210D01*
X99639463Y-83844119D01*
X99658708Y-83829847D01*
X99679258Y-83817529D01*
X99700918Y-83807285D01*
X99723477Y-83799213D01*
X99746719Y-83793391D01*
X99770419Y-83789876D01*
X99794350Y-83788700D01*
X100357650Y-83788700D01*
X100381581Y-83789876D01*
X100381581Y-83789876D01*
G37*
D11*
X100076000Y-84277000D03*
G04 #@! TD*
D10*
G04 #@! TO.C,C7*
G36*
X97333581Y-83789876D02*
X97357281Y-83793391D01*
X97380523Y-83799213D01*
X97403082Y-83807285D01*
X97424742Y-83817529D01*
X97445292Y-83829847D01*
X97464537Y-83844119D01*
X97482290Y-83860210D01*
X97498381Y-83877963D01*
X97512653Y-83897208D01*
X97524971Y-83917758D01*
X97535215Y-83939418D01*
X97543287Y-83961977D01*
X97549109Y-83985219D01*
X97552624Y-84008919D01*
X97553800Y-84032850D01*
X97553800Y-84521150D01*
X97552624Y-84545081D01*
X97549109Y-84568781D01*
X97543287Y-84592023D01*
X97535215Y-84614582D01*
X97524971Y-84636242D01*
X97512653Y-84656792D01*
X97498381Y-84676037D01*
X97482290Y-84693790D01*
X97464537Y-84709881D01*
X97445292Y-84724153D01*
X97424742Y-84736471D01*
X97403082Y-84746715D01*
X97380523Y-84754787D01*
X97357281Y-84760609D01*
X97333581Y-84764124D01*
X97309650Y-84765300D01*
X96746350Y-84765300D01*
X96722419Y-84764124D01*
X96698719Y-84760609D01*
X96675477Y-84754787D01*
X96652918Y-84746715D01*
X96631258Y-84736471D01*
X96610708Y-84724153D01*
X96591463Y-84709881D01*
X96573710Y-84693790D01*
X96557619Y-84676037D01*
X96543347Y-84656792D01*
X96531029Y-84636242D01*
X96520785Y-84614582D01*
X96512713Y-84592023D01*
X96506891Y-84568781D01*
X96503376Y-84545081D01*
X96502200Y-84521150D01*
X96502200Y-84032850D01*
X96503376Y-84008919D01*
X96506891Y-83985219D01*
X96512713Y-83961977D01*
X96520785Y-83939418D01*
X96531029Y-83917758D01*
X96543347Y-83897208D01*
X96557619Y-83877963D01*
X96573710Y-83860210D01*
X96591463Y-83844119D01*
X96610708Y-83829847D01*
X96631258Y-83817529D01*
X96652918Y-83807285D01*
X96675477Y-83799213D01*
X96698719Y-83793391D01*
X96722419Y-83789876D01*
X96746350Y-83788700D01*
X97309650Y-83788700D01*
X97333581Y-83789876D01*
X97333581Y-83789876D01*
G37*
D11*
X97028000Y-84277000D03*
D10*
G36*
X97333581Y-85364876D02*
X97357281Y-85368391D01*
X97380523Y-85374213D01*
X97403082Y-85382285D01*
X97424742Y-85392529D01*
X97445292Y-85404847D01*
X97464537Y-85419119D01*
X97482290Y-85435210D01*
X97498381Y-85452963D01*
X97512653Y-85472208D01*
X97524971Y-85492758D01*
X97535215Y-85514418D01*
X97543287Y-85536977D01*
X97549109Y-85560219D01*
X97552624Y-85583919D01*
X97553800Y-85607850D01*
X97553800Y-86096150D01*
X97552624Y-86120081D01*
X97549109Y-86143781D01*
X97543287Y-86167023D01*
X97535215Y-86189582D01*
X97524971Y-86211242D01*
X97512653Y-86231792D01*
X97498381Y-86251037D01*
X97482290Y-86268790D01*
X97464537Y-86284881D01*
X97445292Y-86299153D01*
X97424742Y-86311471D01*
X97403082Y-86321715D01*
X97380523Y-86329787D01*
X97357281Y-86335609D01*
X97333581Y-86339124D01*
X97309650Y-86340300D01*
X96746350Y-86340300D01*
X96722419Y-86339124D01*
X96698719Y-86335609D01*
X96675477Y-86329787D01*
X96652918Y-86321715D01*
X96631258Y-86311471D01*
X96610708Y-86299153D01*
X96591463Y-86284881D01*
X96573710Y-86268790D01*
X96557619Y-86251037D01*
X96543347Y-86231792D01*
X96531029Y-86211242D01*
X96520785Y-86189582D01*
X96512713Y-86167023D01*
X96506891Y-86143781D01*
X96503376Y-86120081D01*
X96502200Y-86096150D01*
X96502200Y-85607850D01*
X96503376Y-85583919D01*
X96506891Y-85560219D01*
X96512713Y-85536977D01*
X96520785Y-85514418D01*
X96531029Y-85492758D01*
X96543347Y-85472208D01*
X96557619Y-85452963D01*
X96573710Y-85435210D01*
X96591463Y-85419119D01*
X96610708Y-85404847D01*
X96631258Y-85392529D01*
X96652918Y-85382285D01*
X96675477Y-85374213D01*
X96698719Y-85368391D01*
X96722419Y-85364876D01*
X96746350Y-85363700D01*
X97309650Y-85363700D01*
X97333581Y-85364876D01*
X97333581Y-85364876D01*
G37*
D11*
X97028000Y-85852000D03*
G04 #@! TD*
D10*
G04 #@! TO.C,C8*
G36*
X101905581Y-80741876D02*
X101929281Y-80745391D01*
X101952523Y-80751213D01*
X101975082Y-80759285D01*
X101996742Y-80769529D01*
X102017292Y-80781847D01*
X102036537Y-80796119D01*
X102054290Y-80812210D01*
X102070381Y-80829963D01*
X102084653Y-80849208D01*
X102096971Y-80869758D01*
X102107215Y-80891418D01*
X102115287Y-80913977D01*
X102121109Y-80937219D01*
X102124624Y-80960919D01*
X102125800Y-80984850D01*
X102125800Y-81473150D01*
X102124624Y-81497081D01*
X102121109Y-81520781D01*
X102115287Y-81544023D01*
X102107215Y-81566582D01*
X102096971Y-81588242D01*
X102084653Y-81608792D01*
X102070381Y-81628037D01*
X102054290Y-81645790D01*
X102036537Y-81661881D01*
X102017292Y-81676153D01*
X101996742Y-81688471D01*
X101975082Y-81698715D01*
X101952523Y-81706787D01*
X101929281Y-81712609D01*
X101905581Y-81716124D01*
X101881650Y-81717300D01*
X101318350Y-81717300D01*
X101294419Y-81716124D01*
X101270719Y-81712609D01*
X101247477Y-81706787D01*
X101224918Y-81698715D01*
X101203258Y-81688471D01*
X101182708Y-81676153D01*
X101163463Y-81661881D01*
X101145710Y-81645790D01*
X101129619Y-81628037D01*
X101115347Y-81608792D01*
X101103029Y-81588242D01*
X101092785Y-81566582D01*
X101084713Y-81544023D01*
X101078891Y-81520781D01*
X101075376Y-81497081D01*
X101074200Y-81473150D01*
X101074200Y-80984850D01*
X101075376Y-80960919D01*
X101078891Y-80937219D01*
X101084713Y-80913977D01*
X101092785Y-80891418D01*
X101103029Y-80869758D01*
X101115347Y-80849208D01*
X101129619Y-80829963D01*
X101145710Y-80812210D01*
X101163463Y-80796119D01*
X101182708Y-80781847D01*
X101203258Y-80769529D01*
X101224918Y-80759285D01*
X101247477Y-80751213D01*
X101270719Y-80745391D01*
X101294419Y-80741876D01*
X101318350Y-80740700D01*
X101881650Y-80740700D01*
X101905581Y-80741876D01*
X101905581Y-80741876D01*
G37*
D11*
X101600000Y-81229000D03*
D10*
G36*
X101905581Y-82316876D02*
X101929281Y-82320391D01*
X101952523Y-82326213D01*
X101975082Y-82334285D01*
X101996742Y-82344529D01*
X102017292Y-82356847D01*
X102036537Y-82371119D01*
X102054290Y-82387210D01*
X102070381Y-82404963D01*
X102084653Y-82424208D01*
X102096971Y-82444758D01*
X102107215Y-82466418D01*
X102115287Y-82488977D01*
X102121109Y-82512219D01*
X102124624Y-82535919D01*
X102125800Y-82559850D01*
X102125800Y-83048150D01*
X102124624Y-83072081D01*
X102121109Y-83095781D01*
X102115287Y-83119023D01*
X102107215Y-83141582D01*
X102096971Y-83163242D01*
X102084653Y-83183792D01*
X102070381Y-83203037D01*
X102054290Y-83220790D01*
X102036537Y-83236881D01*
X102017292Y-83251153D01*
X101996742Y-83263471D01*
X101975082Y-83273715D01*
X101952523Y-83281787D01*
X101929281Y-83287609D01*
X101905581Y-83291124D01*
X101881650Y-83292300D01*
X101318350Y-83292300D01*
X101294419Y-83291124D01*
X101270719Y-83287609D01*
X101247477Y-83281787D01*
X101224918Y-83273715D01*
X101203258Y-83263471D01*
X101182708Y-83251153D01*
X101163463Y-83236881D01*
X101145710Y-83220790D01*
X101129619Y-83203037D01*
X101115347Y-83183792D01*
X101103029Y-83163242D01*
X101092785Y-83141582D01*
X101084713Y-83119023D01*
X101078891Y-83095781D01*
X101075376Y-83072081D01*
X101074200Y-83048150D01*
X101074200Y-82559850D01*
X101075376Y-82535919D01*
X101078891Y-82512219D01*
X101084713Y-82488977D01*
X101092785Y-82466418D01*
X101103029Y-82444758D01*
X101115347Y-82424208D01*
X101129619Y-82404963D01*
X101145710Y-82387210D01*
X101163463Y-82371119D01*
X101182708Y-82356847D01*
X101203258Y-82344529D01*
X101224918Y-82334285D01*
X101247477Y-82326213D01*
X101270719Y-82320391D01*
X101294419Y-82316876D01*
X101318350Y-82315700D01*
X101881650Y-82315700D01*
X101905581Y-82316876D01*
X101905581Y-82316876D01*
G37*
D11*
X101600000Y-82804000D03*
G04 #@! TD*
D10*
G04 #@! TO.C,C9*
G36*
X104953581Y-80741876D02*
X104977281Y-80745391D01*
X105000523Y-80751213D01*
X105023082Y-80759285D01*
X105044742Y-80769529D01*
X105065292Y-80781847D01*
X105084537Y-80796119D01*
X105102290Y-80812210D01*
X105118381Y-80829963D01*
X105132653Y-80849208D01*
X105144971Y-80869758D01*
X105155215Y-80891418D01*
X105163287Y-80913977D01*
X105169109Y-80937219D01*
X105172624Y-80960919D01*
X105173800Y-80984850D01*
X105173800Y-81473150D01*
X105172624Y-81497081D01*
X105169109Y-81520781D01*
X105163287Y-81544023D01*
X105155215Y-81566582D01*
X105144971Y-81588242D01*
X105132653Y-81608792D01*
X105118381Y-81628037D01*
X105102290Y-81645790D01*
X105084537Y-81661881D01*
X105065292Y-81676153D01*
X105044742Y-81688471D01*
X105023082Y-81698715D01*
X105000523Y-81706787D01*
X104977281Y-81712609D01*
X104953581Y-81716124D01*
X104929650Y-81717300D01*
X104366350Y-81717300D01*
X104342419Y-81716124D01*
X104318719Y-81712609D01*
X104295477Y-81706787D01*
X104272918Y-81698715D01*
X104251258Y-81688471D01*
X104230708Y-81676153D01*
X104211463Y-81661881D01*
X104193710Y-81645790D01*
X104177619Y-81628037D01*
X104163347Y-81608792D01*
X104151029Y-81588242D01*
X104140785Y-81566582D01*
X104132713Y-81544023D01*
X104126891Y-81520781D01*
X104123376Y-81497081D01*
X104122200Y-81473150D01*
X104122200Y-80984850D01*
X104123376Y-80960919D01*
X104126891Y-80937219D01*
X104132713Y-80913977D01*
X104140785Y-80891418D01*
X104151029Y-80869758D01*
X104163347Y-80849208D01*
X104177619Y-80829963D01*
X104193710Y-80812210D01*
X104211463Y-80796119D01*
X104230708Y-80781847D01*
X104251258Y-80769529D01*
X104272918Y-80759285D01*
X104295477Y-80751213D01*
X104318719Y-80745391D01*
X104342419Y-80741876D01*
X104366350Y-80740700D01*
X104929650Y-80740700D01*
X104953581Y-80741876D01*
X104953581Y-80741876D01*
G37*
D11*
X104648000Y-81229000D03*
D10*
G36*
X104953581Y-82316876D02*
X104977281Y-82320391D01*
X105000523Y-82326213D01*
X105023082Y-82334285D01*
X105044742Y-82344529D01*
X105065292Y-82356847D01*
X105084537Y-82371119D01*
X105102290Y-82387210D01*
X105118381Y-82404963D01*
X105132653Y-82424208D01*
X105144971Y-82444758D01*
X105155215Y-82466418D01*
X105163287Y-82488977D01*
X105169109Y-82512219D01*
X105172624Y-82535919D01*
X105173800Y-82559850D01*
X105173800Y-83048150D01*
X105172624Y-83072081D01*
X105169109Y-83095781D01*
X105163287Y-83119023D01*
X105155215Y-83141582D01*
X105144971Y-83163242D01*
X105132653Y-83183792D01*
X105118381Y-83203037D01*
X105102290Y-83220790D01*
X105084537Y-83236881D01*
X105065292Y-83251153D01*
X105044742Y-83263471D01*
X105023082Y-83273715D01*
X105000523Y-83281787D01*
X104977281Y-83287609D01*
X104953581Y-83291124D01*
X104929650Y-83292300D01*
X104366350Y-83292300D01*
X104342419Y-83291124D01*
X104318719Y-83287609D01*
X104295477Y-83281787D01*
X104272918Y-83273715D01*
X104251258Y-83263471D01*
X104230708Y-83251153D01*
X104211463Y-83236881D01*
X104193710Y-83220790D01*
X104177619Y-83203037D01*
X104163347Y-83183792D01*
X104151029Y-83163242D01*
X104140785Y-83141582D01*
X104132713Y-83119023D01*
X104126891Y-83095781D01*
X104123376Y-83072081D01*
X104122200Y-83048150D01*
X104122200Y-82559850D01*
X104123376Y-82535919D01*
X104126891Y-82512219D01*
X104132713Y-82488977D01*
X104140785Y-82466418D01*
X104151029Y-82444758D01*
X104163347Y-82424208D01*
X104177619Y-82404963D01*
X104193710Y-82387210D01*
X104211463Y-82371119D01*
X104230708Y-82356847D01*
X104251258Y-82344529D01*
X104272918Y-82334285D01*
X104295477Y-82326213D01*
X104318719Y-82320391D01*
X104342419Y-82316876D01*
X104366350Y-82315700D01*
X104929650Y-82315700D01*
X104953581Y-82316876D01*
X104953581Y-82316876D01*
G37*
D11*
X104648000Y-82804000D03*
G04 #@! TD*
D12*
G04 #@! TO.C,J1*
X100965000Y-93980000D03*
D13*
X100965000Y-92710000D03*
X102235000Y-93980000D03*
X102235000Y-92710000D03*
X103505000Y-93980000D03*
X103505000Y-92710000D03*
X104775000Y-93980000D03*
X104775000Y-92710000D03*
X106045000Y-93980000D03*
X106045000Y-92710000D03*
G04 #@! TD*
D14*
G04 #@! TO.C,J4*
X96520000Y-54610000D03*
D15*
X96520000Y-52070000D03*
X99060000Y-54610000D03*
X99060000Y-52070000D03*
X101600000Y-54610000D03*
X101600000Y-52070000D03*
X104140000Y-54610000D03*
X104140000Y-52070000D03*
G04 #@! TD*
D14*
G04 #@! TO.C,J2*
X109220000Y-52070000D03*
D15*
X111760000Y-52070000D03*
X109220000Y-54610000D03*
X111760000Y-54610000D03*
X109220000Y-57150000D03*
X111760000Y-57150000D03*
X109220000Y-59690000D03*
X111760000Y-59690000D03*
X109220000Y-62230000D03*
X111760000Y-62230000D03*
X109220000Y-64770000D03*
X111760000Y-64770000D03*
X109220000Y-67310000D03*
X111760000Y-67310000D03*
X109220000Y-69850000D03*
X111760000Y-69850000D03*
X109220000Y-72390000D03*
X111760000Y-72390000D03*
X109220000Y-74930000D03*
X111760000Y-74930000D03*
X109220000Y-77470000D03*
X111760000Y-77470000D03*
X109220000Y-80010000D03*
X111760000Y-80010000D03*
X109220000Y-82550000D03*
X111760000Y-82550000D03*
X109220000Y-85090000D03*
X111760000Y-85090000D03*
X109220000Y-87630000D03*
X111760000Y-87630000D03*
X109220000Y-90170000D03*
X111760000Y-90170000D03*
X109220000Y-92710000D03*
X111760000Y-92710000D03*
X109220000Y-95250000D03*
X111760000Y-95250000D03*
X109220000Y-97790000D03*
X111760000Y-97790000D03*
X109220000Y-100330000D03*
X111760000Y-100330000D03*
G04 #@! TD*
D10*
G04 #@! TO.C,R3*
G36*
X97079581Y-93010376D02*
X97103281Y-93013891D01*
X97126523Y-93019713D01*
X97149082Y-93027785D01*
X97170742Y-93038029D01*
X97191292Y-93050347D01*
X97210537Y-93064619D01*
X97228290Y-93080710D01*
X97244381Y-93098463D01*
X97258653Y-93117708D01*
X97270971Y-93138258D01*
X97281215Y-93159918D01*
X97289287Y-93182477D01*
X97295109Y-93205719D01*
X97298624Y-93229419D01*
X97299800Y-93253350D01*
X97299800Y-93741650D01*
X97298624Y-93765581D01*
X97295109Y-93789281D01*
X97289287Y-93812523D01*
X97281215Y-93835082D01*
X97270971Y-93856742D01*
X97258653Y-93877292D01*
X97244381Y-93896537D01*
X97228290Y-93914290D01*
X97210537Y-93930381D01*
X97191292Y-93944653D01*
X97170742Y-93956971D01*
X97149082Y-93967215D01*
X97126523Y-93975287D01*
X97103281Y-93981109D01*
X97079581Y-93984624D01*
X97055650Y-93985800D01*
X96492350Y-93985800D01*
X96468419Y-93984624D01*
X96444719Y-93981109D01*
X96421477Y-93975287D01*
X96398918Y-93967215D01*
X96377258Y-93956971D01*
X96356708Y-93944653D01*
X96337463Y-93930381D01*
X96319710Y-93914290D01*
X96303619Y-93896537D01*
X96289347Y-93877292D01*
X96277029Y-93856742D01*
X96266785Y-93835082D01*
X96258713Y-93812523D01*
X96252891Y-93789281D01*
X96249376Y-93765581D01*
X96248200Y-93741650D01*
X96248200Y-93253350D01*
X96249376Y-93229419D01*
X96252891Y-93205719D01*
X96258713Y-93182477D01*
X96266785Y-93159918D01*
X96277029Y-93138258D01*
X96289347Y-93117708D01*
X96303619Y-93098463D01*
X96319710Y-93080710D01*
X96337463Y-93064619D01*
X96356708Y-93050347D01*
X96377258Y-93038029D01*
X96398918Y-93027785D01*
X96421477Y-93019713D01*
X96444719Y-93013891D01*
X96468419Y-93010376D01*
X96492350Y-93009200D01*
X97055650Y-93009200D01*
X97079581Y-93010376D01*
X97079581Y-93010376D01*
G37*
D11*
X96774000Y-93497500D03*
D10*
G36*
X97079581Y-91435376D02*
X97103281Y-91438891D01*
X97126523Y-91444713D01*
X97149082Y-91452785D01*
X97170742Y-91463029D01*
X97191292Y-91475347D01*
X97210537Y-91489619D01*
X97228290Y-91505710D01*
X97244381Y-91523463D01*
X97258653Y-91542708D01*
X97270971Y-91563258D01*
X97281215Y-91584918D01*
X97289287Y-91607477D01*
X97295109Y-91630719D01*
X97298624Y-91654419D01*
X97299800Y-91678350D01*
X97299800Y-92166650D01*
X97298624Y-92190581D01*
X97295109Y-92214281D01*
X97289287Y-92237523D01*
X97281215Y-92260082D01*
X97270971Y-92281742D01*
X97258653Y-92302292D01*
X97244381Y-92321537D01*
X97228290Y-92339290D01*
X97210537Y-92355381D01*
X97191292Y-92369653D01*
X97170742Y-92381971D01*
X97149082Y-92392215D01*
X97126523Y-92400287D01*
X97103281Y-92406109D01*
X97079581Y-92409624D01*
X97055650Y-92410800D01*
X96492350Y-92410800D01*
X96468419Y-92409624D01*
X96444719Y-92406109D01*
X96421477Y-92400287D01*
X96398918Y-92392215D01*
X96377258Y-92381971D01*
X96356708Y-92369653D01*
X96337463Y-92355381D01*
X96319710Y-92339290D01*
X96303619Y-92321537D01*
X96289347Y-92302292D01*
X96277029Y-92281742D01*
X96266785Y-92260082D01*
X96258713Y-92237523D01*
X96252891Y-92214281D01*
X96249376Y-92190581D01*
X96248200Y-92166650D01*
X96248200Y-91678350D01*
X96249376Y-91654419D01*
X96252891Y-91630719D01*
X96258713Y-91607477D01*
X96266785Y-91584918D01*
X96277029Y-91563258D01*
X96289347Y-91542708D01*
X96303619Y-91523463D01*
X96319710Y-91505710D01*
X96337463Y-91489619D01*
X96356708Y-91475347D01*
X96377258Y-91463029D01*
X96398918Y-91452785D01*
X96421477Y-91444713D01*
X96444719Y-91438891D01*
X96468419Y-91435376D01*
X96492350Y-91434200D01*
X97055650Y-91434200D01*
X97079581Y-91435376D01*
X97079581Y-91435376D01*
G37*
D11*
X96774000Y-91922500D03*
G04 #@! TD*
D10*
G04 #@! TO.C,R4*
G36*
X98857581Y-91435376D02*
X98881281Y-91438891D01*
X98904523Y-91444713D01*
X98927082Y-91452785D01*
X98948742Y-91463029D01*
X98969292Y-91475347D01*
X98988537Y-91489619D01*
X99006290Y-91505710D01*
X99022381Y-91523463D01*
X99036653Y-91542708D01*
X99048971Y-91563258D01*
X99059215Y-91584918D01*
X99067287Y-91607477D01*
X99073109Y-91630719D01*
X99076624Y-91654419D01*
X99077800Y-91678350D01*
X99077800Y-92166650D01*
X99076624Y-92190581D01*
X99073109Y-92214281D01*
X99067287Y-92237523D01*
X99059215Y-92260082D01*
X99048971Y-92281742D01*
X99036653Y-92302292D01*
X99022381Y-92321537D01*
X99006290Y-92339290D01*
X98988537Y-92355381D01*
X98969292Y-92369653D01*
X98948742Y-92381971D01*
X98927082Y-92392215D01*
X98904523Y-92400287D01*
X98881281Y-92406109D01*
X98857581Y-92409624D01*
X98833650Y-92410800D01*
X98270350Y-92410800D01*
X98246419Y-92409624D01*
X98222719Y-92406109D01*
X98199477Y-92400287D01*
X98176918Y-92392215D01*
X98155258Y-92381971D01*
X98134708Y-92369653D01*
X98115463Y-92355381D01*
X98097710Y-92339290D01*
X98081619Y-92321537D01*
X98067347Y-92302292D01*
X98055029Y-92281742D01*
X98044785Y-92260082D01*
X98036713Y-92237523D01*
X98030891Y-92214281D01*
X98027376Y-92190581D01*
X98026200Y-92166650D01*
X98026200Y-91678350D01*
X98027376Y-91654419D01*
X98030891Y-91630719D01*
X98036713Y-91607477D01*
X98044785Y-91584918D01*
X98055029Y-91563258D01*
X98067347Y-91542708D01*
X98081619Y-91523463D01*
X98097710Y-91505710D01*
X98115463Y-91489619D01*
X98134708Y-91475347D01*
X98155258Y-91463029D01*
X98176918Y-91452785D01*
X98199477Y-91444713D01*
X98222719Y-91438891D01*
X98246419Y-91435376D01*
X98270350Y-91434200D01*
X98833650Y-91434200D01*
X98857581Y-91435376D01*
X98857581Y-91435376D01*
G37*
D11*
X98552000Y-91922500D03*
D10*
G36*
X98857581Y-93010376D02*
X98881281Y-93013891D01*
X98904523Y-93019713D01*
X98927082Y-93027785D01*
X98948742Y-93038029D01*
X98969292Y-93050347D01*
X98988537Y-93064619D01*
X99006290Y-93080710D01*
X99022381Y-93098463D01*
X99036653Y-93117708D01*
X99048971Y-93138258D01*
X99059215Y-93159918D01*
X99067287Y-93182477D01*
X99073109Y-93205719D01*
X99076624Y-93229419D01*
X99077800Y-93253350D01*
X99077800Y-93741650D01*
X99076624Y-93765581D01*
X99073109Y-93789281D01*
X99067287Y-93812523D01*
X99059215Y-93835082D01*
X99048971Y-93856742D01*
X99036653Y-93877292D01*
X99022381Y-93896537D01*
X99006290Y-93914290D01*
X98988537Y-93930381D01*
X98969292Y-93944653D01*
X98948742Y-93956971D01*
X98927082Y-93967215D01*
X98904523Y-93975287D01*
X98881281Y-93981109D01*
X98857581Y-93984624D01*
X98833650Y-93985800D01*
X98270350Y-93985800D01*
X98246419Y-93984624D01*
X98222719Y-93981109D01*
X98199477Y-93975287D01*
X98176918Y-93967215D01*
X98155258Y-93956971D01*
X98134708Y-93944653D01*
X98115463Y-93930381D01*
X98097710Y-93914290D01*
X98081619Y-93896537D01*
X98067347Y-93877292D01*
X98055029Y-93856742D01*
X98044785Y-93835082D01*
X98036713Y-93812523D01*
X98030891Y-93789281D01*
X98027376Y-93765581D01*
X98026200Y-93741650D01*
X98026200Y-93253350D01*
X98027376Y-93229419D01*
X98030891Y-93205719D01*
X98036713Y-93182477D01*
X98044785Y-93159918D01*
X98055029Y-93138258D01*
X98067347Y-93117708D01*
X98081619Y-93098463D01*
X98097710Y-93080710D01*
X98115463Y-93064619D01*
X98134708Y-93050347D01*
X98155258Y-93038029D01*
X98176918Y-93027785D01*
X98199477Y-93019713D01*
X98222719Y-93013891D01*
X98246419Y-93010376D01*
X98270350Y-93009200D01*
X98833650Y-93009200D01*
X98857581Y-93010376D01*
X98857581Y-93010376D01*
G37*
D11*
X98552000Y-93497500D03*
G04 #@! TD*
D10*
G04 #@! TO.C,R1*
G36*
X104953581Y-85364876D02*
X104977281Y-85368391D01*
X105000523Y-85374213D01*
X105023082Y-85382285D01*
X105044742Y-85392529D01*
X105065292Y-85404847D01*
X105084537Y-85419119D01*
X105102290Y-85435210D01*
X105118381Y-85452963D01*
X105132653Y-85472208D01*
X105144971Y-85492758D01*
X105155215Y-85514418D01*
X105163287Y-85536977D01*
X105169109Y-85560219D01*
X105172624Y-85583919D01*
X105173800Y-85607850D01*
X105173800Y-86096150D01*
X105172624Y-86120081D01*
X105169109Y-86143781D01*
X105163287Y-86167023D01*
X105155215Y-86189582D01*
X105144971Y-86211242D01*
X105132653Y-86231792D01*
X105118381Y-86251037D01*
X105102290Y-86268790D01*
X105084537Y-86284881D01*
X105065292Y-86299153D01*
X105044742Y-86311471D01*
X105023082Y-86321715D01*
X105000523Y-86329787D01*
X104977281Y-86335609D01*
X104953581Y-86339124D01*
X104929650Y-86340300D01*
X104366350Y-86340300D01*
X104342419Y-86339124D01*
X104318719Y-86335609D01*
X104295477Y-86329787D01*
X104272918Y-86321715D01*
X104251258Y-86311471D01*
X104230708Y-86299153D01*
X104211463Y-86284881D01*
X104193710Y-86268790D01*
X104177619Y-86251037D01*
X104163347Y-86231792D01*
X104151029Y-86211242D01*
X104140785Y-86189582D01*
X104132713Y-86167023D01*
X104126891Y-86143781D01*
X104123376Y-86120081D01*
X104122200Y-86096150D01*
X104122200Y-85607850D01*
X104123376Y-85583919D01*
X104126891Y-85560219D01*
X104132713Y-85536977D01*
X104140785Y-85514418D01*
X104151029Y-85492758D01*
X104163347Y-85472208D01*
X104177619Y-85452963D01*
X104193710Y-85435210D01*
X104211463Y-85419119D01*
X104230708Y-85404847D01*
X104251258Y-85392529D01*
X104272918Y-85382285D01*
X104295477Y-85374213D01*
X104318719Y-85368391D01*
X104342419Y-85364876D01*
X104366350Y-85363700D01*
X104929650Y-85363700D01*
X104953581Y-85364876D01*
X104953581Y-85364876D01*
G37*
D11*
X104648000Y-85852000D03*
D10*
G36*
X104953581Y-83789876D02*
X104977281Y-83793391D01*
X105000523Y-83799213D01*
X105023082Y-83807285D01*
X105044742Y-83817529D01*
X105065292Y-83829847D01*
X105084537Y-83844119D01*
X105102290Y-83860210D01*
X105118381Y-83877963D01*
X105132653Y-83897208D01*
X105144971Y-83917758D01*
X105155215Y-83939418D01*
X105163287Y-83961977D01*
X105169109Y-83985219D01*
X105172624Y-84008919D01*
X105173800Y-84032850D01*
X105173800Y-84521150D01*
X105172624Y-84545081D01*
X105169109Y-84568781D01*
X105163287Y-84592023D01*
X105155215Y-84614582D01*
X105144971Y-84636242D01*
X105132653Y-84656792D01*
X105118381Y-84676037D01*
X105102290Y-84693790D01*
X105084537Y-84709881D01*
X105065292Y-84724153D01*
X105044742Y-84736471D01*
X105023082Y-84746715D01*
X105000523Y-84754787D01*
X104977281Y-84760609D01*
X104953581Y-84764124D01*
X104929650Y-84765300D01*
X104366350Y-84765300D01*
X104342419Y-84764124D01*
X104318719Y-84760609D01*
X104295477Y-84754787D01*
X104272918Y-84746715D01*
X104251258Y-84736471D01*
X104230708Y-84724153D01*
X104211463Y-84709881D01*
X104193710Y-84693790D01*
X104177619Y-84676037D01*
X104163347Y-84656792D01*
X104151029Y-84636242D01*
X104140785Y-84614582D01*
X104132713Y-84592023D01*
X104126891Y-84568781D01*
X104123376Y-84545081D01*
X104122200Y-84521150D01*
X104122200Y-84032850D01*
X104123376Y-84008919D01*
X104126891Y-83985219D01*
X104132713Y-83961977D01*
X104140785Y-83939418D01*
X104151029Y-83917758D01*
X104163347Y-83897208D01*
X104177619Y-83877963D01*
X104193710Y-83860210D01*
X104211463Y-83844119D01*
X104230708Y-83829847D01*
X104251258Y-83817529D01*
X104272918Y-83807285D01*
X104295477Y-83799213D01*
X104318719Y-83793391D01*
X104342419Y-83789876D01*
X104366350Y-83788700D01*
X104929650Y-83788700D01*
X104953581Y-83789876D01*
X104953581Y-83789876D01*
G37*
D11*
X104648000Y-84277000D03*
G04 #@! TD*
D10*
G04 #@! TO.C,R2*
G36*
X98857581Y-83789876D02*
X98881281Y-83793391D01*
X98904523Y-83799213D01*
X98927082Y-83807285D01*
X98948742Y-83817529D01*
X98969292Y-83829847D01*
X98988537Y-83844119D01*
X99006290Y-83860210D01*
X99022381Y-83877963D01*
X99036653Y-83897208D01*
X99048971Y-83917758D01*
X99059215Y-83939418D01*
X99067287Y-83961977D01*
X99073109Y-83985219D01*
X99076624Y-84008919D01*
X99077800Y-84032850D01*
X99077800Y-84521150D01*
X99076624Y-84545081D01*
X99073109Y-84568781D01*
X99067287Y-84592023D01*
X99059215Y-84614582D01*
X99048971Y-84636242D01*
X99036653Y-84656792D01*
X99022381Y-84676037D01*
X99006290Y-84693790D01*
X98988537Y-84709881D01*
X98969292Y-84724153D01*
X98948742Y-84736471D01*
X98927082Y-84746715D01*
X98904523Y-84754787D01*
X98881281Y-84760609D01*
X98857581Y-84764124D01*
X98833650Y-84765300D01*
X98270350Y-84765300D01*
X98246419Y-84764124D01*
X98222719Y-84760609D01*
X98199477Y-84754787D01*
X98176918Y-84746715D01*
X98155258Y-84736471D01*
X98134708Y-84724153D01*
X98115463Y-84709881D01*
X98097710Y-84693790D01*
X98081619Y-84676037D01*
X98067347Y-84656792D01*
X98055029Y-84636242D01*
X98044785Y-84614582D01*
X98036713Y-84592023D01*
X98030891Y-84568781D01*
X98027376Y-84545081D01*
X98026200Y-84521150D01*
X98026200Y-84032850D01*
X98027376Y-84008919D01*
X98030891Y-83985219D01*
X98036713Y-83961977D01*
X98044785Y-83939418D01*
X98055029Y-83917758D01*
X98067347Y-83897208D01*
X98081619Y-83877963D01*
X98097710Y-83860210D01*
X98115463Y-83844119D01*
X98134708Y-83829847D01*
X98155258Y-83817529D01*
X98176918Y-83807285D01*
X98199477Y-83799213D01*
X98222719Y-83793391D01*
X98246419Y-83789876D01*
X98270350Y-83788700D01*
X98833650Y-83788700D01*
X98857581Y-83789876D01*
X98857581Y-83789876D01*
G37*
D11*
X98552000Y-84277000D03*
D10*
G36*
X98857581Y-85364876D02*
X98881281Y-85368391D01*
X98904523Y-85374213D01*
X98927082Y-85382285D01*
X98948742Y-85392529D01*
X98969292Y-85404847D01*
X98988537Y-85419119D01*
X99006290Y-85435210D01*
X99022381Y-85452963D01*
X99036653Y-85472208D01*
X99048971Y-85492758D01*
X99059215Y-85514418D01*
X99067287Y-85536977D01*
X99073109Y-85560219D01*
X99076624Y-85583919D01*
X99077800Y-85607850D01*
X99077800Y-86096150D01*
X99076624Y-86120081D01*
X99073109Y-86143781D01*
X99067287Y-86167023D01*
X99059215Y-86189582D01*
X99048971Y-86211242D01*
X99036653Y-86231792D01*
X99022381Y-86251037D01*
X99006290Y-86268790D01*
X98988537Y-86284881D01*
X98969292Y-86299153D01*
X98948742Y-86311471D01*
X98927082Y-86321715D01*
X98904523Y-86329787D01*
X98881281Y-86335609D01*
X98857581Y-86339124D01*
X98833650Y-86340300D01*
X98270350Y-86340300D01*
X98246419Y-86339124D01*
X98222719Y-86335609D01*
X98199477Y-86329787D01*
X98176918Y-86321715D01*
X98155258Y-86311471D01*
X98134708Y-86299153D01*
X98115463Y-86284881D01*
X98097710Y-86268790D01*
X98081619Y-86251037D01*
X98067347Y-86231792D01*
X98055029Y-86211242D01*
X98044785Y-86189582D01*
X98036713Y-86167023D01*
X98030891Y-86143781D01*
X98027376Y-86120081D01*
X98026200Y-86096150D01*
X98026200Y-85607850D01*
X98027376Y-85583919D01*
X98030891Y-85560219D01*
X98036713Y-85536977D01*
X98044785Y-85514418D01*
X98055029Y-85492758D01*
X98067347Y-85472208D01*
X98081619Y-85452963D01*
X98097710Y-85435210D01*
X98115463Y-85419119D01*
X98134708Y-85404847D01*
X98155258Y-85392529D01*
X98176918Y-85382285D01*
X98199477Y-85374213D01*
X98222719Y-85368391D01*
X98246419Y-85364876D01*
X98270350Y-85363700D01*
X98833650Y-85363700D01*
X98857581Y-85364876D01*
X98857581Y-85364876D01*
G37*
D11*
X98552000Y-85852000D03*
G04 #@! TD*
M02*
