G04 #@! TF.GenerationSoftware,KiCad,Pcbnew,5.0.0-rc2-unknown-dd436b6~65~ubuntu18.04.1*
G04 #@! TF.CreationDate,2018-06-27T22:19:06+02:00*
G04 #@! TF.ProjectId,raspi3-4xWS2812-lvds,7261737069332D34785753323831322D,rev?*
G04 #@! TF.SameCoordinates,Original*
G04 #@! TF.FileFunction,Legend,Bot*
G04 #@! TF.FilePolarity,Positive*
%FSLAX46Y46*%
G04 Gerber Fmt 4.6, Leading zero omitted, Abs format (unit mm)*
G04 Created by KiCad (PCBNEW 5.0.0-rc2-unknown-dd436b6~65~ubuntu18.04.1) date Wed Jun 27 22:19:06 2018*
%MOMM*%
%LPD*%
G01*
G04 APERTURE LIST*
%ADD10C,0.140000*%
%ADD11C,0.120000*%
%ADD12C,0.150000*%
G04 APERTURE END LIST*
D10*
X106959000Y-98012142D02*
X106959000Y-98612142D01*
X107173285Y-97669285D02*
X107387571Y-98312142D01*
X106830428Y-98312142D01*
X106573285Y-98612142D02*
X106101857Y-98012142D01*
X106573285Y-98012142D02*
X106101857Y-98612142D01*
X104644714Y-98612142D02*
X105073285Y-98612142D01*
X105073285Y-97712142D01*
X104473285Y-97712142D02*
X104173285Y-98612142D01*
X103873285Y-97712142D01*
X103573285Y-98612142D02*
X103573285Y-97712142D01*
X103359000Y-97712142D01*
X103230428Y-97755000D01*
X103144714Y-97840714D01*
X103101857Y-97926428D01*
X103059000Y-98097857D01*
X103059000Y-98226428D01*
X103101857Y-98397857D01*
X103144714Y-98483571D01*
X103230428Y-98569285D01*
X103359000Y-98612142D01*
X103573285Y-98612142D01*
X102716142Y-98569285D02*
X102587571Y-98612142D01*
X102373285Y-98612142D01*
X102287571Y-98569285D01*
X102244714Y-98526428D01*
X102201857Y-98440714D01*
X102201857Y-98355000D01*
X102244714Y-98269285D01*
X102287571Y-98226428D01*
X102373285Y-98183571D01*
X102544714Y-98140714D01*
X102630428Y-98097857D01*
X102673285Y-98055000D01*
X102716142Y-97969285D01*
X102716142Y-97883571D01*
X102673285Y-97797857D01*
X102630428Y-97755000D01*
X102544714Y-97712142D01*
X102330428Y-97712142D01*
X102201857Y-97755000D01*
X101216142Y-97712142D02*
X101001857Y-98612142D01*
X100830428Y-97969285D01*
X100659000Y-98612142D01*
X100444714Y-97712142D01*
X100144714Y-98569285D02*
X100016142Y-98612142D01*
X99801857Y-98612142D01*
X99716142Y-98569285D01*
X99673285Y-98526428D01*
X99630428Y-98440714D01*
X99630428Y-98355000D01*
X99673285Y-98269285D01*
X99716142Y-98226428D01*
X99801857Y-98183571D01*
X99973285Y-98140714D01*
X100059000Y-98097857D01*
X100101857Y-98055000D01*
X100144714Y-97969285D01*
X100144714Y-97883571D01*
X100101857Y-97797857D01*
X100059000Y-97755000D01*
X99973285Y-97712142D01*
X99759000Y-97712142D01*
X99630428Y-97755000D01*
X99287571Y-97797857D02*
X99244714Y-97755000D01*
X99159000Y-97712142D01*
X98944714Y-97712142D01*
X98859000Y-97755000D01*
X98816142Y-97797857D01*
X98773285Y-97883571D01*
X98773285Y-97969285D01*
X98816142Y-98097857D01*
X99330428Y-98612142D01*
X98773285Y-98612142D01*
X98259000Y-98097857D02*
X98344714Y-98055000D01*
X98387571Y-98012142D01*
X98430428Y-97926428D01*
X98430428Y-97883571D01*
X98387571Y-97797857D01*
X98344714Y-97755000D01*
X98259000Y-97712142D01*
X98087571Y-97712142D01*
X98001857Y-97755000D01*
X97959000Y-97797857D01*
X97916142Y-97883571D01*
X97916142Y-97926428D01*
X97959000Y-98012142D01*
X98001857Y-98055000D01*
X98087571Y-98097857D01*
X98259000Y-98097857D01*
X98344714Y-98140714D01*
X98387571Y-98183571D01*
X98430428Y-98269285D01*
X98430428Y-98440714D01*
X98387571Y-98526428D01*
X98344714Y-98569285D01*
X98259000Y-98612142D01*
X98087571Y-98612142D01*
X98001857Y-98569285D01*
X97959000Y-98526428D01*
X97916142Y-98440714D01*
X97916142Y-98269285D01*
X97959000Y-98183571D01*
X98001857Y-98140714D01*
X98087571Y-98097857D01*
X97059000Y-98612142D02*
X97573285Y-98612142D01*
X97316142Y-98612142D02*
X97316142Y-97712142D01*
X97401857Y-97840714D01*
X97487571Y-97926428D01*
X97573285Y-97969285D01*
X96716142Y-97797857D02*
X96673285Y-97755000D01*
X96587571Y-97712142D01*
X96373285Y-97712142D01*
X96287571Y-97755000D01*
X96244714Y-97797857D01*
X96201857Y-97883571D01*
X96201857Y-97969285D01*
X96244714Y-98097857D01*
X96759000Y-98612142D01*
X96201857Y-98612142D01*
X95130428Y-98612142D02*
X95130428Y-98012142D01*
X95130428Y-98183571D02*
X95087571Y-98097857D01*
X95044714Y-98055000D01*
X94959000Y-98012142D01*
X94873285Y-98012142D01*
X94187571Y-98612142D02*
X94187571Y-98140714D01*
X94230428Y-98055000D01*
X94316142Y-98012142D01*
X94487571Y-98012142D01*
X94573285Y-98055000D01*
X94187571Y-98569285D02*
X94273285Y-98612142D01*
X94487571Y-98612142D01*
X94573285Y-98569285D01*
X94616142Y-98483571D01*
X94616142Y-98397857D01*
X94573285Y-98312142D01*
X94487571Y-98269285D01*
X94273285Y-98269285D01*
X94187571Y-98226428D01*
X93801857Y-98569285D02*
X93716142Y-98612142D01*
X93544714Y-98612142D01*
X93459000Y-98569285D01*
X93416142Y-98483571D01*
X93416142Y-98440714D01*
X93459000Y-98355000D01*
X93544714Y-98312142D01*
X93673285Y-98312142D01*
X93759000Y-98269285D01*
X93801857Y-98183571D01*
X93801857Y-98140714D01*
X93759000Y-98055000D01*
X93673285Y-98012142D01*
X93544714Y-98012142D01*
X93459000Y-98055000D01*
X93030428Y-98012142D02*
X93030428Y-98912142D01*
X93030428Y-98055000D02*
X92944714Y-98012142D01*
X92773285Y-98012142D01*
X92687571Y-98055000D01*
X92644714Y-98097857D01*
X92601857Y-98183571D01*
X92601857Y-98440714D01*
X92644714Y-98526428D01*
X92687571Y-98569285D01*
X92773285Y-98612142D01*
X92944714Y-98612142D01*
X93030428Y-98569285D01*
X92216142Y-98612142D02*
X92216142Y-98012142D01*
X92216142Y-97712142D02*
X92259000Y-97755000D01*
X92216142Y-97797857D01*
X92173285Y-97755000D01*
X92216142Y-97712142D01*
X92216142Y-97797857D01*
X91101857Y-98612142D02*
X91101857Y-97712142D01*
X90716142Y-98612142D02*
X90716142Y-98140714D01*
X90759000Y-98055000D01*
X90844714Y-98012142D01*
X90973285Y-98012142D01*
X91059000Y-98055000D01*
X91101857Y-98097857D01*
X89901857Y-98612142D02*
X89901857Y-98140714D01*
X89944714Y-98055000D01*
X90030428Y-98012142D01*
X90201857Y-98012142D01*
X90287571Y-98055000D01*
X89901857Y-98569285D02*
X89987571Y-98612142D01*
X90201857Y-98612142D01*
X90287571Y-98569285D01*
X90330428Y-98483571D01*
X90330428Y-98397857D01*
X90287571Y-98312142D01*
X90201857Y-98269285D01*
X89987571Y-98269285D01*
X89901857Y-98226428D01*
X89601857Y-98012142D02*
X89259000Y-98012142D01*
X89473285Y-97712142D02*
X89473285Y-98483571D01*
X89430428Y-98569285D01*
X89344714Y-98612142D01*
X89259000Y-98612142D01*
X88359000Y-98012142D02*
X88144714Y-98612142D01*
X87930428Y-98012142D01*
X87416142Y-97712142D02*
X87330428Y-97712142D01*
X87244714Y-97755000D01*
X87201857Y-97797857D01*
X87159000Y-97883571D01*
X87116142Y-98055000D01*
X87116142Y-98269285D01*
X87159000Y-98440714D01*
X87201857Y-98526428D01*
X87244714Y-98569285D01*
X87330428Y-98612142D01*
X87416142Y-98612142D01*
X87501857Y-98569285D01*
X87544714Y-98526428D01*
X87587571Y-98440714D01*
X87630428Y-98269285D01*
X87630428Y-98055000D01*
X87587571Y-97883571D01*
X87544714Y-97797857D01*
X87501857Y-97755000D01*
X87416142Y-97712142D01*
X86730428Y-98526428D02*
X86687571Y-98569285D01*
X86730428Y-98612142D01*
X86773285Y-98569285D01*
X86730428Y-98526428D01*
X86730428Y-98612142D01*
X85830428Y-98612142D02*
X86344714Y-98612142D01*
X86087571Y-98612142D02*
X86087571Y-97712142D01*
X86173285Y-97840714D01*
X86259000Y-97926428D01*
X86344714Y-97969285D01*
X107344714Y-100102142D02*
X107344714Y-99202142D01*
X106959000Y-100102142D02*
X106959000Y-99630714D01*
X107001857Y-99545000D01*
X107087571Y-99502142D01*
X107216142Y-99502142D01*
X107301857Y-99545000D01*
X107344714Y-99587857D01*
X106659000Y-99502142D02*
X106316142Y-99502142D01*
X106530428Y-99202142D02*
X106530428Y-99973571D01*
X106487571Y-100059285D01*
X106401857Y-100102142D01*
X106316142Y-100102142D01*
X106144714Y-99502142D02*
X105801857Y-99502142D01*
X106016142Y-99202142D02*
X106016142Y-99973571D01*
X105973285Y-100059285D01*
X105887571Y-100102142D01*
X105801857Y-100102142D01*
X105501857Y-99502142D02*
X105501857Y-100402142D01*
X105501857Y-99545000D02*
X105416142Y-99502142D01*
X105244714Y-99502142D01*
X105159000Y-99545000D01*
X105116142Y-99587857D01*
X105073285Y-99673571D01*
X105073285Y-99930714D01*
X105116142Y-100016428D01*
X105159000Y-100059285D01*
X105244714Y-100102142D01*
X105416142Y-100102142D01*
X105501857Y-100059285D01*
X104730428Y-100059285D02*
X104644714Y-100102142D01*
X104473285Y-100102142D01*
X104387571Y-100059285D01*
X104344714Y-99973571D01*
X104344714Y-99930714D01*
X104387571Y-99845000D01*
X104473285Y-99802142D01*
X104601857Y-99802142D01*
X104687571Y-99759285D01*
X104730428Y-99673571D01*
X104730428Y-99630714D01*
X104687571Y-99545000D01*
X104601857Y-99502142D01*
X104473285Y-99502142D01*
X104387571Y-99545000D01*
X103959000Y-100016428D02*
X103916142Y-100059285D01*
X103959000Y-100102142D01*
X104001857Y-100059285D01*
X103959000Y-100016428D01*
X103959000Y-100102142D01*
X103959000Y-99545000D02*
X103916142Y-99587857D01*
X103959000Y-99630714D01*
X104001857Y-99587857D01*
X103959000Y-99545000D01*
X103959000Y-99630714D01*
X102887571Y-99159285D02*
X103659000Y-100316428D01*
X101944714Y-99159285D02*
X102716142Y-100316428D01*
X101644714Y-100102142D02*
X101644714Y-99202142D01*
X101644714Y-99545000D02*
X101559000Y-99502142D01*
X101387571Y-99502142D01*
X101301857Y-99545000D01*
X101259000Y-99587857D01*
X101216142Y-99673571D01*
X101216142Y-99930714D01*
X101259000Y-100016428D01*
X101301857Y-100059285D01*
X101387571Y-100102142D01*
X101559000Y-100102142D01*
X101644714Y-100059285D01*
X100916142Y-99502142D02*
X100701857Y-100102142D01*
X100487571Y-99502142D02*
X100701857Y-100102142D01*
X100787571Y-100316428D01*
X100830428Y-100359285D01*
X100916142Y-100402142D01*
X100273285Y-99502142D02*
X99930428Y-99502142D01*
X100144714Y-99202142D02*
X100144714Y-99973571D01*
X100101857Y-100059285D01*
X100016142Y-100102142D01*
X99930428Y-100102142D01*
X99287571Y-100059285D02*
X99373285Y-100102142D01*
X99544714Y-100102142D01*
X99630428Y-100059285D01*
X99673285Y-99973571D01*
X99673285Y-99630714D01*
X99630428Y-99545000D01*
X99544714Y-99502142D01*
X99373285Y-99502142D01*
X99287571Y-99545000D01*
X99244714Y-99630714D01*
X99244714Y-99716428D01*
X99673285Y-99802142D01*
X98944714Y-99502142D02*
X98773285Y-100102142D01*
X98601857Y-99673571D01*
X98430428Y-100102142D01*
X98259000Y-99502142D01*
X97573285Y-100059285D02*
X97659000Y-100102142D01*
X97830428Y-100102142D01*
X97916142Y-100059285D01*
X97959000Y-99973571D01*
X97959000Y-99630714D01*
X97916142Y-99545000D01*
X97830428Y-99502142D01*
X97659000Y-99502142D01*
X97573285Y-99545000D01*
X97530428Y-99630714D01*
X97530428Y-99716428D01*
X97959000Y-99802142D01*
X97144714Y-100102142D02*
X97144714Y-99502142D01*
X97144714Y-99673571D02*
X97101857Y-99587857D01*
X97059000Y-99545000D01*
X96973285Y-99502142D01*
X96887571Y-99502142D01*
X96587571Y-100102142D02*
X96587571Y-99202142D01*
X96501857Y-99759285D02*
X96244714Y-100102142D01*
X96244714Y-99502142D02*
X96587571Y-99845000D01*
X95859000Y-100016428D02*
X95816142Y-100059285D01*
X95859000Y-100102142D01*
X95901857Y-100059285D01*
X95859000Y-100016428D01*
X95859000Y-100102142D01*
X95301857Y-100102142D02*
X95387571Y-100059285D01*
X95430428Y-100016428D01*
X95473285Y-99930714D01*
X95473285Y-99673571D01*
X95430428Y-99587857D01*
X95387571Y-99545000D01*
X95301857Y-99502142D01*
X95173285Y-99502142D01*
X95087571Y-99545000D01*
X95044714Y-99587857D01*
X95001857Y-99673571D01*
X95001857Y-99930714D01*
X95044714Y-100016428D01*
X95087571Y-100059285D01*
X95173285Y-100102142D01*
X95301857Y-100102142D01*
X94616142Y-100102142D02*
X94616142Y-99502142D01*
X94616142Y-99673571D02*
X94573285Y-99587857D01*
X94530428Y-99545000D01*
X94444714Y-99502142D01*
X94359000Y-99502142D01*
X93673285Y-99502142D02*
X93673285Y-100230714D01*
X93716142Y-100316428D01*
X93758999Y-100359285D01*
X93844714Y-100402142D01*
X93973285Y-100402142D01*
X94058999Y-100359285D01*
X93673285Y-100059285D02*
X93758999Y-100102142D01*
X93930428Y-100102142D01*
X94016142Y-100059285D01*
X94058999Y-100016428D01*
X94101857Y-99930714D01*
X94101857Y-99673571D01*
X94058999Y-99587857D01*
X94016142Y-99545000D01*
X93930428Y-99502142D01*
X93758999Y-99502142D01*
X93673285Y-99545000D01*
X92601857Y-99159285D02*
X93373285Y-100316428D01*
D11*
G04 #@! TO.C,C1*
X99162779Y-80240000D02*
X98837221Y-80240000D01*
X99162779Y-81260000D02*
X98837221Y-81260000D01*
G04 #@! TO.C,C2*
X95837221Y-80240000D02*
X96162779Y-80240000D01*
X95837221Y-81260000D02*
X96162779Y-81260000D01*
G04 #@! TO.C,C3*
X96162779Y-82760000D02*
X95837221Y-82760000D01*
X96162779Y-81740000D02*
X95837221Y-81740000D01*
G04 #@! TO.C,C4*
X96162779Y-83240000D02*
X95837221Y-83240000D01*
X96162779Y-84260000D02*
X95837221Y-84260000D01*
G04 #@! TO.C,C5*
X101837221Y-83240000D02*
X102162779Y-83240000D01*
X101837221Y-84260000D02*
X102162779Y-84260000D01*
G04 #@! TO.C,C6*
X96162779Y-84740000D02*
X95837221Y-84740000D01*
X96162779Y-85760000D02*
X95837221Y-85760000D01*
G04 #@! TO.C,C7*
X101837221Y-82760000D02*
X102162779Y-82760000D01*
X101837221Y-81740000D02*
X102162779Y-81740000D01*
G04 #@! TO.C,C8*
X101837221Y-84740000D02*
X102162779Y-84740000D01*
X101837221Y-85760000D02*
X102162779Y-85760000D01*
G04 #@! TO.C,C9*
X101837221Y-81260000D02*
X102162779Y-81260000D01*
X101837221Y-80240000D02*
X102162779Y-80240000D01*
G04 #@! TO.C,C10*
X102087221Y-63760000D02*
X102412779Y-63760000D01*
X102087221Y-62740000D02*
X102412779Y-62740000D01*
G04 #@! TO.C,C11*
X99162779Y-63760000D02*
X98837221Y-63760000D01*
X99162779Y-62740000D02*
X98837221Y-62740000D01*
G04 #@! TO.C,C12*
X89837221Y-81740000D02*
X90162779Y-81740000D01*
X89837221Y-82760000D02*
X90162779Y-82760000D01*
G04 #@! TO.C,C13*
X89837221Y-81260000D02*
X90162779Y-81260000D01*
X89837221Y-80240000D02*
X90162779Y-80240000D01*
G04 #@! TO.C,C14*
X89837221Y-84260000D02*
X90162779Y-84260000D01*
X89837221Y-83240000D02*
X90162779Y-83240000D01*
G04 #@! TO.C,C15*
X95587221Y-64490000D02*
X95912779Y-64490000D01*
X95587221Y-65510000D02*
X95912779Y-65510000D01*
G04 #@! TO.C,R1*
X102162779Y-86240000D02*
X101837221Y-86240000D01*
X102162779Y-87260000D02*
X101837221Y-87260000D01*
G04 #@! TO.C,R2*
X99162779Y-87260000D02*
X98837221Y-87260000D01*
X99162779Y-86240000D02*
X98837221Y-86240000D01*
G04 #@! TO.C,R3*
X92740000Y-90337221D02*
X92740000Y-90662779D01*
X93760000Y-90337221D02*
X93760000Y-90662779D01*
G04 #@! TO.C,R4*
X95260000Y-90337221D02*
X95260000Y-90662779D01*
X94240000Y-90337221D02*
X94240000Y-90662779D01*
G04 #@! TO.C,R5*
X95587221Y-62740000D02*
X95912779Y-62740000D01*
X95587221Y-63760000D02*
X95912779Y-63760000D01*
G04 #@! TO.C,R6*
X85850000Y-57774721D02*
X85850000Y-58100279D01*
X86870000Y-57774721D02*
X86870000Y-58100279D01*
G04 #@! TO.C,R7*
X89410000Y-57774721D02*
X89410000Y-58100279D01*
X88390000Y-57774721D02*
X88390000Y-58100279D01*
G04 #@! TO.C,R8*
X90930000Y-57774721D02*
X90930000Y-58100279D01*
X91950000Y-57774721D02*
X91950000Y-58100279D01*
G04 #@! TO.C,R9*
X93470000Y-57774721D02*
X93470000Y-58100279D01*
X94490000Y-57774721D02*
X94490000Y-58100279D01*
G04 #@! TO.C,R10*
X97030000Y-57774721D02*
X97030000Y-58100279D01*
X96010000Y-57774721D02*
X96010000Y-58100279D01*
G04 #@! TO.C,R11*
X98550000Y-57774721D02*
X98550000Y-58100279D01*
X99570000Y-57774721D02*
X99570000Y-58100279D01*
G04 #@! TO.C,R12*
X102110000Y-57774721D02*
X102110000Y-58100279D01*
X101090000Y-57774721D02*
X101090000Y-58100279D01*
G04 #@! TO.C,R13*
X103630000Y-57774721D02*
X103630000Y-58100279D01*
X104650000Y-57774721D02*
X104650000Y-58100279D01*
G04 #@! TO.C,Y1*
X95050000Y-76200000D02*
X100950000Y-76200000D01*
X100950000Y-76200000D02*
X100950000Y-79800000D01*
X100950000Y-79800000D02*
X95050000Y-79800000D01*
G04 #@! TO.C,C1*
D12*
X99166666Y-82657142D02*
X99214285Y-82704761D01*
X99357142Y-82752380D01*
X99452380Y-82752380D01*
X99595238Y-82704761D01*
X99690476Y-82609523D01*
X99738095Y-82514285D01*
X99785714Y-82323809D01*
X99785714Y-82180952D01*
X99738095Y-81990476D01*
X99690476Y-81895238D01*
X99595238Y-81800000D01*
X99452380Y-81752380D01*
X99357142Y-81752380D01*
X99214285Y-81800000D01*
X99166666Y-81847619D01*
X98214285Y-82752380D02*
X98785714Y-82752380D01*
X98500000Y-82752380D02*
X98500000Y-81752380D01*
X98595238Y-81895238D01*
X98690476Y-81990476D01*
X98785714Y-82038095D01*
G04 #@! TO.C,C2*
X93666666Y-81157142D02*
X93714285Y-81204761D01*
X93857142Y-81252380D01*
X93952380Y-81252380D01*
X94095238Y-81204761D01*
X94190476Y-81109523D01*
X94238095Y-81014285D01*
X94285714Y-80823809D01*
X94285714Y-80680952D01*
X94238095Y-80490476D01*
X94190476Y-80395238D01*
X94095238Y-80300000D01*
X93952380Y-80252380D01*
X93857142Y-80252380D01*
X93714285Y-80300000D01*
X93666666Y-80347619D01*
X93285714Y-80347619D02*
X93238095Y-80300000D01*
X93142857Y-80252380D01*
X92904761Y-80252380D01*
X92809523Y-80300000D01*
X92761904Y-80347619D01*
X92714285Y-80442857D01*
X92714285Y-80538095D01*
X92761904Y-80680952D01*
X93333333Y-81252380D01*
X92714285Y-81252380D01*
G04 #@! TO.C,C3*
X93666666Y-82657142D02*
X93714285Y-82704761D01*
X93857142Y-82752380D01*
X93952380Y-82752380D01*
X94095238Y-82704761D01*
X94190476Y-82609523D01*
X94238095Y-82514285D01*
X94285714Y-82323809D01*
X94285714Y-82180952D01*
X94238095Y-81990476D01*
X94190476Y-81895238D01*
X94095238Y-81800000D01*
X93952380Y-81752380D01*
X93857142Y-81752380D01*
X93714285Y-81800000D01*
X93666666Y-81847619D01*
X93333333Y-81752380D02*
X92714285Y-81752380D01*
X93047619Y-82133333D01*
X92904761Y-82133333D01*
X92809523Y-82180952D01*
X92761904Y-82228571D01*
X92714285Y-82323809D01*
X92714285Y-82561904D01*
X92761904Y-82657142D01*
X92809523Y-82704761D01*
X92904761Y-82752380D01*
X93190476Y-82752380D01*
X93285714Y-82704761D01*
X93333333Y-82657142D01*
G04 #@! TO.C,C4*
X93666666Y-84157142D02*
X93714285Y-84204761D01*
X93857142Y-84252380D01*
X93952380Y-84252380D01*
X94095238Y-84204761D01*
X94190476Y-84109523D01*
X94238095Y-84014285D01*
X94285714Y-83823809D01*
X94285714Y-83680952D01*
X94238095Y-83490476D01*
X94190476Y-83395238D01*
X94095238Y-83300000D01*
X93952380Y-83252380D01*
X93857142Y-83252380D01*
X93714285Y-83300000D01*
X93666666Y-83347619D01*
X92809523Y-83585714D02*
X92809523Y-84252380D01*
X93047619Y-83204761D02*
X93285714Y-83919047D01*
X92666666Y-83919047D01*
G04 #@! TO.C,C5*
X104566666Y-84157142D02*
X104614285Y-84204761D01*
X104757142Y-84252380D01*
X104852380Y-84252380D01*
X104995238Y-84204761D01*
X105090476Y-84109523D01*
X105138095Y-84014285D01*
X105185714Y-83823809D01*
X105185714Y-83680952D01*
X105138095Y-83490476D01*
X105090476Y-83395238D01*
X104995238Y-83300000D01*
X104852380Y-83252380D01*
X104757142Y-83252380D01*
X104614285Y-83300000D01*
X104566666Y-83347619D01*
X103661904Y-83252380D02*
X104138095Y-83252380D01*
X104185714Y-83728571D01*
X104138095Y-83680952D01*
X104042857Y-83633333D01*
X103804761Y-83633333D01*
X103709523Y-83680952D01*
X103661904Y-83728571D01*
X103614285Y-83823809D01*
X103614285Y-84061904D01*
X103661904Y-84157142D01*
X103709523Y-84204761D01*
X103804761Y-84252380D01*
X104042857Y-84252380D01*
X104138095Y-84204761D01*
X104185714Y-84157142D01*
G04 #@! TO.C,C6*
X93666666Y-85657142D02*
X93714285Y-85704761D01*
X93857142Y-85752380D01*
X93952380Y-85752380D01*
X94095238Y-85704761D01*
X94190476Y-85609523D01*
X94238095Y-85514285D01*
X94285714Y-85323809D01*
X94285714Y-85180952D01*
X94238095Y-84990476D01*
X94190476Y-84895238D01*
X94095238Y-84800000D01*
X93952380Y-84752380D01*
X93857142Y-84752380D01*
X93714285Y-84800000D01*
X93666666Y-84847619D01*
X92809523Y-84752380D02*
X93000000Y-84752380D01*
X93095238Y-84800000D01*
X93142857Y-84847619D01*
X93238095Y-84990476D01*
X93285714Y-85180952D01*
X93285714Y-85561904D01*
X93238095Y-85657142D01*
X93190476Y-85704761D01*
X93095238Y-85752380D01*
X92904761Y-85752380D01*
X92809523Y-85704761D01*
X92761904Y-85657142D01*
X92714285Y-85561904D01*
X92714285Y-85323809D01*
X92761904Y-85228571D01*
X92809523Y-85180952D01*
X92904761Y-85133333D01*
X93095238Y-85133333D01*
X93190476Y-85180952D01*
X93238095Y-85228571D01*
X93285714Y-85323809D01*
G04 #@! TO.C,C7*
X104566666Y-82657142D02*
X104614285Y-82704761D01*
X104757142Y-82752380D01*
X104852380Y-82752380D01*
X104995238Y-82704761D01*
X105090476Y-82609523D01*
X105138095Y-82514285D01*
X105185714Y-82323809D01*
X105185714Y-82180952D01*
X105138095Y-81990476D01*
X105090476Y-81895238D01*
X104995238Y-81800000D01*
X104852380Y-81752380D01*
X104757142Y-81752380D01*
X104614285Y-81800000D01*
X104566666Y-81847619D01*
X104233333Y-81752380D02*
X103566666Y-81752380D01*
X103995238Y-82752380D01*
G04 #@! TO.C,C8*
X104566666Y-85657142D02*
X104614285Y-85704761D01*
X104757142Y-85752380D01*
X104852380Y-85752380D01*
X104995238Y-85704761D01*
X105090476Y-85609523D01*
X105138095Y-85514285D01*
X105185714Y-85323809D01*
X105185714Y-85180952D01*
X105138095Y-84990476D01*
X105090476Y-84895238D01*
X104995238Y-84800000D01*
X104852380Y-84752380D01*
X104757142Y-84752380D01*
X104614285Y-84800000D01*
X104566666Y-84847619D01*
X103995238Y-85180952D02*
X104090476Y-85133333D01*
X104138095Y-85085714D01*
X104185714Y-84990476D01*
X104185714Y-84942857D01*
X104138095Y-84847619D01*
X104090476Y-84800000D01*
X103995238Y-84752380D01*
X103804761Y-84752380D01*
X103709523Y-84800000D01*
X103661904Y-84847619D01*
X103614285Y-84942857D01*
X103614285Y-84990476D01*
X103661904Y-85085714D01*
X103709523Y-85133333D01*
X103804761Y-85180952D01*
X103995238Y-85180952D01*
X104090476Y-85228571D01*
X104138095Y-85276190D01*
X104185714Y-85371428D01*
X104185714Y-85561904D01*
X104138095Y-85657142D01*
X104090476Y-85704761D01*
X103995238Y-85752380D01*
X103804761Y-85752380D01*
X103709523Y-85704761D01*
X103661904Y-85657142D01*
X103614285Y-85561904D01*
X103614285Y-85371428D01*
X103661904Y-85276190D01*
X103709523Y-85228571D01*
X103804761Y-85180952D01*
G04 #@! TO.C,C9*
X104566666Y-81157142D02*
X104614285Y-81204761D01*
X104757142Y-81252380D01*
X104852380Y-81252380D01*
X104995238Y-81204761D01*
X105090476Y-81109523D01*
X105138095Y-81014285D01*
X105185714Y-80823809D01*
X105185714Y-80680952D01*
X105138095Y-80490476D01*
X105090476Y-80395238D01*
X104995238Y-80300000D01*
X104852380Y-80252380D01*
X104757142Y-80252380D01*
X104614285Y-80300000D01*
X104566666Y-80347619D01*
X104090476Y-81252380D02*
X103900000Y-81252380D01*
X103804761Y-81204761D01*
X103757142Y-81157142D01*
X103661904Y-81014285D01*
X103614285Y-80823809D01*
X103614285Y-80442857D01*
X103661904Y-80347619D01*
X103709523Y-80300000D01*
X103804761Y-80252380D01*
X103995238Y-80252380D01*
X104090476Y-80300000D01*
X104138095Y-80347619D01*
X104185714Y-80442857D01*
X104185714Y-80680952D01*
X104138095Y-80776190D01*
X104090476Y-80823809D01*
X103995238Y-80871428D01*
X103804761Y-80871428D01*
X103709523Y-80823809D01*
X103661904Y-80776190D01*
X103614285Y-80680952D01*
G04 #@! TO.C,C10*
X102892857Y-62357142D02*
X102940476Y-62404761D01*
X103083333Y-62452380D01*
X103178571Y-62452380D01*
X103321428Y-62404761D01*
X103416666Y-62309523D01*
X103464285Y-62214285D01*
X103511904Y-62023809D01*
X103511904Y-61880952D01*
X103464285Y-61690476D01*
X103416666Y-61595238D01*
X103321428Y-61500000D01*
X103178571Y-61452380D01*
X103083333Y-61452380D01*
X102940476Y-61500000D01*
X102892857Y-61547619D01*
X101940476Y-62452380D02*
X102511904Y-62452380D01*
X102226190Y-62452380D02*
X102226190Y-61452380D01*
X102321428Y-61595238D01*
X102416666Y-61690476D01*
X102511904Y-61738095D01*
X101321428Y-61452380D02*
X101226190Y-61452380D01*
X101130952Y-61500000D01*
X101083333Y-61547619D01*
X101035714Y-61642857D01*
X100988095Y-61833333D01*
X100988095Y-62071428D01*
X101035714Y-62261904D01*
X101083333Y-62357142D01*
X101130952Y-62404761D01*
X101226190Y-62452380D01*
X101321428Y-62452380D01*
X101416666Y-62404761D01*
X101464285Y-62357142D01*
X101511904Y-62261904D01*
X101559523Y-62071428D01*
X101559523Y-61833333D01*
X101511904Y-61642857D01*
X101464285Y-61547619D01*
X101416666Y-61500000D01*
X101321428Y-61452380D01*
G04 #@! TO.C,C11*
X99642857Y-62357142D02*
X99690476Y-62404761D01*
X99833333Y-62452380D01*
X99928571Y-62452380D01*
X100071428Y-62404761D01*
X100166666Y-62309523D01*
X100214285Y-62214285D01*
X100261904Y-62023809D01*
X100261904Y-61880952D01*
X100214285Y-61690476D01*
X100166666Y-61595238D01*
X100071428Y-61500000D01*
X99928571Y-61452380D01*
X99833333Y-61452380D01*
X99690476Y-61500000D01*
X99642857Y-61547619D01*
X98690476Y-62452380D02*
X99261904Y-62452380D01*
X98976190Y-62452380D02*
X98976190Y-61452380D01*
X99071428Y-61595238D01*
X99166666Y-61690476D01*
X99261904Y-61738095D01*
X97738095Y-62452380D02*
X98309523Y-62452380D01*
X98023809Y-62452380D02*
X98023809Y-61452380D01*
X98119047Y-61595238D01*
X98214285Y-61690476D01*
X98309523Y-61738095D01*
G04 #@! TO.C,C12*
X87742857Y-82657142D02*
X87790476Y-82704761D01*
X87933333Y-82752380D01*
X88028571Y-82752380D01*
X88171428Y-82704761D01*
X88266666Y-82609523D01*
X88314285Y-82514285D01*
X88361904Y-82323809D01*
X88361904Y-82180952D01*
X88314285Y-81990476D01*
X88266666Y-81895238D01*
X88171428Y-81800000D01*
X88028571Y-81752380D01*
X87933333Y-81752380D01*
X87790476Y-81800000D01*
X87742857Y-81847619D01*
X86790476Y-82752380D02*
X87361904Y-82752380D01*
X87076190Y-82752380D02*
X87076190Y-81752380D01*
X87171428Y-81895238D01*
X87266666Y-81990476D01*
X87361904Y-82038095D01*
X86409523Y-81847619D02*
X86361904Y-81800000D01*
X86266666Y-81752380D01*
X86028571Y-81752380D01*
X85933333Y-81800000D01*
X85885714Y-81847619D01*
X85838095Y-81942857D01*
X85838095Y-82038095D01*
X85885714Y-82180952D01*
X86457142Y-82752380D01*
X85838095Y-82752380D01*
G04 #@! TO.C,C13*
X87742857Y-81157142D02*
X87790476Y-81204761D01*
X87933333Y-81252380D01*
X88028571Y-81252380D01*
X88171428Y-81204761D01*
X88266666Y-81109523D01*
X88314285Y-81014285D01*
X88361904Y-80823809D01*
X88361904Y-80680952D01*
X88314285Y-80490476D01*
X88266666Y-80395238D01*
X88171428Y-80300000D01*
X88028571Y-80252380D01*
X87933333Y-80252380D01*
X87790476Y-80300000D01*
X87742857Y-80347619D01*
X86790476Y-81252380D02*
X87361904Y-81252380D01*
X87076190Y-81252380D02*
X87076190Y-80252380D01*
X87171428Y-80395238D01*
X87266666Y-80490476D01*
X87361904Y-80538095D01*
X86457142Y-80252380D02*
X85838095Y-80252380D01*
X86171428Y-80633333D01*
X86028571Y-80633333D01*
X85933333Y-80680952D01*
X85885714Y-80728571D01*
X85838095Y-80823809D01*
X85838095Y-81061904D01*
X85885714Y-81157142D01*
X85933333Y-81204761D01*
X86028571Y-81252380D01*
X86314285Y-81252380D01*
X86409523Y-81204761D01*
X86457142Y-81157142D01*
G04 #@! TO.C,C14*
X87742857Y-84157142D02*
X87790476Y-84204761D01*
X87933333Y-84252380D01*
X88028571Y-84252380D01*
X88171428Y-84204761D01*
X88266666Y-84109523D01*
X88314285Y-84014285D01*
X88361904Y-83823809D01*
X88361904Y-83680952D01*
X88314285Y-83490476D01*
X88266666Y-83395238D01*
X88171428Y-83300000D01*
X88028571Y-83252380D01*
X87933333Y-83252380D01*
X87790476Y-83300000D01*
X87742857Y-83347619D01*
X86790476Y-84252380D02*
X87361904Y-84252380D01*
X87076190Y-84252380D02*
X87076190Y-83252380D01*
X87171428Y-83395238D01*
X87266666Y-83490476D01*
X87361904Y-83538095D01*
X85933333Y-83585714D02*
X85933333Y-84252380D01*
X86171428Y-83204761D02*
X86409523Y-83919047D01*
X85790476Y-83919047D01*
G04 #@! TO.C,C15*
X96442857Y-66857142D02*
X96490476Y-66904761D01*
X96633333Y-66952380D01*
X96728571Y-66952380D01*
X96871428Y-66904761D01*
X96966666Y-66809523D01*
X97014285Y-66714285D01*
X97061904Y-66523809D01*
X97061904Y-66380952D01*
X97014285Y-66190476D01*
X96966666Y-66095238D01*
X96871428Y-66000000D01*
X96728571Y-65952380D01*
X96633333Y-65952380D01*
X96490476Y-66000000D01*
X96442857Y-66047619D01*
X95490476Y-66952380D02*
X96061904Y-66952380D01*
X95776190Y-66952380D02*
X95776190Y-65952380D01*
X95871428Y-66095238D01*
X95966666Y-66190476D01*
X96061904Y-66238095D01*
X94585714Y-65952380D02*
X95061904Y-65952380D01*
X95109523Y-66428571D01*
X95061904Y-66380952D01*
X94966666Y-66333333D01*
X94728571Y-66333333D01*
X94633333Y-66380952D01*
X94585714Y-66428571D01*
X94538095Y-66523809D01*
X94538095Y-66761904D01*
X94585714Y-66857142D01*
X94633333Y-66904761D01*
X94728571Y-66952380D01*
X94966666Y-66952380D01*
X95061904Y-66904761D01*
X95109523Y-66857142D01*
G04 #@! TO.C,R1*
X104466666Y-87252380D02*
X104800000Y-86776190D01*
X105038095Y-87252380D02*
X105038095Y-86252380D01*
X104657142Y-86252380D01*
X104561904Y-86300000D01*
X104514285Y-86347619D01*
X104466666Y-86442857D01*
X104466666Y-86585714D01*
X104514285Y-86680952D01*
X104561904Y-86728571D01*
X104657142Y-86776190D01*
X105038095Y-86776190D01*
X103514285Y-87252380D02*
X104085714Y-87252380D01*
X103800000Y-87252380D02*
X103800000Y-86252380D01*
X103895238Y-86395238D01*
X103990476Y-86490476D01*
X104085714Y-86538095D01*
G04 #@! TO.C,R2*
X99166666Y-85752380D02*
X99500000Y-85276190D01*
X99738095Y-85752380D02*
X99738095Y-84752380D01*
X99357142Y-84752380D01*
X99261904Y-84800000D01*
X99214285Y-84847619D01*
X99166666Y-84942857D01*
X99166666Y-85085714D01*
X99214285Y-85180952D01*
X99261904Y-85228571D01*
X99357142Y-85276190D01*
X99738095Y-85276190D01*
X98785714Y-84847619D02*
X98738095Y-84800000D01*
X98642857Y-84752380D01*
X98404761Y-84752380D01*
X98309523Y-84800000D01*
X98261904Y-84847619D01*
X98214285Y-84942857D01*
X98214285Y-85038095D01*
X98261904Y-85180952D01*
X98833333Y-85752380D01*
X98214285Y-85752380D01*
G04 #@! TO.C,R3*
X93116666Y-93152380D02*
X93450000Y-92676190D01*
X93688095Y-93152380D02*
X93688095Y-92152380D01*
X93307142Y-92152380D01*
X93211904Y-92200000D01*
X93164285Y-92247619D01*
X93116666Y-92342857D01*
X93116666Y-92485714D01*
X93164285Y-92580952D01*
X93211904Y-92628571D01*
X93307142Y-92676190D01*
X93688095Y-92676190D01*
X92783333Y-92152380D02*
X92164285Y-92152380D01*
X92497619Y-92533333D01*
X92354761Y-92533333D01*
X92259523Y-92580952D01*
X92211904Y-92628571D01*
X92164285Y-92723809D01*
X92164285Y-92961904D01*
X92211904Y-93057142D01*
X92259523Y-93104761D01*
X92354761Y-93152380D01*
X92640476Y-93152380D01*
X92735714Y-93104761D01*
X92783333Y-93057142D01*
G04 #@! TO.C,R4*
X95416666Y-93152380D02*
X95750000Y-92676190D01*
X95988095Y-93152380D02*
X95988095Y-92152380D01*
X95607142Y-92152380D01*
X95511904Y-92200000D01*
X95464285Y-92247619D01*
X95416666Y-92342857D01*
X95416666Y-92485714D01*
X95464285Y-92580952D01*
X95511904Y-92628571D01*
X95607142Y-92676190D01*
X95988095Y-92676190D01*
X94559523Y-92485714D02*
X94559523Y-93152380D01*
X94797619Y-92104761D02*
X95035714Y-92819047D01*
X94416666Y-92819047D01*
G04 #@! TO.C,R5*
X95916666Y-62452380D02*
X96250000Y-61976190D01*
X96488095Y-62452380D02*
X96488095Y-61452380D01*
X96107142Y-61452380D01*
X96011904Y-61500000D01*
X95964285Y-61547619D01*
X95916666Y-61642857D01*
X95916666Y-61785714D01*
X95964285Y-61880952D01*
X96011904Y-61928571D01*
X96107142Y-61976190D01*
X96488095Y-61976190D01*
X95011904Y-61452380D02*
X95488095Y-61452380D01*
X95535714Y-61928571D01*
X95488095Y-61880952D01*
X95392857Y-61833333D01*
X95154761Y-61833333D01*
X95059523Y-61880952D01*
X95011904Y-61928571D01*
X94964285Y-62023809D01*
X94964285Y-62261904D01*
X95011904Y-62357142D01*
X95059523Y-62404761D01*
X95154761Y-62452380D01*
X95392857Y-62452380D01*
X95488095Y-62404761D01*
X95535714Y-62357142D01*
G04 #@! TO.C,R6*
X86533333Y-60461904D02*
X86800000Y-60080952D01*
X86990476Y-60461904D02*
X86990476Y-59661904D01*
X86685714Y-59661904D01*
X86609523Y-59700000D01*
X86571428Y-59738095D01*
X86533333Y-59814285D01*
X86533333Y-59928571D01*
X86571428Y-60004761D01*
X86609523Y-60042857D01*
X86685714Y-60080952D01*
X86990476Y-60080952D01*
X85847619Y-59661904D02*
X86000000Y-59661904D01*
X86076190Y-59700000D01*
X86114285Y-59738095D01*
X86190476Y-59852380D01*
X86228571Y-60004761D01*
X86228571Y-60309523D01*
X86190476Y-60385714D01*
X86152380Y-60423809D01*
X86076190Y-60461904D01*
X85923809Y-60461904D01*
X85847619Y-60423809D01*
X85809523Y-60385714D01*
X85771428Y-60309523D01*
X85771428Y-60119047D01*
X85809523Y-60042857D01*
X85847619Y-60004761D01*
X85923809Y-59966666D01*
X86076190Y-59966666D01*
X86152380Y-60004761D01*
X86190476Y-60042857D01*
X86228571Y-60119047D01*
G04 #@! TO.C,R7*
X89033333Y-60461904D02*
X89300000Y-60080952D01*
X89490476Y-60461904D02*
X89490476Y-59661904D01*
X89185714Y-59661904D01*
X89109523Y-59700000D01*
X89071428Y-59738095D01*
X89033333Y-59814285D01*
X89033333Y-59928571D01*
X89071428Y-60004761D01*
X89109523Y-60042857D01*
X89185714Y-60080952D01*
X89490476Y-60080952D01*
X88766666Y-59661904D02*
X88233333Y-59661904D01*
X88576190Y-60461904D01*
G04 #@! TO.C,R8*
X91533333Y-60461904D02*
X91800000Y-60080952D01*
X91990476Y-60461904D02*
X91990476Y-59661904D01*
X91685714Y-59661904D01*
X91609523Y-59700000D01*
X91571428Y-59738095D01*
X91533333Y-59814285D01*
X91533333Y-59928571D01*
X91571428Y-60004761D01*
X91609523Y-60042857D01*
X91685714Y-60080952D01*
X91990476Y-60080952D01*
X91076190Y-60004761D02*
X91152380Y-59966666D01*
X91190476Y-59928571D01*
X91228571Y-59852380D01*
X91228571Y-59814285D01*
X91190476Y-59738095D01*
X91152380Y-59700000D01*
X91076190Y-59661904D01*
X90923809Y-59661904D01*
X90847619Y-59700000D01*
X90809523Y-59738095D01*
X90771428Y-59814285D01*
X90771428Y-59852380D01*
X90809523Y-59928571D01*
X90847619Y-59966666D01*
X90923809Y-60004761D01*
X91076190Y-60004761D01*
X91152380Y-60042857D01*
X91190476Y-60080952D01*
X91228571Y-60157142D01*
X91228571Y-60309523D01*
X91190476Y-60385714D01*
X91152380Y-60423809D01*
X91076190Y-60461904D01*
X90923809Y-60461904D01*
X90847619Y-60423809D01*
X90809523Y-60385714D01*
X90771428Y-60309523D01*
X90771428Y-60157142D01*
X90809523Y-60080952D01*
X90847619Y-60042857D01*
X90923809Y-60004761D01*
G04 #@! TO.C,R9*
X94133333Y-60461904D02*
X94400000Y-60080952D01*
X94590476Y-60461904D02*
X94590476Y-59661904D01*
X94285714Y-59661904D01*
X94209523Y-59700000D01*
X94171428Y-59738095D01*
X94133333Y-59814285D01*
X94133333Y-59928571D01*
X94171428Y-60004761D01*
X94209523Y-60042857D01*
X94285714Y-60080952D01*
X94590476Y-60080952D01*
X93752380Y-60461904D02*
X93600000Y-60461904D01*
X93523809Y-60423809D01*
X93485714Y-60385714D01*
X93409523Y-60271428D01*
X93371428Y-60119047D01*
X93371428Y-59814285D01*
X93409523Y-59738095D01*
X93447619Y-59700000D01*
X93523809Y-59661904D01*
X93676190Y-59661904D01*
X93752380Y-59700000D01*
X93790476Y-59738095D01*
X93828571Y-59814285D01*
X93828571Y-60004761D01*
X93790476Y-60080952D01*
X93752380Y-60119047D01*
X93676190Y-60157142D01*
X93523809Y-60157142D01*
X93447619Y-60119047D01*
X93409523Y-60080952D01*
X93371428Y-60004761D01*
G04 #@! TO.C,R10*
X97014285Y-60461904D02*
X97280952Y-60080952D01*
X97471428Y-60461904D02*
X97471428Y-59661904D01*
X97166666Y-59661904D01*
X97090476Y-59700000D01*
X97052380Y-59738095D01*
X97014285Y-59814285D01*
X97014285Y-59928571D01*
X97052380Y-60004761D01*
X97090476Y-60042857D01*
X97166666Y-60080952D01*
X97471428Y-60080952D01*
X96252380Y-60461904D02*
X96709523Y-60461904D01*
X96480952Y-60461904D02*
X96480952Y-59661904D01*
X96557142Y-59776190D01*
X96633333Y-59852380D01*
X96709523Y-59890476D01*
X95757142Y-59661904D02*
X95680952Y-59661904D01*
X95604761Y-59700000D01*
X95566666Y-59738095D01*
X95528571Y-59814285D01*
X95490476Y-59966666D01*
X95490476Y-60157142D01*
X95528571Y-60309523D01*
X95566666Y-60385714D01*
X95604761Y-60423809D01*
X95680952Y-60461904D01*
X95757142Y-60461904D01*
X95833333Y-60423809D01*
X95871428Y-60385714D01*
X95909523Y-60309523D01*
X95947619Y-60157142D01*
X95947619Y-59966666D01*
X95909523Y-59814285D01*
X95871428Y-59738095D01*
X95833333Y-59700000D01*
X95757142Y-59661904D01*
G04 #@! TO.C,R11*
X99614285Y-60461904D02*
X99880952Y-60080952D01*
X100071428Y-60461904D02*
X100071428Y-59661904D01*
X99766666Y-59661904D01*
X99690476Y-59700000D01*
X99652380Y-59738095D01*
X99614285Y-59814285D01*
X99614285Y-59928571D01*
X99652380Y-60004761D01*
X99690476Y-60042857D01*
X99766666Y-60080952D01*
X100071428Y-60080952D01*
X98852380Y-60461904D02*
X99309523Y-60461904D01*
X99080952Y-60461904D02*
X99080952Y-59661904D01*
X99157142Y-59776190D01*
X99233333Y-59852380D01*
X99309523Y-59890476D01*
X98090476Y-60461904D02*
X98547619Y-60461904D01*
X98319047Y-60461904D02*
X98319047Y-59661904D01*
X98395238Y-59776190D01*
X98471428Y-59852380D01*
X98547619Y-59890476D01*
G04 #@! TO.C,R12*
X102114285Y-60461904D02*
X102380952Y-60080952D01*
X102571428Y-60461904D02*
X102571428Y-59661904D01*
X102266666Y-59661904D01*
X102190476Y-59700000D01*
X102152380Y-59738095D01*
X102114285Y-59814285D01*
X102114285Y-59928571D01*
X102152380Y-60004761D01*
X102190476Y-60042857D01*
X102266666Y-60080952D01*
X102571428Y-60080952D01*
X101352380Y-60461904D02*
X101809523Y-60461904D01*
X101580952Y-60461904D02*
X101580952Y-59661904D01*
X101657142Y-59776190D01*
X101733333Y-59852380D01*
X101809523Y-59890476D01*
X101047619Y-59738095D02*
X101009523Y-59700000D01*
X100933333Y-59661904D01*
X100742857Y-59661904D01*
X100666666Y-59700000D01*
X100628571Y-59738095D01*
X100590476Y-59814285D01*
X100590476Y-59890476D01*
X100628571Y-60004761D01*
X101085714Y-60461904D01*
X100590476Y-60461904D01*
G04 #@! TO.C,R13*
X104614285Y-60461904D02*
X104880952Y-60080952D01*
X105071428Y-60461904D02*
X105071428Y-59661904D01*
X104766666Y-59661904D01*
X104690476Y-59700000D01*
X104652380Y-59738095D01*
X104614285Y-59814285D01*
X104614285Y-59928571D01*
X104652380Y-60004761D01*
X104690476Y-60042857D01*
X104766666Y-60080952D01*
X105071428Y-60080952D01*
X103852380Y-60461904D02*
X104309523Y-60461904D01*
X104080952Y-60461904D02*
X104080952Y-59661904D01*
X104157142Y-59776190D01*
X104233333Y-59852380D01*
X104309523Y-59890476D01*
X103585714Y-59661904D02*
X103090476Y-59661904D01*
X103357142Y-59966666D01*
X103242857Y-59966666D01*
X103166666Y-60004761D01*
X103128571Y-60042857D01*
X103090476Y-60119047D01*
X103090476Y-60309523D01*
X103128571Y-60385714D01*
X103166666Y-60423809D01*
X103242857Y-60461904D01*
X103471428Y-60461904D01*
X103547619Y-60423809D01*
X103585714Y-60385714D01*
G04 #@! TO.C,Y1*
X98226190Y-75176190D02*
X98226190Y-75652380D01*
X98559523Y-74652380D02*
X98226190Y-75176190D01*
X97892857Y-74652380D01*
X97035714Y-75652380D02*
X97607142Y-75652380D01*
X97321428Y-75652380D02*
X97321428Y-74652380D01*
X97416666Y-74795238D01*
X97511904Y-74890476D01*
X97607142Y-74938095D01*
G04 #@! TD*
M02*
