G04 #@! TF.GenerationSoftware,KiCad,Pcbnew,5.0.0-fee4fd1~65~ubuntu18.04.1*
G04 #@! TF.CreationDate,2018-07-31T22:57:32+02:00*
G04 #@! TF.ProjectId,raspi3-4xWS2812,7261737069332D34785753323831322E,rev?*
G04 #@! TF.SameCoordinates,Original*
G04 #@! TF.FileFunction,Legend,Bot*
G04 #@! TF.FilePolarity,Positive*
%FSLAX46Y46*%
G04 Gerber Fmt 4.6, Leading zero omitted, Abs format (unit mm)*
G04 Created by KiCad (PCBNEW 5.0.0-fee4fd1~65~ubuntu18.04.1) date Tue Jul 31 22:57:32 2018*
%MOMM*%
%LPD*%
G01*
G04 APERTURE LIST*
%ADD10C,0.140000*%
%ADD11C,0.120000*%
%ADD12C,0.150000*%
G04 APERTURE END LIST*
D10*
X96217142Y-63175000D02*
X96817142Y-63175000D01*
X95874285Y-62960714D02*
X96517142Y-62746428D01*
X96517142Y-63303571D01*
X96817142Y-63560714D02*
X96217142Y-64032142D01*
X96217142Y-63560714D02*
X96817142Y-64032142D01*
X95917142Y-64975000D02*
X96817142Y-65189285D01*
X96174285Y-65360714D01*
X96817142Y-65532142D01*
X95917142Y-65746428D01*
X96774285Y-66046428D02*
X96817142Y-66175000D01*
X96817142Y-66389285D01*
X96774285Y-66475000D01*
X96731428Y-66517857D01*
X96645714Y-66560714D01*
X96560000Y-66560714D01*
X96474285Y-66517857D01*
X96431428Y-66475000D01*
X96388571Y-66389285D01*
X96345714Y-66217857D01*
X96302857Y-66132142D01*
X96260000Y-66089285D01*
X96174285Y-66046428D01*
X96088571Y-66046428D01*
X96002857Y-66089285D01*
X95960000Y-66132142D01*
X95917142Y-66217857D01*
X95917142Y-66432142D01*
X95960000Y-66560714D01*
X96002857Y-66903571D02*
X95960000Y-66946428D01*
X95917142Y-67032142D01*
X95917142Y-67246428D01*
X95960000Y-67332142D01*
X96002857Y-67375000D01*
X96088571Y-67417857D01*
X96174285Y-67417857D01*
X96302857Y-67375000D01*
X96817142Y-66860714D01*
X96817142Y-67417857D01*
X96302857Y-67932142D02*
X96260000Y-67846428D01*
X96217142Y-67803571D01*
X96131428Y-67760714D01*
X96088571Y-67760714D01*
X96002857Y-67803571D01*
X95960000Y-67846428D01*
X95917142Y-67932142D01*
X95917142Y-68103571D01*
X95960000Y-68189285D01*
X96002857Y-68232142D01*
X96088571Y-68275000D01*
X96131428Y-68275000D01*
X96217142Y-68232142D01*
X96260000Y-68189285D01*
X96302857Y-68103571D01*
X96302857Y-67932142D01*
X96345714Y-67846428D01*
X96388571Y-67803571D01*
X96474285Y-67760714D01*
X96645714Y-67760714D01*
X96731428Y-67803571D01*
X96774285Y-67846428D01*
X96817142Y-67932142D01*
X96817142Y-68103571D01*
X96774285Y-68189285D01*
X96731428Y-68232142D01*
X96645714Y-68275000D01*
X96474285Y-68275000D01*
X96388571Y-68232142D01*
X96345714Y-68189285D01*
X96302857Y-68103571D01*
X96817142Y-69132142D02*
X96817142Y-68617857D01*
X96817142Y-68875000D02*
X95917142Y-68875000D01*
X96045714Y-68789285D01*
X96131428Y-68703571D01*
X96174285Y-68617857D01*
X96002857Y-69475000D02*
X95960000Y-69517857D01*
X95917142Y-69603571D01*
X95917142Y-69817857D01*
X95960000Y-69903571D01*
X96002857Y-69946428D01*
X96088571Y-69989285D01*
X96174285Y-69989285D01*
X96302857Y-69946428D01*
X96817142Y-69432142D01*
X96817142Y-69989285D01*
X96817142Y-71060714D02*
X96217142Y-71060714D01*
X96388571Y-71060714D02*
X96302857Y-71103571D01*
X96260000Y-71146428D01*
X96217142Y-71232142D01*
X96217142Y-71317857D01*
X96817142Y-72003571D02*
X96345714Y-72003571D01*
X96260000Y-71960714D01*
X96217142Y-71875000D01*
X96217142Y-71703571D01*
X96260000Y-71617857D01*
X96774285Y-72003571D02*
X96817142Y-71917857D01*
X96817142Y-71703571D01*
X96774285Y-71617857D01*
X96688571Y-71575000D01*
X96602857Y-71575000D01*
X96517142Y-71617857D01*
X96474285Y-71703571D01*
X96474285Y-71917857D01*
X96431428Y-72003571D01*
X96774285Y-72389285D02*
X96817142Y-72475000D01*
X96817142Y-72646428D01*
X96774285Y-72732142D01*
X96688571Y-72775000D01*
X96645714Y-72775000D01*
X96560000Y-72732142D01*
X96517142Y-72646428D01*
X96517142Y-72517857D01*
X96474285Y-72432142D01*
X96388571Y-72389285D01*
X96345714Y-72389285D01*
X96260000Y-72432142D01*
X96217142Y-72517857D01*
X96217142Y-72646428D01*
X96260000Y-72732142D01*
X96217142Y-73160714D02*
X97117142Y-73160714D01*
X96260000Y-73160714D02*
X96217142Y-73246428D01*
X96217142Y-73417857D01*
X96260000Y-73503571D01*
X96302857Y-73546428D01*
X96388571Y-73589285D01*
X96645714Y-73589285D01*
X96731428Y-73546428D01*
X96774285Y-73503571D01*
X96817142Y-73417857D01*
X96817142Y-73246428D01*
X96774285Y-73160714D01*
X96817142Y-73975000D02*
X96217142Y-73975000D01*
X95917142Y-73975000D02*
X95960000Y-73932142D01*
X96002857Y-73975000D01*
X95960000Y-74017857D01*
X95917142Y-73975000D01*
X96002857Y-73975000D01*
X96817142Y-75089285D02*
X95917142Y-75089285D01*
X96817142Y-75475000D02*
X96345714Y-75475000D01*
X96260000Y-75432142D01*
X96217142Y-75346428D01*
X96217142Y-75217857D01*
X96260000Y-75132142D01*
X96302857Y-75089285D01*
X96817142Y-76289285D02*
X96345714Y-76289285D01*
X96260000Y-76246428D01*
X96217142Y-76160714D01*
X96217142Y-75989285D01*
X96260000Y-75903571D01*
X96774285Y-76289285D02*
X96817142Y-76203571D01*
X96817142Y-75989285D01*
X96774285Y-75903571D01*
X96688571Y-75860714D01*
X96602857Y-75860714D01*
X96517142Y-75903571D01*
X96474285Y-75989285D01*
X96474285Y-76203571D01*
X96431428Y-76289285D01*
X96217142Y-76589285D02*
X96217142Y-76932142D01*
X95917142Y-76717857D02*
X96688571Y-76717857D01*
X96774285Y-76760714D01*
X96817142Y-76846428D01*
X96817142Y-76932142D01*
X96217142Y-77832142D02*
X96817142Y-78046428D01*
X96217142Y-78260714D01*
X95917142Y-78775000D02*
X95917142Y-78860714D01*
X95960000Y-78946428D01*
X96002857Y-78989285D01*
X96088571Y-79032142D01*
X96260000Y-79075000D01*
X96474285Y-79075000D01*
X96645714Y-79032142D01*
X96731428Y-78989285D01*
X96774285Y-78946428D01*
X96817142Y-78860714D01*
X96817142Y-78775000D01*
X96774285Y-78689285D01*
X96731428Y-78646428D01*
X96645714Y-78603571D01*
X96474285Y-78560714D01*
X96260000Y-78560714D01*
X96088571Y-78603571D01*
X96002857Y-78646428D01*
X95960000Y-78689285D01*
X95917142Y-78775000D01*
X96731428Y-79460714D02*
X96774285Y-79503571D01*
X96817142Y-79460714D01*
X96774285Y-79417857D01*
X96731428Y-79460714D01*
X96817142Y-79460714D01*
X95917142Y-79803571D02*
X95917142Y-80360714D01*
X96260000Y-80060714D01*
X96260000Y-80189285D01*
X96302857Y-80275000D01*
X96345714Y-80317857D01*
X96431428Y-80360714D01*
X96645714Y-80360714D01*
X96731428Y-80317857D01*
X96774285Y-80275000D01*
X96817142Y-80189285D01*
X96817142Y-79932142D01*
X96774285Y-79846428D01*
X96731428Y-79803571D01*
X98307142Y-62789285D02*
X97407142Y-62789285D01*
X98307142Y-63175000D02*
X97835714Y-63175000D01*
X97750000Y-63132142D01*
X97707142Y-63046428D01*
X97707142Y-62917857D01*
X97750000Y-62832142D01*
X97792857Y-62789285D01*
X97707142Y-63475000D02*
X97707142Y-63817857D01*
X97407142Y-63603571D02*
X98178571Y-63603571D01*
X98264285Y-63646428D01*
X98307142Y-63732142D01*
X98307142Y-63817857D01*
X97707142Y-63989285D02*
X97707142Y-64332142D01*
X97407142Y-64117857D02*
X98178571Y-64117857D01*
X98264285Y-64160714D01*
X98307142Y-64246428D01*
X98307142Y-64332142D01*
X97707142Y-64632142D02*
X98607142Y-64632142D01*
X97750000Y-64632142D02*
X97707142Y-64717857D01*
X97707142Y-64889285D01*
X97750000Y-64975000D01*
X97792857Y-65017857D01*
X97878571Y-65060714D01*
X98135714Y-65060714D01*
X98221428Y-65017857D01*
X98264285Y-64975000D01*
X98307142Y-64889285D01*
X98307142Y-64717857D01*
X98264285Y-64632142D01*
X98264285Y-65403571D02*
X98307142Y-65489285D01*
X98307142Y-65660714D01*
X98264285Y-65746428D01*
X98178571Y-65789285D01*
X98135714Y-65789285D01*
X98050000Y-65746428D01*
X98007142Y-65660714D01*
X98007142Y-65532142D01*
X97964285Y-65446428D01*
X97878571Y-65403571D01*
X97835714Y-65403571D01*
X97750000Y-65446428D01*
X97707142Y-65532142D01*
X97707142Y-65660714D01*
X97750000Y-65746428D01*
X98221428Y-66175000D02*
X98264285Y-66217857D01*
X98307142Y-66175000D01*
X98264285Y-66132142D01*
X98221428Y-66175000D01*
X98307142Y-66175000D01*
X97750000Y-66175000D02*
X97792857Y-66217857D01*
X97835714Y-66175000D01*
X97792857Y-66132142D01*
X97750000Y-66175000D01*
X97835714Y-66175000D01*
X97364285Y-67246428D02*
X98521428Y-66475000D01*
X97364285Y-68189285D02*
X98521428Y-67417857D01*
X98307142Y-68489285D02*
X97407142Y-68489285D01*
X97750000Y-68489285D02*
X97707142Y-68575000D01*
X97707142Y-68746428D01*
X97750000Y-68832142D01*
X97792857Y-68875000D01*
X97878571Y-68917857D01*
X98135714Y-68917857D01*
X98221428Y-68875000D01*
X98264285Y-68832142D01*
X98307142Y-68746428D01*
X98307142Y-68575000D01*
X98264285Y-68489285D01*
X97707142Y-69217857D02*
X98307142Y-69432142D01*
X97707142Y-69646428D02*
X98307142Y-69432142D01*
X98521428Y-69346428D01*
X98564285Y-69303571D01*
X98607142Y-69217857D01*
X97707142Y-69860714D02*
X97707142Y-70203571D01*
X97407142Y-69989285D02*
X98178571Y-69989285D01*
X98264285Y-70032142D01*
X98307142Y-70117857D01*
X98307142Y-70203571D01*
X98264285Y-70846428D02*
X98307142Y-70760714D01*
X98307142Y-70589285D01*
X98264285Y-70503571D01*
X98178571Y-70460714D01*
X97835714Y-70460714D01*
X97750000Y-70503571D01*
X97707142Y-70589285D01*
X97707142Y-70760714D01*
X97750000Y-70846428D01*
X97835714Y-70889285D01*
X97921428Y-70889285D01*
X98007142Y-70460714D01*
X97707142Y-71189285D02*
X98307142Y-71360714D01*
X97878571Y-71532142D01*
X98307142Y-71703571D01*
X97707142Y-71875000D01*
X98264285Y-72560714D02*
X98307142Y-72475000D01*
X98307142Y-72303571D01*
X98264285Y-72217857D01*
X98178571Y-72175000D01*
X97835714Y-72175000D01*
X97750000Y-72217857D01*
X97707142Y-72303571D01*
X97707142Y-72475000D01*
X97750000Y-72560714D01*
X97835714Y-72603571D01*
X97921428Y-72603571D01*
X98007142Y-72175000D01*
X98307142Y-72989285D02*
X97707142Y-72989285D01*
X97878571Y-72989285D02*
X97792857Y-73032142D01*
X97750000Y-73075000D01*
X97707142Y-73160714D01*
X97707142Y-73246428D01*
X98307142Y-73546428D02*
X97407142Y-73546428D01*
X97964285Y-73632142D02*
X98307142Y-73889285D01*
X97707142Y-73889285D02*
X98050000Y-73546428D01*
X98221428Y-74275000D02*
X98264285Y-74317857D01*
X98307142Y-74275000D01*
X98264285Y-74232142D01*
X98221428Y-74275000D01*
X98307142Y-74275000D01*
X98307142Y-74832142D02*
X98264285Y-74746428D01*
X98221428Y-74703571D01*
X98135714Y-74660714D01*
X97878571Y-74660714D01*
X97792857Y-74703571D01*
X97750000Y-74746428D01*
X97707142Y-74832142D01*
X97707142Y-74960714D01*
X97750000Y-75046428D01*
X97792857Y-75089285D01*
X97878571Y-75132142D01*
X98135714Y-75132142D01*
X98221428Y-75089285D01*
X98264285Y-75046428D01*
X98307142Y-74960714D01*
X98307142Y-74832142D01*
X98307142Y-75517857D02*
X97707142Y-75517857D01*
X97878571Y-75517857D02*
X97792857Y-75560714D01*
X97750000Y-75603571D01*
X97707142Y-75689285D01*
X97707142Y-75775000D01*
X97707142Y-76460714D02*
X98435714Y-76460714D01*
X98521428Y-76417857D01*
X98564285Y-76375000D01*
X98607142Y-76289285D01*
X98607142Y-76160714D01*
X98564285Y-76075000D01*
X98264285Y-76460714D02*
X98307142Y-76375000D01*
X98307142Y-76203571D01*
X98264285Y-76117857D01*
X98221428Y-76075000D01*
X98135714Y-76032142D01*
X97878571Y-76032142D01*
X97792857Y-76075000D01*
X97750000Y-76117857D01*
X97707142Y-76203571D01*
X97707142Y-76375000D01*
X97750000Y-76460714D01*
X97364285Y-77532142D02*
X98521428Y-76760714D01*
D11*
G04 #@! TO.C,R8*
X104650000Y-57622221D02*
X104650000Y-57947779D01*
X103630000Y-57622221D02*
X103630000Y-57947779D01*
G04 #@! TO.C,R5*
X96010000Y-57622221D02*
X96010000Y-57947779D01*
X97030000Y-57622221D02*
X97030000Y-57947779D01*
G04 #@! TO.C,R6*
X99570000Y-57622221D02*
X99570000Y-57947779D01*
X98550000Y-57622221D02*
X98550000Y-57947779D01*
G04 #@! TO.C,R7*
X101090000Y-57622221D02*
X101090000Y-57947779D01*
X102110000Y-57622221D02*
X102110000Y-57947779D01*
G04 #@! TO.C,C10*
X103634000Y-85252779D02*
X103634000Y-84927221D01*
X102614000Y-85252779D02*
X102614000Y-84927221D01*
G04 #@! TO.C,C1*
X101090000Y-74610279D02*
X101090000Y-74284721D01*
X102110000Y-74610279D02*
X102110000Y-74284721D01*
G04 #@! TO.C,C2*
X100586000Y-74610279D02*
X100586000Y-74284721D01*
X99566000Y-74610279D02*
X99566000Y-74284721D01*
G04 #@! TO.C,C3*
X105158000Y-67274221D02*
X105158000Y-67599779D01*
X104138000Y-67274221D02*
X104138000Y-67599779D01*
G04 #@! TO.C,C4*
X102110000Y-85227279D02*
X102110000Y-84901721D01*
X101090000Y-85227279D02*
X101090000Y-84901721D01*
G04 #@! TO.C,C5*
X103634000Y-81853721D02*
X103634000Y-82179279D01*
X102614000Y-81853721D02*
X102614000Y-82179279D01*
G04 #@! TO.C,C6*
X100586000Y-85227279D02*
X100586000Y-84901721D01*
X99566000Y-85227279D02*
X99566000Y-84901721D01*
G04 #@! TO.C,C7*
X96518000Y-85227279D02*
X96518000Y-84901721D01*
X97538000Y-85227279D02*
X97538000Y-84901721D01*
G04 #@! TO.C,C8*
X101090000Y-81853721D02*
X101090000Y-82179279D01*
X102110000Y-81853721D02*
X102110000Y-82179279D01*
G04 #@! TO.C,C9*
X104138000Y-82179279D02*
X104138000Y-81853721D01*
X105158000Y-82179279D02*
X105158000Y-81853721D01*
G04 #@! TO.C,R3*
X97284000Y-92547221D02*
X97284000Y-92872779D01*
X96264000Y-92547221D02*
X96264000Y-92872779D01*
G04 #@! TO.C,R4*
X98042000Y-92547221D02*
X98042000Y-92872779D01*
X99062000Y-92547221D02*
X99062000Y-92872779D01*
G04 #@! TO.C,R1*
X105158000Y-84901721D02*
X105158000Y-85227279D01*
X104138000Y-84901721D02*
X104138000Y-85227279D01*
G04 #@! TO.C,R2*
X98042000Y-84901721D02*
X98042000Y-85227279D01*
X99062000Y-84901721D02*
X99062000Y-85227279D01*
G04 #@! TO.C,R8*
D12*
X104592380Y-60158333D02*
X104116190Y-59825000D01*
X104592380Y-59586904D02*
X103592380Y-59586904D01*
X103592380Y-59967857D01*
X103640000Y-60063095D01*
X103687619Y-60110714D01*
X103782857Y-60158333D01*
X103925714Y-60158333D01*
X104020952Y-60110714D01*
X104068571Y-60063095D01*
X104116190Y-59967857D01*
X104116190Y-59586904D01*
X104020952Y-60729761D02*
X103973333Y-60634523D01*
X103925714Y-60586904D01*
X103830476Y-60539285D01*
X103782857Y-60539285D01*
X103687619Y-60586904D01*
X103640000Y-60634523D01*
X103592380Y-60729761D01*
X103592380Y-60920238D01*
X103640000Y-61015476D01*
X103687619Y-61063095D01*
X103782857Y-61110714D01*
X103830476Y-61110714D01*
X103925714Y-61063095D01*
X103973333Y-61015476D01*
X104020952Y-60920238D01*
X104020952Y-60729761D01*
X104068571Y-60634523D01*
X104116190Y-60586904D01*
X104211428Y-60539285D01*
X104401904Y-60539285D01*
X104497142Y-60586904D01*
X104544761Y-60634523D01*
X104592380Y-60729761D01*
X104592380Y-60920238D01*
X104544761Y-61015476D01*
X104497142Y-61063095D01*
X104401904Y-61110714D01*
X104211428Y-61110714D01*
X104116190Y-61063095D01*
X104068571Y-61015476D01*
X104020952Y-60920238D01*
G04 #@! TO.C,R5*
X96972380Y-60158333D02*
X96496190Y-59825000D01*
X96972380Y-59586904D02*
X95972380Y-59586904D01*
X95972380Y-59967857D01*
X96020000Y-60063095D01*
X96067619Y-60110714D01*
X96162857Y-60158333D01*
X96305714Y-60158333D01*
X96400952Y-60110714D01*
X96448571Y-60063095D01*
X96496190Y-59967857D01*
X96496190Y-59586904D01*
X95972380Y-61063095D02*
X95972380Y-60586904D01*
X96448571Y-60539285D01*
X96400952Y-60586904D01*
X96353333Y-60682142D01*
X96353333Y-60920238D01*
X96400952Y-61015476D01*
X96448571Y-61063095D01*
X96543809Y-61110714D01*
X96781904Y-61110714D01*
X96877142Y-61063095D01*
X96924761Y-61015476D01*
X96972380Y-60920238D01*
X96972380Y-60682142D01*
X96924761Y-60586904D01*
X96877142Y-60539285D01*
G04 #@! TO.C,R6*
X99512380Y-60158333D02*
X99036190Y-59825000D01*
X99512380Y-59586904D02*
X98512380Y-59586904D01*
X98512380Y-59967857D01*
X98560000Y-60063095D01*
X98607619Y-60110714D01*
X98702857Y-60158333D01*
X98845714Y-60158333D01*
X98940952Y-60110714D01*
X98988571Y-60063095D01*
X99036190Y-59967857D01*
X99036190Y-59586904D01*
X98512380Y-61015476D02*
X98512380Y-60825000D01*
X98560000Y-60729761D01*
X98607619Y-60682142D01*
X98750476Y-60586904D01*
X98940952Y-60539285D01*
X99321904Y-60539285D01*
X99417142Y-60586904D01*
X99464761Y-60634523D01*
X99512380Y-60729761D01*
X99512380Y-60920238D01*
X99464761Y-61015476D01*
X99417142Y-61063095D01*
X99321904Y-61110714D01*
X99083809Y-61110714D01*
X98988571Y-61063095D01*
X98940952Y-61015476D01*
X98893333Y-60920238D01*
X98893333Y-60729761D01*
X98940952Y-60634523D01*
X98988571Y-60586904D01*
X99083809Y-60539285D01*
G04 #@! TO.C,R7*
X102052380Y-60158333D02*
X101576190Y-59825000D01*
X102052380Y-59586904D02*
X101052380Y-59586904D01*
X101052380Y-59967857D01*
X101100000Y-60063095D01*
X101147619Y-60110714D01*
X101242857Y-60158333D01*
X101385714Y-60158333D01*
X101480952Y-60110714D01*
X101528571Y-60063095D01*
X101576190Y-59967857D01*
X101576190Y-59586904D01*
X101052380Y-60491666D02*
X101052380Y-61158333D01*
X102052380Y-60729761D01*
G04 #@! TO.C,C10*
X103481142Y-87368142D02*
X103528761Y-87320523D01*
X103576380Y-87177666D01*
X103576380Y-87082428D01*
X103528761Y-86939571D01*
X103433523Y-86844333D01*
X103338285Y-86796714D01*
X103147809Y-86749095D01*
X103004952Y-86749095D01*
X102814476Y-86796714D01*
X102719238Y-86844333D01*
X102624000Y-86939571D01*
X102576380Y-87082428D01*
X102576380Y-87177666D01*
X102624000Y-87320523D01*
X102671619Y-87368142D01*
X103576380Y-88320523D02*
X103576380Y-87749095D01*
X103576380Y-88034809D02*
X102576380Y-88034809D01*
X102719238Y-87939571D01*
X102814476Y-87844333D01*
X102862095Y-87749095D01*
X102576380Y-88939571D02*
X102576380Y-89034809D01*
X102624000Y-89130047D01*
X102671619Y-89177666D01*
X102766857Y-89225285D01*
X102957333Y-89272904D01*
X103195428Y-89272904D01*
X103385904Y-89225285D01*
X103481142Y-89177666D01*
X103528761Y-89130047D01*
X103576380Y-89034809D01*
X103576380Y-88939571D01*
X103528761Y-88844333D01*
X103481142Y-88796714D01*
X103385904Y-88749095D01*
X103195428Y-88701476D01*
X102957333Y-88701476D01*
X102766857Y-88749095D01*
X102671619Y-88796714D01*
X102624000Y-88844333D01*
X102576380Y-88939571D01*
G04 #@! TO.C,C1*
X101957142Y-71842333D02*
X102004761Y-71794714D01*
X102052380Y-71651857D01*
X102052380Y-71556619D01*
X102004761Y-71413761D01*
X101909523Y-71318523D01*
X101814285Y-71270904D01*
X101623809Y-71223285D01*
X101480952Y-71223285D01*
X101290476Y-71270904D01*
X101195238Y-71318523D01*
X101100000Y-71413761D01*
X101052380Y-71556619D01*
X101052380Y-71651857D01*
X101100000Y-71794714D01*
X101147619Y-71842333D01*
X102052380Y-72794714D02*
X102052380Y-72223285D01*
X102052380Y-72509000D02*
X101052380Y-72509000D01*
X101195238Y-72413761D01*
X101290476Y-72318523D01*
X101338095Y-72223285D01*
G04 #@! TO.C,C2*
X100433142Y-71842333D02*
X100480761Y-71794714D01*
X100528380Y-71651857D01*
X100528380Y-71556619D01*
X100480761Y-71413761D01*
X100385523Y-71318523D01*
X100290285Y-71270904D01*
X100099809Y-71223285D01*
X99956952Y-71223285D01*
X99766476Y-71270904D01*
X99671238Y-71318523D01*
X99576000Y-71413761D01*
X99528380Y-71556619D01*
X99528380Y-71651857D01*
X99576000Y-71794714D01*
X99623619Y-71842333D01*
X99623619Y-72223285D02*
X99576000Y-72270904D01*
X99528380Y-72366142D01*
X99528380Y-72604238D01*
X99576000Y-72699476D01*
X99623619Y-72747095D01*
X99718857Y-72794714D01*
X99814095Y-72794714D01*
X99956952Y-72747095D01*
X100528380Y-72175666D01*
X100528380Y-72794714D01*
G04 #@! TO.C,C3*
X105005142Y-69657833D02*
X105052761Y-69610214D01*
X105100380Y-69467357D01*
X105100380Y-69372119D01*
X105052761Y-69229261D01*
X104957523Y-69134023D01*
X104862285Y-69086404D01*
X104671809Y-69038785D01*
X104528952Y-69038785D01*
X104338476Y-69086404D01*
X104243238Y-69134023D01*
X104148000Y-69229261D01*
X104100380Y-69372119D01*
X104100380Y-69467357D01*
X104148000Y-69610214D01*
X104195619Y-69657833D01*
X104100380Y-69991166D02*
X104100380Y-70610214D01*
X104481333Y-70276880D01*
X104481333Y-70419738D01*
X104528952Y-70514976D01*
X104576571Y-70562595D01*
X104671809Y-70610214D01*
X104909904Y-70610214D01*
X105005142Y-70562595D01*
X105052761Y-70514976D01*
X105100380Y-70419738D01*
X105100380Y-70134023D01*
X105052761Y-70038785D01*
X105005142Y-69991166D01*
G04 #@! TO.C,C4*
X101957142Y-87336333D02*
X102004761Y-87288714D01*
X102052380Y-87145857D01*
X102052380Y-87050619D01*
X102004761Y-86907761D01*
X101909523Y-86812523D01*
X101814285Y-86764904D01*
X101623809Y-86717285D01*
X101480952Y-86717285D01*
X101290476Y-86764904D01*
X101195238Y-86812523D01*
X101100000Y-86907761D01*
X101052380Y-87050619D01*
X101052380Y-87145857D01*
X101100000Y-87288714D01*
X101147619Y-87336333D01*
X101385714Y-88193476D02*
X102052380Y-88193476D01*
X101004761Y-87955380D02*
X101719047Y-87717285D01*
X101719047Y-88336333D01*
G04 #@! TO.C,C5*
X103481142Y-79462333D02*
X103528761Y-79414714D01*
X103576380Y-79271857D01*
X103576380Y-79176619D01*
X103528761Y-79033761D01*
X103433523Y-78938523D01*
X103338285Y-78890904D01*
X103147809Y-78843285D01*
X103004952Y-78843285D01*
X102814476Y-78890904D01*
X102719238Y-78938523D01*
X102624000Y-79033761D01*
X102576380Y-79176619D01*
X102576380Y-79271857D01*
X102624000Y-79414714D01*
X102671619Y-79462333D01*
X102576380Y-80367095D02*
X102576380Y-79890904D01*
X103052571Y-79843285D01*
X103004952Y-79890904D01*
X102957333Y-79986142D01*
X102957333Y-80224238D01*
X103004952Y-80319476D01*
X103052571Y-80367095D01*
X103147809Y-80414714D01*
X103385904Y-80414714D01*
X103481142Y-80367095D01*
X103528761Y-80319476D01*
X103576380Y-80224238D01*
X103576380Y-79986142D01*
X103528761Y-79890904D01*
X103481142Y-79843285D01*
G04 #@! TO.C,C6*
X100433142Y-82510333D02*
X100480761Y-82462714D01*
X100528380Y-82319857D01*
X100528380Y-82224619D01*
X100480761Y-82081761D01*
X100385523Y-81986523D01*
X100290285Y-81938904D01*
X100099809Y-81891285D01*
X99956952Y-81891285D01*
X99766476Y-81938904D01*
X99671238Y-81986523D01*
X99576000Y-82081761D01*
X99528380Y-82224619D01*
X99528380Y-82319857D01*
X99576000Y-82462714D01*
X99623619Y-82510333D01*
X99528380Y-83367476D02*
X99528380Y-83177000D01*
X99576000Y-83081761D01*
X99623619Y-83034142D01*
X99766476Y-82938904D01*
X99956952Y-82891285D01*
X100337904Y-82891285D01*
X100433142Y-82938904D01*
X100480761Y-82986523D01*
X100528380Y-83081761D01*
X100528380Y-83272238D01*
X100480761Y-83367476D01*
X100433142Y-83415095D01*
X100337904Y-83462714D01*
X100099809Y-83462714D01*
X100004571Y-83415095D01*
X99956952Y-83367476D01*
X99909333Y-83272238D01*
X99909333Y-83081761D01*
X99956952Y-82986523D01*
X100004571Y-82938904D01*
X100099809Y-82891285D01*
G04 #@! TO.C,C7*
X97385142Y-82510333D02*
X97432761Y-82462714D01*
X97480380Y-82319857D01*
X97480380Y-82224619D01*
X97432761Y-82081761D01*
X97337523Y-81986523D01*
X97242285Y-81938904D01*
X97051809Y-81891285D01*
X96908952Y-81891285D01*
X96718476Y-81938904D01*
X96623238Y-81986523D01*
X96528000Y-82081761D01*
X96480380Y-82224619D01*
X96480380Y-82319857D01*
X96528000Y-82462714D01*
X96575619Y-82510333D01*
X96480380Y-82843666D02*
X96480380Y-83510333D01*
X97480380Y-83081761D01*
G04 #@! TO.C,C8*
X101957142Y-79462333D02*
X102004761Y-79414714D01*
X102052380Y-79271857D01*
X102052380Y-79176619D01*
X102004761Y-79033761D01*
X101909523Y-78938523D01*
X101814285Y-78890904D01*
X101623809Y-78843285D01*
X101480952Y-78843285D01*
X101290476Y-78890904D01*
X101195238Y-78938523D01*
X101100000Y-79033761D01*
X101052380Y-79176619D01*
X101052380Y-79271857D01*
X101100000Y-79414714D01*
X101147619Y-79462333D01*
X101480952Y-80033761D02*
X101433333Y-79938523D01*
X101385714Y-79890904D01*
X101290476Y-79843285D01*
X101242857Y-79843285D01*
X101147619Y-79890904D01*
X101100000Y-79938523D01*
X101052380Y-80033761D01*
X101052380Y-80224238D01*
X101100000Y-80319476D01*
X101147619Y-80367095D01*
X101242857Y-80414714D01*
X101290476Y-80414714D01*
X101385714Y-80367095D01*
X101433333Y-80319476D01*
X101480952Y-80224238D01*
X101480952Y-80033761D01*
X101528571Y-79938523D01*
X101576190Y-79890904D01*
X101671428Y-79843285D01*
X101861904Y-79843285D01*
X101957142Y-79890904D01*
X102004761Y-79938523D01*
X102052380Y-80033761D01*
X102052380Y-80224238D01*
X102004761Y-80319476D01*
X101957142Y-80367095D01*
X101861904Y-80414714D01*
X101671428Y-80414714D01*
X101576190Y-80367095D01*
X101528571Y-80319476D01*
X101480952Y-80224238D01*
G04 #@! TO.C,C9*
X105005142Y-79462333D02*
X105052761Y-79414714D01*
X105100380Y-79271857D01*
X105100380Y-79176619D01*
X105052761Y-79033761D01*
X104957523Y-78938523D01*
X104862285Y-78890904D01*
X104671809Y-78843285D01*
X104528952Y-78843285D01*
X104338476Y-78890904D01*
X104243238Y-78938523D01*
X104148000Y-79033761D01*
X104100380Y-79176619D01*
X104100380Y-79271857D01*
X104148000Y-79414714D01*
X104195619Y-79462333D01*
X105100380Y-79938523D02*
X105100380Y-80129000D01*
X105052761Y-80224238D01*
X105005142Y-80271857D01*
X104862285Y-80367095D01*
X104671809Y-80414714D01*
X104290857Y-80414714D01*
X104195619Y-80367095D01*
X104148000Y-80319476D01*
X104100380Y-80224238D01*
X104100380Y-80033761D01*
X104148000Y-79938523D01*
X104195619Y-79890904D01*
X104290857Y-79843285D01*
X104528952Y-79843285D01*
X104624190Y-79890904D01*
X104671809Y-79938523D01*
X104719428Y-80033761D01*
X104719428Y-80224238D01*
X104671809Y-80319476D01*
X104624190Y-80367095D01*
X104528952Y-80414714D01*
G04 #@! TO.C,R3*
X97226380Y-90130333D02*
X96750190Y-89797000D01*
X97226380Y-89558904D02*
X96226380Y-89558904D01*
X96226380Y-89939857D01*
X96274000Y-90035095D01*
X96321619Y-90082714D01*
X96416857Y-90130333D01*
X96559714Y-90130333D01*
X96654952Y-90082714D01*
X96702571Y-90035095D01*
X96750190Y-89939857D01*
X96750190Y-89558904D01*
X96226380Y-90463666D02*
X96226380Y-91082714D01*
X96607333Y-90749380D01*
X96607333Y-90892238D01*
X96654952Y-90987476D01*
X96702571Y-91035095D01*
X96797809Y-91082714D01*
X97035904Y-91082714D01*
X97131142Y-91035095D01*
X97178761Y-90987476D01*
X97226380Y-90892238D01*
X97226380Y-90606523D01*
X97178761Y-90511285D01*
X97131142Y-90463666D01*
G04 #@! TO.C,R4*
X99004380Y-90130333D02*
X98528190Y-89797000D01*
X99004380Y-89558904D02*
X98004380Y-89558904D01*
X98004380Y-89939857D01*
X98052000Y-90035095D01*
X98099619Y-90082714D01*
X98194857Y-90130333D01*
X98337714Y-90130333D01*
X98432952Y-90082714D01*
X98480571Y-90035095D01*
X98528190Y-89939857D01*
X98528190Y-89558904D01*
X98337714Y-90987476D02*
X99004380Y-90987476D01*
X97956761Y-90749380D02*
X98671047Y-90511285D01*
X98671047Y-91130333D01*
G04 #@! TO.C,R1*
X105100380Y-87336333D02*
X104624190Y-87003000D01*
X105100380Y-86764904D02*
X104100380Y-86764904D01*
X104100380Y-87145857D01*
X104148000Y-87241095D01*
X104195619Y-87288714D01*
X104290857Y-87336333D01*
X104433714Y-87336333D01*
X104528952Y-87288714D01*
X104576571Y-87241095D01*
X104624190Y-87145857D01*
X104624190Y-86764904D01*
X105100380Y-88288714D02*
X105100380Y-87717285D01*
X105100380Y-88003000D02*
X104100380Y-88003000D01*
X104243238Y-87907761D01*
X104338476Y-87812523D01*
X104386095Y-87717285D01*
G04 #@! TO.C,R2*
X99004380Y-82510333D02*
X98528190Y-82177000D01*
X99004380Y-81938904D02*
X98004380Y-81938904D01*
X98004380Y-82319857D01*
X98052000Y-82415095D01*
X98099619Y-82462714D01*
X98194857Y-82510333D01*
X98337714Y-82510333D01*
X98432952Y-82462714D01*
X98480571Y-82415095D01*
X98528190Y-82319857D01*
X98528190Y-81938904D01*
X98099619Y-82891285D02*
X98052000Y-82938904D01*
X98004380Y-83034142D01*
X98004380Y-83272238D01*
X98052000Y-83367476D01*
X98099619Y-83415095D01*
X98194857Y-83462714D01*
X98290095Y-83462714D01*
X98432952Y-83415095D01*
X99004380Y-82843666D01*
X99004380Y-83462714D01*
G04 #@! TD*
M02*
