G04 #@! TF.GenerationSoftware,KiCad,Pcbnew,5.0.0-rc2-unknown-dd436b6~65~ubuntu18.04.1*
G04 #@! TF.CreationDate,2018-06-27T22:19:06+02:00*
G04 #@! TF.ProjectId,raspi3-4xWS2812-lvds,7261737069332D34785753323831322D,rev?*
G04 #@! TF.SameCoordinates,Original*
G04 #@! TF.FileFunction,Soldermask,Top*
G04 #@! TF.FilePolarity,Negative*
%FSLAX46Y46*%
G04 Gerber Fmt 4.6, Leading zero omitted, Abs format (unit mm)*
G04 Created by KiCad (PCBNEW 5.0.0-rc2-unknown-dd436b6~65~ubuntu18.04.1) date Wed Jun 27 22:19:06 2018*
%MOMM*%
%LPD*%
G01*
G04 APERTURE LIST*
%ADD10R,1.101600X1.101600*%
%ADD11O,1.101600X1.101600*%
%ADD12R,1.801600X1.801600*%
%ADD13O,1.801600X1.801600*%
%ADD14R,0.701600X1.601600*%
%ADD15C,0.100000*%
%ADD16C,0.976600*%
%ADD17C,1.251600*%
%ADD18R,1.401600X0.351600*%
%ADD19R,0.351600X1.401600*%
%ADD20R,0.701600X1.651600*%
G04 APERTURE END LIST*
D10*
G04 #@! TO.C,J1*
X102300000Y-90700000D03*
D11*
X102300000Y-91970000D03*
X101030000Y-90700000D03*
X101030000Y-91970000D03*
X99760000Y-90700000D03*
X99760000Y-91970000D03*
X98490000Y-90700000D03*
X98490000Y-91970000D03*
X97220000Y-90700000D03*
X97220000Y-91970000D03*
G04 #@! TD*
D12*
G04 #@! TO.C,J3*
X86360000Y-54610000D03*
D13*
X86360000Y-52070000D03*
X88900000Y-54610000D03*
X88900000Y-52070000D03*
X91440000Y-54610000D03*
X91440000Y-52070000D03*
X93980000Y-54610000D03*
X93980000Y-52070000D03*
X96520000Y-54610000D03*
X96520000Y-52070000D03*
X99060000Y-54610000D03*
X99060000Y-52070000D03*
X101600000Y-54610000D03*
X101600000Y-52070000D03*
X104140000Y-54610000D03*
X104140000Y-52070000D03*
G04 #@! TD*
D14*
G04 #@! TO.C,U4*
X97690000Y-72700000D03*
X98960000Y-72700000D03*
X100230000Y-72700000D03*
X101500000Y-72700000D03*
X102770000Y-72700000D03*
X104040000Y-72700000D03*
X105310000Y-72700000D03*
X105310000Y-67300000D03*
X104040000Y-67300000D03*
X102770000Y-67300000D03*
X101500000Y-67300000D03*
X100230000Y-67300000D03*
X98960000Y-67300000D03*
X97690000Y-67300000D03*
G04 #@! TD*
D15*
G04 #@! TO.C,D1*
G36*
X93583581Y-89225376D02*
X93607281Y-89228891D01*
X93630523Y-89234713D01*
X93653082Y-89242785D01*
X93674742Y-89253029D01*
X93695292Y-89265347D01*
X93714537Y-89279619D01*
X93732290Y-89295710D01*
X93748381Y-89313463D01*
X93762653Y-89332708D01*
X93774971Y-89353258D01*
X93785215Y-89374918D01*
X93793287Y-89397477D01*
X93799109Y-89420719D01*
X93802624Y-89444419D01*
X93803800Y-89468350D01*
X93803800Y-89956650D01*
X93802624Y-89980581D01*
X93799109Y-90004281D01*
X93793287Y-90027523D01*
X93785215Y-90050082D01*
X93774971Y-90071742D01*
X93762653Y-90092292D01*
X93748381Y-90111537D01*
X93732290Y-90129290D01*
X93714537Y-90145381D01*
X93695292Y-90159653D01*
X93674742Y-90171971D01*
X93653082Y-90182215D01*
X93630523Y-90190287D01*
X93607281Y-90196109D01*
X93583581Y-90199624D01*
X93559650Y-90200800D01*
X92996350Y-90200800D01*
X92972419Y-90199624D01*
X92948719Y-90196109D01*
X92925477Y-90190287D01*
X92902918Y-90182215D01*
X92881258Y-90171971D01*
X92860708Y-90159653D01*
X92841463Y-90145381D01*
X92823710Y-90129290D01*
X92807619Y-90111537D01*
X92793347Y-90092292D01*
X92781029Y-90071742D01*
X92770785Y-90050082D01*
X92762713Y-90027523D01*
X92756891Y-90004281D01*
X92753376Y-89980581D01*
X92752200Y-89956650D01*
X92752200Y-89468350D01*
X92753376Y-89444419D01*
X92756891Y-89420719D01*
X92762713Y-89397477D01*
X92770785Y-89374918D01*
X92781029Y-89353258D01*
X92793347Y-89332708D01*
X92807619Y-89313463D01*
X92823710Y-89295710D01*
X92841463Y-89279619D01*
X92860708Y-89265347D01*
X92881258Y-89253029D01*
X92902918Y-89242785D01*
X92925477Y-89234713D01*
X92948719Y-89228891D01*
X92972419Y-89225376D01*
X92996350Y-89224200D01*
X93559650Y-89224200D01*
X93583581Y-89225376D01*
X93583581Y-89225376D01*
G37*
D16*
X93278000Y-89712500D03*
D15*
G36*
X93583581Y-90800376D02*
X93607281Y-90803891D01*
X93630523Y-90809713D01*
X93653082Y-90817785D01*
X93674742Y-90828029D01*
X93695292Y-90840347D01*
X93714537Y-90854619D01*
X93732290Y-90870710D01*
X93748381Y-90888463D01*
X93762653Y-90907708D01*
X93774971Y-90928258D01*
X93785215Y-90949918D01*
X93793287Y-90972477D01*
X93799109Y-90995719D01*
X93802624Y-91019419D01*
X93803800Y-91043350D01*
X93803800Y-91531650D01*
X93802624Y-91555581D01*
X93799109Y-91579281D01*
X93793287Y-91602523D01*
X93785215Y-91625082D01*
X93774971Y-91646742D01*
X93762653Y-91667292D01*
X93748381Y-91686537D01*
X93732290Y-91704290D01*
X93714537Y-91720381D01*
X93695292Y-91734653D01*
X93674742Y-91746971D01*
X93653082Y-91757215D01*
X93630523Y-91765287D01*
X93607281Y-91771109D01*
X93583581Y-91774624D01*
X93559650Y-91775800D01*
X92996350Y-91775800D01*
X92972419Y-91774624D01*
X92948719Y-91771109D01*
X92925477Y-91765287D01*
X92902918Y-91757215D01*
X92881258Y-91746971D01*
X92860708Y-91734653D01*
X92841463Y-91720381D01*
X92823710Y-91704290D01*
X92807619Y-91686537D01*
X92793347Y-91667292D01*
X92781029Y-91646742D01*
X92770785Y-91625082D01*
X92762713Y-91602523D01*
X92756891Y-91579281D01*
X92753376Y-91555581D01*
X92752200Y-91531650D01*
X92752200Y-91043350D01*
X92753376Y-91019419D01*
X92756891Y-90995719D01*
X92762713Y-90972477D01*
X92770785Y-90949918D01*
X92781029Y-90928258D01*
X92793347Y-90907708D01*
X92807619Y-90888463D01*
X92823710Y-90870710D01*
X92841463Y-90854619D01*
X92860708Y-90840347D01*
X92881258Y-90828029D01*
X92902918Y-90817785D01*
X92925477Y-90809713D01*
X92948719Y-90803891D01*
X92972419Y-90800376D01*
X92996350Y-90799200D01*
X93559650Y-90799200D01*
X93583581Y-90800376D01*
X93583581Y-90800376D01*
G37*
D16*
X93278000Y-91287500D03*
G04 #@! TD*
D15*
G04 #@! TO.C,D2*
G36*
X95055581Y-90800376D02*
X95079281Y-90803891D01*
X95102523Y-90809713D01*
X95125082Y-90817785D01*
X95146742Y-90828029D01*
X95167292Y-90840347D01*
X95186537Y-90854619D01*
X95204290Y-90870710D01*
X95220381Y-90888463D01*
X95234653Y-90907708D01*
X95246971Y-90928258D01*
X95257215Y-90949918D01*
X95265287Y-90972477D01*
X95271109Y-90995719D01*
X95274624Y-91019419D01*
X95275800Y-91043350D01*
X95275800Y-91531650D01*
X95274624Y-91555581D01*
X95271109Y-91579281D01*
X95265287Y-91602523D01*
X95257215Y-91625082D01*
X95246971Y-91646742D01*
X95234653Y-91667292D01*
X95220381Y-91686537D01*
X95204290Y-91704290D01*
X95186537Y-91720381D01*
X95167292Y-91734653D01*
X95146742Y-91746971D01*
X95125082Y-91757215D01*
X95102523Y-91765287D01*
X95079281Y-91771109D01*
X95055581Y-91774624D01*
X95031650Y-91775800D01*
X94468350Y-91775800D01*
X94444419Y-91774624D01*
X94420719Y-91771109D01*
X94397477Y-91765287D01*
X94374918Y-91757215D01*
X94353258Y-91746971D01*
X94332708Y-91734653D01*
X94313463Y-91720381D01*
X94295710Y-91704290D01*
X94279619Y-91686537D01*
X94265347Y-91667292D01*
X94253029Y-91646742D01*
X94242785Y-91625082D01*
X94234713Y-91602523D01*
X94228891Y-91579281D01*
X94225376Y-91555581D01*
X94224200Y-91531650D01*
X94224200Y-91043350D01*
X94225376Y-91019419D01*
X94228891Y-90995719D01*
X94234713Y-90972477D01*
X94242785Y-90949918D01*
X94253029Y-90928258D01*
X94265347Y-90907708D01*
X94279619Y-90888463D01*
X94295710Y-90870710D01*
X94313463Y-90854619D01*
X94332708Y-90840347D01*
X94353258Y-90828029D01*
X94374918Y-90817785D01*
X94397477Y-90809713D01*
X94420719Y-90803891D01*
X94444419Y-90800376D01*
X94468350Y-90799200D01*
X95031650Y-90799200D01*
X95055581Y-90800376D01*
X95055581Y-90800376D01*
G37*
D16*
X94750000Y-91287500D03*
D15*
G36*
X95055581Y-89225376D02*
X95079281Y-89228891D01*
X95102523Y-89234713D01*
X95125082Y-89242785D01*
X95146742Y-89253029D01*
X95167292Y-89265347D01*
X95186537Y-89279619D01*
X95204290Y-89295710D01*
X95220381Y-89313463D01*
X95234653Y-89332708D01*
X95246971Y-89353258D01*
X95257215Y-89374918D01*
X95265287Y-89397477D01*
X95271109Y-89420719D01*
X95274624Y-89444419D01*
X95275800Y-89468350D01*
X95275800Y-89956650D01*
X95274624Y-89980581D01*
X95271109Y-90004281D01*
X95265287Y-90027523D01*
X95257215Y-90050082D01*
X95246971Y-90071742D01*
X95234653Y-90092292D01*
X95220381Y-90111537D01*
X95204290Y-90129290D01*
X95186537Y-90145381D01*
X95167292Y-90159653D01*
X95146742Y-90171971D01*
X95125082Y-90182215D01*
X95102523Y-90190287D01*
X95079281Y-90196109D01*
X95055581Y-90199624D01*
X95031650Y-90200800D01*
X94468350Y-90200800D01*
X94444419Y-90199624D01*
X94420719Y-90196109D01*
X94397477Y-90190287D01*
X94374918Y-90182215D01*
X94353258Y-90171971D01*
X94332708Y-90159653D01*
X94313463Y-90145381D01*
X94295710Y-90129290D01*
X94279619Y-90111537D01*
X94265347Y-90092292D01*
X94253029Y-90071742D01*
X94242785Y-90050082D01*
X94234713Y-90027523D01*
X94228891Y-90004281D01*
X94225376Y-89980581D01*
X94224200Y-89956650D01*
X94224200Y-89468350D01*
X94225376Y-89444419D01*
X94228891Y-89420719D01*
X94234713Y-89397477D01*
X94242785Y-89374918D01*
X94253029Y-89353258D01*
X94265347Y-89332708D01*
X94279619Y-89313463D01*
X94295710Y-89295710D01*
X94313463Y-89279619D01*
X94332708Y-89265347D01*
X94353258Y-89253029D01*
X94374918Y-89242785D01*
X94397477Y-89234713D01*
X94420719Y-89228891D01*
X94444419Y-89225376D01*
X94468350Y-89224200D01*
X95031650Y-89224200D01*
X95055581Y-89225376D01*
X95055581Y-89225376D01*
G37*
D16*
X94750000Y-89712500D03*
G04 #@! TD*
D12*
G04 #@! TO.C,J2*
X109220000Y-52070000D03*
D13*
X111760000Y-52070000D03*
X109220000Y-54610000D03*
X111760000Y-54610000D03*
X109220000Y-57150000D03*
X111760000Y-57150000D03*
X109220000Y-59690000D03*
X111760000Y-59690000D03*
X109220000Y-62230000D03*
X111760000Y-62230000D03*
X109220000Y-64770000D03*
X111760000Y-64770000D03*
X109220000Y-67310000D03*
X111760000Y-67310000D03*
X109220000Y-69850000D03*
X111760000Y-69850000D03*
X109220000Y-72390000D03*
X111760000Y-72390000D03*
X109220000Y-74930000D03*
X111760000Y-74930000D03*
X109220000Y-77470000D03*
X111760000Y-77470000D03*
X109220000Y-80010000D03*
X111760000Y-80010000D03*
X109220000Y-82550000D03*
X111760000Y-82550000D03*
X109220000Y-85090000D03*
X111760000Y-85090000D03*
X109220000Y-87630000D03*
X111760000Y-87630000D03*
X109220000Y-90170000D03*
X111760000Y-90170000D03*
X109220000Y-92710000D03*
X111760000Y-92710000D03*
X109220000Y-95250000D03*
X111760000Y-95250000D03*
X109220000Y-97790000D03*
X111760000Y-97790000D03*
X109220000Y-100330000D03*
X111760000Y-100330000D03*
G04 #@! TD*
D12*
G04 #@! TO.C,J4*
X88900000Y-69850000D03*
D13*
X86360000Y-69850000D03*
X88900000Y-67310000D03*
X86360000Y-67310000D03*
X88900000Y-64770000D03*
X86360000Y-64770000D03*
X88900000Y-62230000D03*
X86360000Y-62230000D03*
G04 #@! TD*
D12*
G04 #@! TO.C,J5*
X88900000Y-100330000D03*
D13*
X86360000Y-100330000D03*
G04 #@! TD*
D15*
G04 #@! TO.C,R14*
G36*
X91230383Y-86750510D02*
X91256795Y-86754428D01*
X91282696Y-86760916D01*
X91307837Y-86769911D01*
X91331974Y-86781328D01*
X91354877Y-86795055D01*
X91376324Y-86810961D01*
X91396108Y-86828892D01*
X91414039Y-86848676D01*
X91429945Y-86870123D01*
X91443672Y-86893026D01*
X91455089Y-86917163D01*
X91464084Y-86942304D01*
X91470572Y-86968205D01*
X91474490Y-86994617D01*
X91475800Y-87021286D01*
X91475800Y-87978714D01*
X91474490Y-88005383D01*
X91470572Y-88031795D01*
X91464084Y-88057696D01*
X91455089Y-88082837D01*
X91443672Y-88106974D01*
X91429945Y-88129877D01*
X91414039Y-88151324D01*
X91396108Y-88171108D01*
X91376324Y-88189039D01*
X91354877Y-88204945D01*
X91331974Y-88218672D01*
X91307837Y-88230089D01*
X91282696Y-88239084D01*
X91256795Y-88245572D01*
X91230383Y-88249490D01*
X91203714Y-88250800D01*
X90496286Y-88250800D01*
X90469617Y-88249490D01*
X90443205Y-88245572D01*
X90417304Y-88239084D01*
X90392163Y-88230089D01*
X90368026Y-88218672D01*
X90345123Y-88204945D01*
X90323676Y-88189039D01*
X90303892Y-88171108D01*
X90285961Y-88151324D01*
X90270055Y-88129877D01*
X90256328Y-88106974D01*
X90244911Y-88082837D01*
X90235916Y-88057696D01*
X90229428Y-88031795D01*
X90225510Y-88005383D01*
X90224200Y-87978714D01*
X90224200Y-87021286D01*
X90225510Y-86994617D01*
X90229428Y-86968205D01*
X90235916Y-86942304D01*
X90244911Y-86917163D01*
X90256328Y-86893026D01*
X90270055Y-86870123D01*
X90285961Y-86848676D01*
X90303892Y-86828892D01*
X90323676Y-86810961D01*
X90345123Y-86795055D01*
X90368026Y-86781328D01*
X90392163Y-86769911D01*
X90417304Y-86760916D01*
X90443205Y-86754428D01*
X90469617Y-86750510D01*
X90496286Y-86749200D01*
X91203714Y-86749200D01*
X91230383Y-86750510D01*
X91230383Y-86750510D01*
G37*
D17*
X90850000Y-87500000D03*
D15*
G36*
X89530383Y-86750510D02*
X89556795Y-86754428D01*
X89582696Y-86760916D01*
X89607837Y-86769911D01*
X89631974Y-86781328D01*
X89654877Y-86795055D01*
X89676324Y-86810961D01*
X89696108Y-86828892D01*
X89714039Y-86848676D01*
X89729945Y-86870123D01*
X89743672Y-86893026D01*
X89755089Y-86917163D01*
X89764084Y-86942304D01*
X89770572Y-86968205D01*
X89774490Y-86994617D01*
X89775800Y-87021286D01*
X89775800Y-87978714D01*
X89774490Y-88005383D01*
X89770572Y-88031795D01*
X89764084Y-88057696D01*
X89755089Y-88082837D01*
X89743672Y-88106974D01*
X89729945Y-88129877D01*
X89714039Y-88151324D01*
X89696108Y-88171108D01*
X89676324Y-88189039D01*
X89654877Y-88204945D01*
X89631974Y-88218672D01*
X89607837Y-88230089D01*
X89582696Y-88239084D01*
X89556795Y-88245572D01*
X89530383Y-88249490D01*
X89503714Y-88250800D01*
X88796286Y-88250800D01*
X88769617Y-88249490D01*
X88743205Y-88245572D01*
X88717304Y-88239084D01*
X88692163Y-88230089D01*
X88668026Y-88218672D01*
X88645123Y-88204945D01*
X88623676Y-88189039D01*
X88603892Y-88171108D01*
X88585961Y-88151324D01*
X88570055Y-88129877D01*
X88556328Y-88106974D01*
X88544911Y-88082837D01*
X88535916Y-88057696D01*
X88529428Y-88031795D01*
X88525510Y-88005383D01*
X88524200Y-87978714D01*
X88524200Y-87021286D01*
X88525510Y-86994617D01*
X88529428Y-86968205D01*
X88535916Y-86942304D01*
X88544911Y-86917163D01*
X88556328Y-86893026D01*
X88570055Y-86870123D01*
X88585961Y-86848676D01*
X88603892Y-86828892D01*
X88623676Y-86810961D01*
X88645123Y-86795055D01*
X88668026Y-86781328D01*
X88692163Y-86769911D01*
X88717304Y-86760916D01*
X88743205Y-86754428D01*
X88769617Y-86750510D01*
X88796286Y-86749200D01*
X89503714Y-86749200D01*
X89530383Y-86750510D01*
X89530383Y-86750510D01*
G37*
D17*
X89150000Y-87500000D03*
G04 #@! TD*
D18*
G04 #@! TO.C,U1*
X104350000Y-85250000D03*
X104350000Y-84750000D03*
X104350000Y-84250000D03*
X104350000Y-83750000D03*
X104350000Y-83250000D03*
X104350000Y-82750000D03*
X104350000Y-82250000D03*
X104350000Y-81750000D03*
X104350000Y-81250000D03*
X104350000Y-80750000D03*
X104350000Y-80250000D03*
X104350000Y-79750000D03*
D19*
X102750000Y-78150000D03*
X102250000Y-78150000D03*
X101750000Y-78150000D03*
X101250000Y-78150000D03*
X100750000Y-78150000D03*
X100250000Y-78150000D03*
X99750000Y-78150000D03*
X99250000Y-78150000D03*
X98750000Y-78150000D03*
X98250000Y-78150000D03*
X97750000Y-78150000D03*
X97250000Y-78150000D03*
D18*
X95650000Y-79750000D03*
X95650000Y-80250000D03*
X95650000Y-80750000D03*
X95650000Y-81250000D03*
X95650000Y-81750000D03*
X95650000Y-82250000D03*
X95650000Y-82750000D03*
X95650000Y-83250000D03*
X95650000Y-83750000D03*
X95650000Y-84250000D03*
X95650000Y-84750000D03*
X95650000Y-85250000D03*
D19*
X97250000Y-86850000D03*
X97750000Y-86850000D03*
X98250000Y-86850000D03*
X98750000Y-86850000D03*
X99250000Y-86850000D03*
X99750000Y-86850000D03*
X100250000Y-86850000D03*
X100750000Y-86850000D03*
X101250000Y-86850000D03*
X101750000Y-86850000D03*
X102250000Y-86850000D03*
X102750000Y-86850000D03*
G04 #@! TD*
D14*
G04 #@! TO.C,U2*
X97055000Y-63200000D03*
X98325000Y-63200000D03*
X99595000Y-63200000D03*
X100865000Y-63200000D03*
X102135000Y-63200000D03*
X103405000Y-63200000D03*
X104675000Y-63200000D03*
X105945000Y-63200000D03*
X105945000Y-57800000D03*
X104675000Y-57800000D03*
X103405000Y-57800000D03*
X102135000Y-57800000D03*
X100865000Y-57800000D03*
X99595000Y-57800000D03*
X98325000Y-57800000D03*
X97055000Y-57800000D03*
G04 #@! TD*
D20*
G04 #@! TO.C,U3*
X91905000Y-80050000D03*
X90635000Y-80050000D03*
X89365000Y-80050000D03*
X88095000Y-80050000D03*
X88095000Y-85450000D03*
X89365000Y-85450000D03*
X90635000Y-85450000D03*
X91905000Y-85450000D03*
G04 #@! TD*
M02*
